<svg width="362" height="213" viewBox="0 0 362 213" fill="none" xmlns="http://www.w3.org/2000/svg">
<rect x="2" y="2" width="358" height="209" rx="15.234" fill="#FFF8EF" stroke="black" stroke-width="4"/>
<path d="M293.295 131.267C295.38 146.34 305.001 141.048 305.001 147.462C305.001 149.547 303.077 150.509 300.671 150.509C296.342 150.509 293.135 150.028 286.721 150.028C279.986 150.028 277.26 150.509 272.93 150.509C270.044 150.509 268.28 149.066 268.28 147.142C268.28 141.369 279.024 145.217 279.024 135.436C279.024 134.153 278.863 132.55 278.703 131.267L274.854 103.365C273.572 95.1872 270.525 81.7174 258.017 81.7174C248.396 81.7174 237.973 89.4144 237.973 105.77V132.87C237.973 145.859 248.236 141.209 248.236 147.302C248.236 148.745 247.274 150.509 244.868 150.509C241.341 150.509 236.53 150.028 230.757 150.028C225.145 150.028 220.655 150.509 217.127 150.509C214.562 150.509 213.439 148.745 213.439 147.302C213.439 141.209 223.541 145.859 223.541 132.87V52.3728C223.541 42.4308 212.156 47.8829 212.156 41.6291C212.156 39.0634 214.882 37.1392 223.381 33.1303C231.559 29.2818 233.163 28.8008 234.926 28.8008C237.171 28.8008 237.973 30.725 237.973 32.97V85.0849C243.104 76.7465 251.443 69.5306 263.63 69.5306C283.033 69.5306 287.522 88.1316 289.286 101.281L293.295 131.267Z" fill="#3DADFF"/>
<path d="M157.701 152.274C155.135 152.274 153.852 149.548 152.73 147.143L147.919 136.88C145.033 130.947 143.59 128.702 143.59 126.618C143.59 124.373 144.873 123.25 146.797 123.25C148.4 123.25 150.164 124.693 151.768 126.297C162.031 136.559 173.255 143.615 185.121 143.615C195.705 143.615 202.279 137.682 202.279 130.306C202.279 121.326 193.46 119.402 178.868 116.034C163.313 112.186 145.835 107.215 145.835 91.3397C145.835 79.1529 156.578 69.5316 172.774 69.5316C181.754 69.5316 188.649 72.418 191.215 72.418C193.941 72.418 193.941 69.2109 196.988 69.2109C199.714 69.2109 201.157 71.6162 202.921 74.663L208.212 83.3221C209.976 86.2084 211.74 89.5758 211.74 91.3397C211.74 93.264 210.297 94.5468 208.693 94.5468C207.09 94.5468 205.326 92.9433 203.722 91.5001C195.544 83.9635 184.64 77.7097 174.217 77.7097C165.719 77.7097 160.427 82.0392 160.427 87.9723C160.427 96.1503 167.964 97.9142 183.839 101.763C200.515 105.932 216.871 110.743 216.871 127.9C216.871 142.493 203.883 151.793 185.442 151.793C174.538 151.793 167.162 148.265 164.596 148.265C161.549 148.265 161.229 152.274 157.701 152.274Z" fill="#3DADFF"/>
<path d="M88.2311 28C98.4937 28 109.879 32.971 109.879 39.8662C109.879 43.7146 108.115 47.2424 105.549 52.2134C104.587 54.1376 103.144 55.7412 101.38 55.7412C99.2955 55.7412 98.0126 54.298 97.6919 51.8927C96.0884 41.3093 93.0417 36.3384 87.1086 36.3384C81.9773 36.3384 77.6477 40.3472 77.6477 47.2424C77.6477 55.2601 82.1376 61.9949 83.7412 71.2955H102.663C104.587 71.2955 105.549 72.0972 105.549 73.5404C105.549 74.6629 105.229 76.2664 105.068 77.2285C104.587 78.9924 103.785 79.7942 102.021 79.7942H84.3826V132.871C84.3826 145.86 97.5316 140.729 97.5316 147.303C97.5316 148.746 96.4091 150.51 94.0038 150.51C89.8346 150.51 84.2222 150.029 77.6477 150.029C71.7146 150.029 67.0644 150.51 63.5366 150.51C60.971 150.51 59.8485 148.746 59.8485 147.303C59.8485 141.21 69.9508 145.86 69.9508 132.871V79.7942H59.3674C57.7639 79.7942 56.8018 78.9924 56.4811 77.2285C56.3207 76.2664 56 74.6629 56 73.5404C56 72.0972 56.9621 71.2955 58.726 71.2955H69.4697C68.1869 63.7588 64.8194 58.1465 64.8194 49.8081C64.8194 35.8573 75.2424 28 88.2311 28ZM125.273 52.8548C120.943 52.8548 116.774 49.9684 116.774 44.6768C116.774 38.5833 122.867 31.8485 130.885 31.8485C135.696 31.8485 139.865 34.8952 139.865 40.0265C139.865 46.12 133.29 52.8548 125.273 52.8548ZM136.979 132.871C136.979 145.86 147.402 141.21 147.402 147.303C147.402 148.746 146.279 150.51 143.874 150.51C140.346 150.51 135.535 150.029 129.763 150.029C124.15 150.029 119.66 150.51 116.293 150.51C113.567 150.51 112.444 148.746 112.444 147.303C112.444 141.21 122.547 145.86 122.547 132.871V93.5846C122.547 83.6427 111.162 89.0947 111.162 82.8409C111.162 80.2752 114.048 78.5114 122.386 74.5025C130.564 70.4937 132.328 70.0126 133.611 70.0126C136.177 70.0126 136.979 72.0972 136.979 75.625V132.871Z" fill="#3DADFF"/>
<g clip-path="url(#clip0_127_173)">
<path d="M222.655 129.337C222.217 129.483 221.705 129.665 221.16 129.882C221.207 129.879 221.254 129.877 221.301 129.874C221.764 129.848 222.548 129.592 223.201 129.168C223.019 129.22 222.837 129.276 222.655 129.337ZM184.912 134.953H183.423C182.941 134.953 182.457 134.953 181.973 134.953C181.981 134.968 181.99 134.983 182 134.997C182.404 135.62 183.098 135.962 183.952 135.962C184.473 135.962 184.882 135.709 185.209 135.506C185.356 135.415 185.495 135.329 185.607 135.289C185.798 135.22 185.988 135.106 186.177 134.959C185.755 134.955 185.331 134.953 184.912 134.953Z" fill="#3DADFF"/>
<path d="M244.135 116.066V116.175C244.133 116.945 244.131 117.714 244.131 118.482C244.131 119.822 244.131 121.49 243.797 123.124C243.372 125.211 242.471 126.764 241.121 127.739C239.898 128.622 238.538 129.114 237.337 129.549L237.301 129.562C236.899 129.708 236.518 129.846 236.153 129.994C234.447 130.688 232.344 131.136 230.466 131.213C229.851 131.471 229.209 131.505 228.752 131.505C228.364 131.505 227.977 131.476 227.636 131.451L227.617 131.449C227.442 131.436 227.244 131.421 227.156 131.421C225.722 131.421 224.638 131.579 223.528 131.949C222.489 132.295 220.993 132.864 219.739 133.616C219.707 133.643 219.649 133.696 219.608 133.733C219.248 134.063 218.578 134.676 217.533 134.754C217.343 134.768 216.967 134.908 216.635 135.03C216.219 135.183 215.751 135.356 215.239 135.46C213.104 135.896 210.992 136.118 209.208 136.279C207.407 136.441 205.57 136.664 203.794 136.879L203.783 136.881C201.283 137.183 198.698 137.497 196.104 137.658C194.811 137.738 193.425 137.776 191.741 137.776C190.595 137.776 189.449 137.758 188.341 137.741H188.29C187.247 137.724 186.065 137.706 184.915 137.706H183.426C182.915 137.706 182.401 137.706 181.886 137.706C177.438 137.706 172.706 137.688 168.058 137.463C162.929 137.214 157.035 136.801 151.989 135.038C150.428 134.492 148.889 133.872 147.4 133.272L147.385 133.266C146.054 132.729 144.682 132.177 143.334 131.695C143.032 131.586 142.73 131.48 142.429 131.373L142.343 131.343C140.535 130.705 138.668 130.046 136.869 129.121C136.586 128.977 136.29 128.776 135.976 128.564C135.703 128.38 135.363 128.151 135.055 127.977C134.487 128.784 133.73 129.695 132.195 130.189C131.377 130.451 130.557 130.579 129.688 130.579C128.344 130.579 127.076 130.275 125.787 129.936C124.081 129.487 122.735 128.727 121.421 127.471C121.349 127.402 121.278 127.334 121.207 127.267L121.114 127.178C118.851 125.021 116.512 122.792 116.512 118.81C116.512 116.827 117.426 113.757 118.956 112.051C119.184 111.797 119.396 111.524 119.602 111.261L119.609 111.253C120.027 110.717 120.502 110.11 121.191 109.514C121.89 108.908 122.768 108.461 123.542 108.067C123.708 107.982 123.86 107.904 124.002 107.83C125.338 107.125 126.949 106.751 128.657 106.751C129.479 106.751 130.324 106.837 131.168 107.005C132.94 107.359 134.637 108.073 136.04 109.044C136.066 109.027 136.091 109.01 136.117 108.994C136.311 108.871 136.554 108.716 136.813 108.572C137.379 108.257 137.96 108.005 138.472 107.783L138.476 107.781C139.076 107.521 139.593 107.295 140.048 107.012C141.083 106.365 142.135 105.773 143.153 105.202L143.198 105.176C144.174 104.628 145.183 104.061 146.135 103.466C146.482 103.249 146.874 102.898 147.289 102.525C148.234 101.677 149.405 100.627 151.039 100.282C151.058 100.263 151.102 100.22 151.102 100.22C151.251 100.076 151.435 99.8969 151.665 99.7274C152.056 99.437 152.46 99.0613 152.887 98.6635C153.625 97.9774 154.461 97.1985 155.496 96.6381C158.616 94.9486 161.719 93.8922 165.003 92.7737L165.011 92.7704C165.823 92.4946 166.554 92.2458 167.28 91.9904C171.61 90.4693 176.405 89.4453 181.938 88.8606C187.17 88.3073 192.347 88.2366 196.272 88.2366C196.851 88.2366 197.457 88.2383 198.125 88.2415C201.904 88.2609 205.667 88.4763 209.324 88.8822C209.629 88.242 209.915 87.6536 210.195 87.0847V87.0809L210.368 86.7349L210.438 86.5935L210.439 86.5924L210.496 86.478C211.456 84.5563 212.364 82.8596 213.27 81.291C213.308 81.2262 213.343 81.1641 213.38 81.101L213.405 81.0567C213.894 80.2027 214.565 79.0346 215.545 78.2459C215.564 78.2298 215.588 78.2076 215.614 78.1844L215.641 78.1596C216.167 77.6845 217.049 76.8867 218.196 76.8867C218.409 76.8867 218.622 76.9148 218.826 76.9715C219.622 77.1928 220.222 77.7925 220.476 78.6168C221.332 81.4 221.932 84.5438 222.308 88.2275L222.315 88.2955V88.2987C222.319 88.3338 222.334 88.4752 222.334 88.4752V88.4817C222.397 89.1262 222.454 89.7864 222.503 90.446C222.507 90.499 222.517 90.5934 222.526 90.6846L222.528 90.6981C222.545 90.8531 222.565 91.0404 222.581 91.2466C224.113 91.6244 225.658 92.0422 227.188 92.4924C227.555 92.5999 227.927 92.7073 228.303 92.8152C230.884 93.5596 233.551 94.3283 235.983 95.6417C238.978 97.2589 240.955 99.3755 242.026 102.113C243.863 106.805 244.115 109.61 244.131 111.529C244.143 113.043 244.139 114.58 244.135 116.066Z" fill="white"/>
<path d="M239.246 101.484C239.246 101.717 239.133 101.922 238.959 102.05C238.711 101.605 238.424 101.183 238.096 100.782H238.544C238.932 100.782 239.246 101.096 239.246 101.484Z" fill="#3DADFF"/>
<path d="M241.443 107.012C241.371 107.316 241.158 107.487 240.889 107.592C240.774 107.084 240.643 106.591 240.502 106.112C240.667 106.062 240.851 106.073 241.017 106.156C241.405 106.35 241.51 106.725 241.443 107.012Z" fill="#3DADFF"/>
<path d="M216.72 101.888C216.176 101.555 215.453 101.372 214.684 101.372C214.552 101.372 214.423 101.373 214.296 101.373C213.399 101.377 212.672 101.379 211.97 101.217C211.841 101.072 211.653 100.98 211.444 100.98H211.237C211.15 100.943 211.061 100.902 210.972 100.857C210.696 100.719 210.372 100.781 210.164 100.987C204.235 101.051 199.056 101.57 194.366 102.566C191.704 103.132 189.199 104.061 186.776 104.96C185.63 105.385 184.446 105.825 183.26 106.22C182.332 106.529 181.725 107.163 181.55 108.004C181.426 108.604 181.525 109.284 181.838 109.972C182.108 110.57 182.531 111.143 183.026 111.586C184.385 112.805 187.327 112.987 188.96 112.987H189.214C191.785 112.987 194.22 112.979 196.756 112.472C197.958 112.232 199.208 112.018 200.419 111.813C204.077 111.19 207.859 110.546 211.315 109.011C211.482 108.936 211.693 108.848 211.936 108.745C212.877 108.351 214.298 107.755 215.482 107.002C217.068 105.994 217.84 104.96 217.84 103.841C217.84 103.023 217.442 102.329 216.72 101.888ZM214.729 105.818C213.645 106.506 212.291 107.075 211.394 107.451C211.142 107.556 210.925 107.647 210.745 107.728C207.45 109.192 203.756 109.821 200.183 110.429C198.963 110.636 197.702 110.851 196.48 111.096C194.038 111.584 191.635 111.584 189.085 111.584H188.96C187.106 111.584 184.82 111.31 183.962 110.541C183.239 109.893 182.792 108.925 182.925 108.289C182.951 108.163 183.031 107.775 183.705 107.551C184.912 107.149 186.108 106.705 187.264 106.276C189.749 105.354 192.096 104.483 194.658 103.939C199.463 102.918 204.805 102.409 210.974 102.384C212.078 102.784 213.122 102.781 214.301 102.777C214.426 102.776 214.553 102.776 214.684 102.776C214.863 102.776 216.437 102.806 216.437 103.841C216.437 104.424 215.846 105.108 214.729 105.818Z" fill="#3DADFF"/>
<path d="M239.245 101.486C239.245 101.719 239.133 101.925 238.958 102.052C238.842 102.138 238.699 102.188 238.544 102.188H235.598C235.293 102.188 234.962 102.167 234.611 102.144C233.827 102.094 232.939 102.037 232.413 102.239C231.504 102.589 230.544 102.613 229.616 102.635C229.033 102.649 228.484 102.663 227.978 102.755C226.091 103.098 224.032 103.17 222.637 103.17C222.54 103.17 222.447 103.15 222.363 103.114C222.112 103.007 221.936 102.758 221.936 102.468C221.936 102.081 222.25 101.766 222.637 101.766C222.958 101.766 223.315 101.763 223.697 101.752C224.908 101.719 226.371 101.621 227.727 101.374C228.34 101.262 228.971 101.247 229.581 101.232C230.428 101.211 231.227 101.192 231.91 100.93C232.722 100.617 233.773 100.684 234.701 100.744C235.028 100.764 235.338 100.784 235.598 100.784H238.544C238.931 100.784 239.245 101.099 239.245 101.486Z" fill="#3DADFF"/>
<path d="M241.02 106.16C240.853 106.077 240.67 106.066 240.504 106.116C240.374 106.155 240.255 106.232 240.164 106.341C239.823 106.41 239.246 106.479 239.048 106.479C238.582 106.479 238.137 106.53 237.707 106.58C237.286 106.629 236.887 106.675 236.473 106.675H231.63C230.753 106.675 229.888 106.581 228.973 106.483C228.063 106.384 227.122 106.282 226.175 106.282C226.008 106.282 225.837 106.29 225.672 106.297C225.194 106.319 224.7 106.34 224.397 106.173C223.905 105.901 223.342 105.603 222.891 105.502C222.379 105.389 221.658 104.917 221.576 104.697C221.576 104.696 221.575 104.694 221.575 104.693C221.49 104.179 221.571 103.773 221.815 103.484C221.95 103.324 222.137 103.2 222.365 103.114C222.61 103.021 222.902 102.973 223.229 102.973C223.617 102.973 223.931 102.659 223.931 102.271C223.931 102.065 223.842 101.88 223.7 101.751C223.576 101.638 223.41 101.569 223.229 101.569C222.177 101.569 221.295 101.927 220.744 102.577C220.513 102.851 220.269 103.262 220.177 103.832C220.126 104.147 220.121 104.511 220.191 104.929C220.273 105.42 220.635 105.831 221.064 106.148C221.61 106.551 222.264 106.801 222.586 106.873C222.878 106.938 223.489 107.275 223.719 107.402C224.368 107.76 225.125 107.726 225.734 107.699C225.891 107.692 226.039 107.686 226.175 107.686C227.046 107.686 227.909 107.779 228.821 107.878C229.734 107.976 230.677 108.078 231.63 108.078H236.473C236.968 108.078 237.426 108.025 237.869 107.974C238.277 107.927 238.663 107.882 239.048 107.882C239.259 107.882 239.727 107.835 240.113 107.775C240.375 107.734 240.655 107.69 240.891 107.597C241.16 107.49 241.374 107.32 241.445 107.016C241.513 106.729 241.408 106.354 241.02 106.16Z" fill="#3DADFF"/>
<path d="M232.652 105.327C232.466 105.327 232.286 105.252 232.155 105.121C232.139 105.105 232.124 105.088 232.108 105.07C232.094 105.052 232.08 105.034 232.068 105.014C232.043 104.976 232.021 104.935 232.003 104.893C231.986 104.851 231.972 104.807 231.963 104.762C231.959 104.739 231.955 104.717 231.953 104.694C231.951 104.671 231.949 104.648 231.949 104.625C231.949 104.602 231.951 104.579 231.953 104.556C231.955 104.533 231.959 104.51 231.963 104.488C231.972 104.443 231.986 104.399 232.003 104.356C232.021 104.314 232.043 104.273 232.068 104.235C232.08 104.216 232.094 104.197 232.108 104.18C232.124 104.162 232.139 104.145 232.155 104.128C232.171 104.112 232.188 104.097 232.206 104.082C232.224 104.068 232.243 104.054 232.262 104.041C232.3 104.016 232.341 103.995 232.383 103.977C232.425 103.959 232.47 103.946 232.514 103.937C232.537 103.932 232.56 103.929 232.582 103.926C232.628 103.922 232.675 103.922 232.721 103.926C232.743 103.929 232.766 103.932 232.789 103.937C232.833 103.946 232.878 103.959 232.92 103.977C232.962 103.995 233.003 104.016 233.041 104.041C233.06 104.054 233.078 104.068 233.096 104.082C233.114 104.097 233.131 104.112 233.148 104.128C233.164 104.145 233.179 104.162 233.194 104.18C233.209 104.197 233.222 104.216 233.235 104.235C233.26 104.273 233.282 104.314 233.299 104.356C233.317 104.399 233.331 104.443 233.339 104.488C233.344 104.51 233.347 104.533 233.349 104.556C233.352 104.579 233.353 104.602 233.353 104.625C233.353 104.648 233.352 104.671 233.349 104.694C233.347 104.717 233.344 104.739 233.339 104.762C233.331 104.807 233.317 104.851 233.299 104.893C233.282 104.935 233.26 104.976 233.235 105.014C233.222 105.034 233.209 105.052 233.194 105.07C233.179 105.088 233.164 105.105 233.148 105.121C233.131 105.137 233.114 105.153 233.096 105.168C233.078 105.182 233.06 105.196 233.041 105.208C233.003 105.233 232.962 105.255 232.92 105.273C232.877 105.29 232.833 105.304 232.789 105.313C232.766 105.318 232.743 105.321 232.721 105.323C232.697 105.325 232.674 105.327 232.652 105.327Z" fill="#3DADFF"/>
<path d="M200.446 107.488C200.423 107.488 200.399 107.487 200.377 107.485C200.354 107.483 200.331 107.479 200.309 107.475C200.264 107.466 200.22 107.452 200.177 107.435C200.135 107.417 200.094 107.395 200.056 107.37C200.037 107.358 200.018 107.344 200.001 107.329C199.983 107.314 199.965 107.299 199.949 107.283C199.933 107.267 199.918 107.25 199.903 107.232C199.889 107.214 199.875 107.195 199.862 107.176C199.837 107.138 199.815 107.097 199.798 107.055C199.78 107.013 199.767 106.968 199.758 106.924C199.753 106.902 199.75 106.878 199.747 106.856C199.745 106.833 199.744 106.81 199.744 106.787C199.744 106.763 199.745 106.741 199.747 106.717C199.75 106.695 199.753 106.672 199.758 106.649C199.767 106.605 199.78 106.561 199.798 106.518C199.815 106.476 199.837 106.435 199.862 106.397C199.875 106.378 199.889 106.36 199.903 106.342C199.918 106.324 199.933 106.307 199.949 106.29C199.965 106.274 199.983 106.259 200.001 106.244C200.018 106.229 200.037 106.216 200.056 106.203C200.094 106.178 200.135 106.156 200.177 106.139C200.22 106.121 200.264 106.107 200.309 106.099C200.331 106.094 200.354 106.091 200.377 106.089C200.423 106.084 200.469 106.084 200.514 106.089C200.538 106.091 200.56 106.094 200.583 106.099C200.628 106.107 200.672 106.121 200.714 106.139C200.756 106.156 200.797 106.178 200.835 106.203C200.855 106.216 200.873 106.229 200.891 106.244C200.908 106.259 200.926 106.274 200.942 106.29C200.958 106.307 200.974 106.324 200.988 106.342C201.003 106.36 201.016 106.378 201.029 106.397C201.054 106.435 201.076 106.476 201.094 106.518C201.111 106.561 201.124 106.605 201.134 106.649C201.138 106.672 201.142 106.695 201.144 106.717C201.146 106.741 201.148 106.764 201.148 106.787C201.148 106.809 201.146 106.833 201.144 106.856C201.142 106.878 201.138 106.902 201.134 106.924C201.124 106.968 201.111 107.013 201.094 107.055C201.076 107.097 201.054 107.138 201.029 107.176C201.016 107.195 201.003 107.214 200.988 107.232C200.974 107.25 200.958 107.267 200.942 107.283C200.926 107.299 200.908 107.314 200.891 107.329C200.873 107.344 200.855 107.358 200.835 107.37C200.797 107.395 200.756 107.417 200.714 107.435C200.672 107.452 200.628 107.466 200.583 107.475C200.56 107.479 200.538 107.483 200.514 107.485C200.492 107.487 200.469 107.488 200.446 107.488Z" fill="#3DADFF"/>
<path d="M223.738 122.696C223.752 123.626 223.766 124.587 223.498 125.526C223.225 126.481 222.622 127.636 221.304 127.714C221.133 127.724 220.964 127.745 220.784 127.767C220.55 127.795 220.291 127.827 220.021 127.827C219.348 127.827 218.606 127.629 218.009 126.692C217.499 125.889 217.027 125.049 217.027 124.34C217.027 124.231 217.036 124.106 217.046 123.962C217.059 123.784 217.087 123.393 217.057 123.21C216.832 123.004 216.761 122.666 216.905 122.379C217.078 122.033 217.499 121.892 217.846 122.065C218.564 122.424 218.496 123.371 218.446 124.062C218.438 124.175 218.431 124.281 218.431 124.34C218.431 124.522 218.563 124.947 219.193 125.939C219.537 126.478 219.808 126.473 220.612 126.374C220.806 126.35 221.006 126.325 221.222 126.313C221.621 126.289 221.933 125.895 222.149 125.14C222.36 124.401 222.347 123.583 222.335 122.717C222.332 122.517 222.329 122.309 222.329 122.104C222.329 121.643 222.333 121.176 222.337 120.724C222.345 119.828 222.353 118.901 222.329 117.999C222.306 117.128 222.053 116.155 221.809 115.212C221.689 114.749 221.565 114.271 221.47 113.812C221.174 112.372 220.853 111.035 220.489 109.724C220.345 109.206 220.218 108.651 220.096 108.113C219.828 106.934 219.55 105.715 219.064 104.744C218.987 104.589 218.901 104.424 218.811 104.248C218.337 103.331 217.748 102.189 217.621 101.179C217.573 100.795 217.846 100.444 218.23 100.396C218.615 100.348 218.965 100.621 219.014 101.005C219.109 101.767 219.635 102.786 220.058 103.605C220.097 103.682 220.136 103.757 220.175 103.831C220.225 103.929 220.273 104.024 220.32 104.117C220.636 104.75 220.868 105.44 221.062 106.147C221.212 106.695 221.339 107.252 221.464 107.802C221.588 108.347 221.706 108.862 221.841 109.348C222.213 110.69 222.542 112.058 222.845 113.53C222.932 113.953 223.046 114.394 223.167 114.86C223.431 115.878 223.704 116.931 223.732 117.961C223.756 118.889 223.748 119.828 223.74 120.736C223.736 121.185 223.732 121.649 223.732 122.104C223.732 122.299 223.735 122.501 223.738 122.696Z" fill="#3DADFF"/>
<path d="M225.189 124.74C224.834 124.74 224.541 125.004 224.494 125.346C224.436 125.407 224.309 125.505 224.219 125.573C224.035 125.714 223.826 125.874 223.659 126.084C223.622 126.13 223.584 126.174 223.545 126.22C223.298 126.508 222.961 126.9 222.919 127.548C222.889 127.627 222.697 127.854 222.257 128.099C221.85 128.327 221.421 128.461 221.223 128.472C220.15 128.532 219.649 128.531 219.009 127.891C218.824 127.705 218.584 127.575 218.331 127.437C218.183 127.356 217.915 127.209 217.829 127.119C217.825 127.082 217.825 127.035 217.825 126.984C217.826 126.734 217.827 126.316 217.438 125.928C217.367 125.856 217.301 125.801 217.247 125.758C217.209 125.406 216.911 125.133 216.549 125.133C216.162 125.133 215.848 125.447 215.848 125.834C215.848 126.359 216.041 126.61 216.333 126.827C216.367 126.852 216.393 126.872 216.421 126.897C216.422 126.922 216.422 126.954 216.422 126.98C216.421 127.101 216.421 127.268 216.464 127.46C216.605 128.093 217.214 128.426 217.659 128.668C217.782 128.736 217.967 128.837 218.017 128.883C218.876 129.743 219.732 129.9 220.569 129.9C220.767 129.9 220.964 129.892 221.16 129.881C221.207 129.879 221.254 129.876 221.301 129.873C221.764 129.847 222.548 129.591 223.201 129.167H223.201C223.796 128.781 224.283 128.257 224.319 127.643C224.329 127.476 224.406 127.371 224.609 127.134C224.657 127.079 224.706 127.021 224.755 126.96C224.816 126.884 224.947 126.784 225.074 126.687C225.418 126.422 225.891 126.06 225.891 125.442C225.891 125.054 225.577 124.74 225.189 124.74Z" fill="#3DADFF"/>
<path d="M220.671 94.8097L220.625 94.8243L220.578 94.8361C220.45 94.8674 220.32 94.8869 220.191 94.8928C220.156 94.895 220.12 94.8961 220.085 94.8961C219.745 94.8961 219.411 94.8108 219.114 94.6504C218.993 94.5857 218.878 94.5085 218.771 94.4194L219.316 93.3134L219.93 92.0664C220.14 92.1134 220.351 92.1609 220.561 92.2089L220.409 93.559L220.373 93.8769L220.671 94.8097Z" fill="#3DADFF"/>
<path d="M220.259 93.5247C220.259 93.5247 220.256 93.5252 220.254 93.5258C220.197 93.5398 220.14 93.5468 220.084 93.5468C219.918 93.5468 219.759 93.4874 219.635 93.3838C219.843 93.4302 220.051 93.4772 220.259 93.5247Z" fill="#3DADFF"/>
<path d="M244.131 111.529C244.115 109.61 243.863 106.805 242.026 102.113C240.955 99.3755 238.978 97.2589 235.983 95.6417C233.551 94.3283 230.884 93.5596 228.303 92.8152C227.927 92.7073 227.555 92.5999 227.188 92.4924C225.658 92.0422 224.113 91.6244 222.581 91.2466C222.565 91.0404 222.545 90.8531 222.528 90.6981L222.526 90.6846C222.517 90.5934 222.507 90.499 222.503 90.446C222.454 89.7864 222.397 89.1262 222.334 88.4817V88.4752C222.334 88.4752 222.319 88.3338 222.315 88.2987V88.2955L222.308 88.2275C221.932 84.5438 221.332 81.4 220.476 78.6168C220.222 77.7925 219.622 77.1928 218.826 76.9715C218.622 76.9148 218.409 76.8867 218.196 76.8867C217.049 76.8867 216.167 77.6845 215.641 78.1596L215.614 78.1844C215.588 78.2076 215.564 78.2298 215.545 78.2459C214.565 79.0346 213.894 80.2027 213.405 81.0567L213.38 81.101C213.343 81.1641 213.308 81.2262 213.27 81.291C212.364 82.8596 211.456 84.5563 210.496 86.478L210.439 86.5924L210.438 86.5935L210.368 86.7349L210.195 87.0809V87.0847C209.915 87.6536 209.629 88.242 209.324 88.8822C205.667 88.4763 201.904 88.2609 198.125 88.2415C197.457 88.2383 196.851 88.2366 196.272 88.2366C192.347 88.2366 187.17 88.3073 181.938 88.8606C176.405 89.4453 171.61 90.4693 167.28 91.9904C166.554 92.2458 165.823 92.4946 165.011 92.7704L165.003 92.7737C161.719 93.8922 158.616 94.9486 155.496 96.6381C154.461 97.1985 153.625 97.9774 152.887 98.6635C152.46 99.0613 152.056 99.437 151.665 99.7274C151.435 99.8969 151.251 100.076 151.102 100.22C151.102 100.22 151.058 100.263 151.039 100.282C149.405 100.627 148.234 101.677 147.289 102.525C146.874 102.898 146.482 103.249 146.135 103.466C145.183 104.061 144.174 104.628 143.198 105.176L143.153 105.202C142.135 105.773 141.083 106.365 140.048 107.012C139.593 107.295 139.076 107.521 138.476 107.781L138.472 107.783C137.96 108.005 137.379 108.257 136.813 108.572C136.554 108.716 136.311 108.871 136.117 108.994C136.091 109.01 136.066 109.027 136.04 109.044C134.637 108.073 132.94 107.359 131.168 107.005C130.324 106.837 129.479 106.751 128.657 106.751C126.949 106.751 125.338 107.125 124.002 107.83C123.86 107.904 123.708 107.982 123.542 108.067C122.768 108.461 121.89 108.908 121.191 109.514C120.502 110.11 120.027 110.717 119.609 111.253L119.602 111.261C119.396 111.524 119.184 111.797 118.956 112.051C117.426 113.757 116.512 116.827 116.512 118.81C116.512 122.792 118.851 125.021 121.114 127.178L121.207 127.267C121.278 127.334 121.349 127.402 121.421 127.471C122.735 128.727 124.081 129.487 125.787 129.936C127.076 130.275 128.344 130.579 129.688 130.579C130.557 130.579 131.377 130.451 132.195 130.189C133.73 129.695 134.487 128.784 135.055 127.977C135.363 128.151 135.703 128.38 135.976 128.564C136.29 128.776 136.586 128.977 136.869 129.121C138.668 130.046 140.535 130.705 142.343 131.343L142.429 131.373C142.73 131.48 143.032 131.586 143.334 131.695C144.682 132.177 146.054 132.729 147.385 133.266L147.4 133.272C148.889 133.872 150.428 134.492 151.989 135.038C157.035 136.801 162.929 137.214 168.058 137.463C172.706 137.688 177.438 137.706 181.886 137.706C182.401 137.706 182.915 137.706 183.426 137.706H184.915C186.065 137.706 187.247 137.724 188.29 137.74H188.341C189.449 137.758 190.595 137.776 191.741 137.776C193.425 137.776 194.811 137.738 196.104 137.658C198.698 137.497 201.283 137.183 203.783 136.881L203.794 136.879C205.57 136.664 207.407 136.441 209.208 136.279C210.992 136.118 213.104 135.896 215.239 135.46C215.751 135.356 216.219 135.183 216.635 135.03C216.967 134.908 217.343 134.768 217.533 134.754C218.578 134.676 219.248 134.063 219.608 133.733C219.649 133.696 219.707 133.643 219.739 133.616C220.993 132.864 222.489 132.295 223.528 131.949C224.638 131.579 225.722 131.421 227.156 131.421C227.244 131.421 227.442 131.436 227.617 131.449L227.636 131.451C227.977 131.476 228.364 131.505 228.752 131.505C229.209 131.505 229.851 131.471 230.466 131.213C232.344 131.136 234.447 130.688 236.153 129.994C236.518 129.846 236.899 129.708 237.301 129.562L237.337 129.549C238.538 129.114 239.898 128.622 241.121 127.739C242.471 126.764 243.372 125.211 243.797 123.124C244.131 121.49 244.131 119.822 244.131 118.482C244.131 117.714 244.133 116.945 244.135 116.175V116.066C244.139 114.58 244.143 113.043 244.131 111.529ZM239.509 125.507C238.599 126.164 237.531 126.551 236.4 126.961C235.978 127.113 235.542 127.271 235.117 127.444C233.579 128.069 231.533 128.472 229.905 128.472C229.893 128.472 229.881 128.473 229.869 128.473C229.848 128.474 229.827 128.476 229.806 128.479C229.795 128.481 229.785 128.482 229.774 128.484C229.766 128.486 229.758 128.488 229.75 128.489C229.749 128.489 229.749 128.489 229.748 128.49C229.735 128.492 229.723 128.496 229.71 128.5C229.7 128.502 229.691 128.505 229.682 128.508C229.67 128.512 229.659 128.516 229.648 128.521C229.639 128.524 229.631 128.528 229.623 128.531C229.58 128.55 229.538 128.573 229.5 128.601C229.492 128.606 229.485 128.612 229.476 128.618C229.475 128.619 229.474 128.62 229.473 128.621C229.467 128.625 229.461 128.63 229.455 128.636C229.448 128.641 229.441 128.647 229.434 128.653C229.429 128.658 229.425 128.663 229.42 128.667C229.185 128.806 228.245 128.735 227.842 128.705C227.59 128.686 227.352 128.668 227.156 128.668C225.635 128.668 224.42 128.82 223.204 129.168H223.203C222.55 129.592 221.766 129.848 221.304 129.874C221.257 129.877 221.209 129.88 221.162 129.882C220.236 130.25 219.212 130.718 218.283 131.279C218.075 131.405 217.901 131.563 217.749 131.703C217.603 131.836 217.422 132.002 217.329 132.009C216.755 132.051 216.21 132.252 215.682 132.447C215.329 132.577 214.996 132.7 214.688 132.763C212.691 133.17 210.672 133.383 208.961 133.537C207.113 133.703 205.252 133.929 203.451 134.147C200.991 134.445 198.447 134.754 195.933 134.91C193.424 135.066 190.836 135.026 188.332 134.987C187.625 134.977 186.902 134.966 186.18 134.959C185.99 135.106 185.801 135.22 185.61 135.289C185.498 135.329 185.359 135.415 185.212 135.507C184.884 135.71 184.476 135.963 183.954 135.963C183.1 135.963 182.407 135.62 182.003 134.998C181.993 134.983 181.984 134.969 181.975 134.953C177.428 134.954 172.763 134.934 168.191 134.713C163.257 134.474 157.598 134.082 152.897 132.438C151.392 131.913 149.878 131.302 148.414 130.713C147.061 130.168 145.663 129.604 144.262 129.102C143.927 128.983 143.593 128.864 143.259 128.747C141.46 128.112 139.761 127.513 138.128 126.673C137.994 126.604 137.762 126.448 137.517 126.283C136.974 125.917 136.298 125.461 135.625 125.203C134.272 124.686 133.594 125.271 133.31 125.666C133.193 125.828 133.089 125.98 132.988 126.128C132.485 126.86 132.182 127.301 131.352 127.568C129.787 128.071 128.348 127.763 126.487 127.274C125.224 126.941 124.308 126.422 123.324 125.481C123.22 125.382 123.116 125.283 123.013 125.184C120.919 123.188 119.265 121.612 119.265 118.81C119.265 117.371 119.964 115.05 121.005 113.889C121.293 113.568 121.536 113.257 121.772 112.956C122.148 112.474 122.504 112.019 122.993 111.594C123.44 111.207 124.16 110.841 124.794 110.518C124.966 110.431 125.128 110.349 125.283 110.267C126.728 109.504 128.627 109.305 130.629 109.705C132.084 109.996 133.462 110.584 134.564 111.37C134.557 111.413 134.552 111.456 134.552 111.501C134.552 111.888 134.867 112.202 135.254 112.202C135.351 112.202 135.446 112.197 135.538 112.188C135.54 112.189 135.542 112.192 135.544 112.193C135.818 112.467 136.262 112.467 136.536 112.193C136.64 112.088 136.705 111.959 136.73 111.824C137.039 111.67 137.324 111.488 137.595 111.316C137.787 111.194 137.968 111.079 138.148 110.979C138.593 110.732 139.067 110.526 139.568 110.309C140.211 110.029 140.876 109.74 141.506 109.346C142.495 108.728 143.528 108.148 144.526 107.588C145.537 107.02 146.582 106.433 147.594 105.801C148.142 105.459 148.642 105.009 149.127 104.574C149.94 103.845 150.708 103.156 151.633 102.971C152.261 102.937 152.694 102.516 153.012 102.204C153.118 102.1 153.218 102.003 153.302 101.941C153.819 101.558 154.299 101.111 154.763 100.679C155.441 100.048 156.081 99.4521 156.808 99.0592C159.726 97.4781 162.724 96.4578 165.899 95.3772C166.649 95.1218 167.424 94.8579 168.194 94.5874C177.893 91.1796 188.722 90.9459 198.111 90.9945C202.12 91.0155 206.045 91.2563 209.925 91.7238C209.989 91.8004 210.07 91.8647 210.167 91.91C210.406 92.0217 210.675 91.9872 210.875 91.8431C213.707 92.2112 216.516 92.7008 219.317 93.314L218.772 94.4201C218.878 94.5092 218.993 94.5863 219.114 94.6511C219.191 94.6673 219.267 94.6846 219.343 94.7013C219.549 94.7472 219.755 94.7936 219.961 94.8406C220.037 94.8584 220.115 94.8757 220.191 94.8935C220.321 94.8876 220.451 94.8681 220.578 94.8368L220.625 94.8249L220.671 94.8104L220.374 93.8776L220.41 93.5596C222.412 94.0201 224.411 94.5448 226.412 95.1332C226.783 95.2422 227.161 95.3512 227.542 95.4614C229.981 96.1647 232.504 96.8918 234.675 98.0643C236.105 98.8368 237.24 99.7366 238.097 100.784H238.546C238.933 100.784 239.247 101.098 239.247 101.486C239.247 101.718 239.135 101.924 238.96 102.051C239.151 102.393 239.318 102.748 239.462 103.116C239.812 104.01 240.183 105.021 240.504 106.116C240.669 106.066 240.852 106.077 241.019 106.16C241.407 106.354 241.512 106.729 241.444 107.016C241.373 107.32 241.159 107.49 240.891 107.596C241.176 108.847 241.367 110.179 241.378 111.55C241.39 113.088 241.386 114.654 241.382 116.168C241.38 116.94 241.378 117.711 241.378 118.482C241.378 120.743 241.378 124.157 239.509 125.507ZM215.79 82.4321C216.214 81.6915 216.694 80.8527 217.273 80.3895C217.334 80.3409 217.401 80.2805 217.486 80.2038C217.574 80.1234 217.776 79.9415 217.958 79.8038C218.609 82.0095 219.098 84.4899 219.437 87.3173C219.018 87.1036 218.604 86.8812 218.178 86.6253C217.954 86.4909 217.697 86.323 217.426 86.1449C216.57 85.5846 215.557 84.9206 214.557 84.6318C214.91 83.9781 215.277 83.3212 215.654 82.6691C215.699 82.5919 215.744 82.5126 215.79 82.4321ZM216.657 87.319C216.941 87.5047 217.208 87.6801 217.456 87.8285C218.189 88.2685 218.867 88.6053 219.585 88.9616C219.595 88.967 219.606 88.9718 219.616 88.9772C219.668 89.5224 219.715 90.0801 219.757 90.6501C219.765 90.7521 219.778 90.8687 219.791 90.9923C219.815 91.2056 219.866 91.6795 219.846 91.9931C219.485 91.9127 219.124 91.835 218.762 91.7594C218.916 91.4182 218.775 91.0123 218.436 90.8433C218.26 90.7554 218.068 90.6307 217.864 90.4989C217.442 90.2258 216.962 89.916 216.409 89.7929C216.111 89.7265 215.724 89.5138 215.636 89.3945C215.585 89.2401 215.402 88.8623 214.845 88.7964C214.676 88.7759 214.502 88.7878 214.362 88.7975C214.244 88.6787 214.087 88.506 214.036 88.4385C213.79 88.0628 213.473 87.7686 213.194 87.5084C213.163 87.4798 213.133 87.4518 213.103 87.4237C213.351 86.9276 213.609 86.4224 213.876 85.9122C214.721 86.051 215.827 86.7754 216.657 87.319ZM212.863 89.2099C212.868 89.218 213.481 90.0466 213.915 90.1707C214.097 90.2226 214.28 90.2102 214.458 90.1977C214.466 90.1972 214.474 90.1967 214.482 90.1961C214.978 90.9049 216.093 91.1602 216.105 91.1629C216.227 91.1899 216.356 91.2423 216.488 91.3092C214.862 91.0064 213.231 90.744 211.593 90.5222C211.862 89.9537 212.149 89.3556 212.451 88.737C212.612 88.8925 212.758 89.0469 212.863 89.2099Z" fill="white"/>
<path d="M242.779 111.539C242.765 109.736 242.524 107.092 240.767 102.605C239.818 100.178 238.042 98.2887 235.34 96.8296C233.036 95.5853 230.439 94.8366 227.929 94.1127C227.55 94.0037 227.175 93.8957 226.806 93.7872C224.942 93.2393 223.081 92.746 221.216 92.3066C221.225 92.252 221.231 92.2008 221.236 92.1533C221.278 91.7063 221.224 91.2064 221.184 90.8415C221.172 90.7303 221.161 90.6251 221.155 90.5463C221.104 89.8629 221.047 89.1973 220.982 88.5484V88.5468C220.976 88.4858 220.97 88.4264 220.964 88.366V88.3649C220.597 84.7763 220.011 81.701 219.184 79.0139C219.025 78.4978 218.666 78.3283 218.466 78.2727C217.746 78.0746 217.022 78.7294 216.543 79.1629C216.483 79.2163 216.422 79.2719 216.395 79.2935C215.608 79.924 215.033 80.928 214.57 81.7345C214.525 81.8139 214.48 81.8916 214.437 81.9666C213.441 83.6886 212.522 85.4392 211.702 87.0813C211.649 87.1881 211.596 87.2939 211.543 87.3997C211.543 87.4003 211.543 87.4008 211.542 87.4014C211.028 88.4389 210.554 89.4289 210.127 90.3347C206.183 89.858 202.191 89.6124 198.116 89.5913C188.609 89.5422 177.637 89.7814 167.726 93.2636C166.964 93.5319 166.191 93.7948 165.445 94.0485C162.212 95.1492 159.159 96.1883 156.137 97.8255C155.254 98.3032 154.517 98.9888 153.805 99.6522C153.349 100.076 152.918 100.477 152.465 100.813C152.304 100.932 152.164 101.069 152.029 101.2C151.879 101.347 151.652 101.569 151.552 101.57H151.551C151.539 101.57 151.527 101.57 151.515 101.571C151.504 101.571 151.492 101.572 151.481 101.573C151.472 101.574 151.464 101.575 151.456 101.576C151.446 101.578 151.436 101.579 151.426 101.581H151.425C151.416 101.583 151.407 101.584 151.398 101.586C150.076 101.836 149.074 102.736 148.188 103.53C147.728 103.943 147.293 104.333 146.848 104.611C145.864 105.226 144.834 105.804 143.837 106.364C142.825 106.933 141.778 107.521 140.761 108.157C140.219 108.495 139.63 108.751 139.007 109.022C138.497 109.243 137.97 109.472 137.465 109.753C137.248 109.873 137.04 110.005 136.84 110.133C136.518 110.338 136.222 110.526 135.926 110.65C134.58 109.538 132.793 108.707 130.902 108.329C128.584 107.866 126.355 108.113 124.626 109.026C124.48 109.103 124.322 109.183 124.156 109.268C123.45 109.627 122.649 110.035 122.073 110.534C121.48 111.047 121.065 111.579 120.664 112.092C120.443 112.375 120.215 112.667 119.959 112.952C118.662 114.399 117.859 117.119 117.859 118.81C117.859 122.213 119.891 124.15 122.043 126.201C122.145 126.299 122.249 126.397 122.352 126.496C123.507 127.6 124.636 128.239 126.128 128.631C128.153 129.164 129.855 129.523 131.78 128.904C133.066 128.491 133.589 127.729 134.143 126.923C134.239 126.782 134.34 126.635 134.447 126.486C134.479 126.442 134.577 126.306 135.121 126.514C135.645 126.715 136.247 127.121 136.73 127.446C137.023 127.644 137.276 127.815 137.484 127.922C139.202 128.805 141.026 129.448 142.79 130.071C143.122 130.188 143.455 130.305 143.787 130.424C145.162 130.917 146.547 131.475 147.887 132.015C149.366 132.61 150.895 133.227 152.432 133.764C157.31 135.469 163.088 135.871 168.122 136.115C173.215 136.362 178.405 136.359 183.424 136.357H184.913C186.039 136.357 187.193 136.374 188.309 136.391C189.44 136.409 190.587 136.426 191.739 136.426C193.166 136.426 194.6 136.399 196.018 136.311C198.574 136.153 201.138 135.842 203.619 135.541C205.408 135.324 207.259 135.099 209.085 134.935C210.835 134.778 212.902 134.56 214.967 134.138C215.38 134.054 215.779 133.907 216.166 133.764C216.622 133.596 217.054 133.437 217.431 133.409C218.01 133.366 218.405 133.003 218.694 132.739C218.809 132.634 218.918 132.534 219.007 132.48C220.371 131.656 221.985 131.04 223.1 130.669C224.354 130.251 225.566 130.072 227.154 130.072C227.297 130.072 227.51 130.089 227.735 130.105C228.577 130.168 229.515 130.239 230.135 129.874C231.91 129.839 233.998 129.413 235.643 128.744C236.043 128.582 236.448 128.436 236.876 128.28C238.048 127.856 239.26 127.417 240.329 126.645C242.78 124.875 242.78 121.028 242.78 118.483C242.78 117.713 242.781 116.943 242.783 116.172C242.787 114.654 242.792 113.084 242.779 111.539ZM215.652 82.6694C215.697 82.5922 215.742 82.5129 215.788 82.4325C216.212 81.6919 216.693 80.853 217.271 80.3899C217.332 80.3413 217.399 80.2808 217.484 80.2042C217.572 80.1237 217.774 79.9418 217.956 79.8042C218.607 82.0098 219.096 84.4902 219.435 87.3177C219.016 87.1039 218.602 86.8815 218.176 86.6257C217.952 86.4913 217.696 86.3234 217.424 86.1452C216.568 85.5849 215.555 84.921 214.555 84.6322C214.909 83.9785 215.275 83.3215 215.652 82.6694ZM213.874 85.9126C214.719 86.0513 215.825 86.7757 216.655 87.3193C216.939 87.505 217.206 87.6804 217.454 87.8289C218.187 88.2688 218.865 88.6057 219.583 88.9619C219.593 88.9673 219.604 88.9722 219.614 88.9776C219.666 89.5228 219.713 90.0804 219.755 90.6504C219.763 90.7525 219.776 90.8691 219.789 90.9927C219.813 91.2059 219.864 91.6798 219.844 91.9935C219.483 91.913 219.122 91.8353 218.76 91.7597C218.914 91.4186 218.773 91.0126 218.435 90.8437C218.259 90.7557 218.066 90.631 217.862 90.4993C217.44 90.2262 216.96 89.9163 216.408 89.7932C216.11 89.7268 215.723 89.5142 215.634 89.3949C215.583 89.2405 215.4 88.8626 214.843 88.7968C214.674 88.7762 214.5 88.7881 214.361 88.7978C214.242 88.6791 214.085 88.5063 214.034 88.4389C213.788 88.0632 213.472 87.769 213.192 87.5088C213.161 87.4802 213.131 87.4521 213.101 87.424C213.35 86.928 213.608 86.4227 213.874 85.9126ZM212.449 88.7374C212.611 88.8928 212.756 89.0472 212.862 89.2102C212.866 89.2183 213.479 90.0469 213.913 90.1711C214.095 90.2229 214.279 90.2105 214.456 90.1981C214.464 90.1975 214.472 90.197 214.48 90.1965C214.977 90.9052 216.091 91.1606 216.103 91.1633C216.225 91.1902 216.354 91.2426 216.486 91.3095C214.86 91.0067 213.229 90.7444 211.591 90.5225C211.86 89.9541 212.147 89.356 212.449 88.7374ZM241.443 107.016C241.371 107.32 241.158 107.491 240.889 107.596C241.174 108.848 241.365 110.179 241.376 111.55C241.388 113.088 241.384 114.654 241.38 116.169C241.378 116.94 241.376 117.711 241.376 118.483C241.376 120.743 241.376 124.158 239.507 125.507C238.597 126.164 237.529 126.551 236.398 126.961C235.976 127.114 235.54 127.271 235.115 127.444C233.577 128.069 231.531 128.472 229.903 128.472C229.891 128.472 229.879 128.473 229.867 128.473C229.846 128.474 229.825 128.476 229.804 128.479C229.794 128.481 229.783 128.483 229.773 128.485C229.764 128.486 229.756 128.488 229.748 128.49C229.747 128.49 229.747 128.49 229.746 128.49C229.733 128.493 229.721 128.496 229.708 128.5C229.699 128.503 229.689 128.506 229.68 128.508C229.668 128.512 229.657 128.517 229.646 128.521C229.638 128.524 229.63 128.528 229.621 128.531C229.578 128.551 229.536 128.574 229.498 128.601C229.49 128.607 229.483 128.612 229.475 128.619C229.474 128.62 229.472 128.62 229.471 128.621C229.465 128.626 229.459 128.63 229.453 128.636C229.446 128.642 229.44 128.648 229.432 128.654C229.428 128.658 229.423 128.663 229.418 128.667C229.183 128.806 228.243 128.736 227.841 128.706C227.588 128.687 227.35 128.669 227.154 128.669C225.633 128.669 224.418 128.821 223.202 129.169H223.202C222.548 129.592 221.765 129.849 221.302 129.875C221.255 129.877 221.208 129.88 221.161 129.882C220.234 130.25 219.21 130.718 218.281 131.279C218.073 131.405 217.9 131.564 217.747 131.704C217.602 131.836 217.42 132.002 217.327 132.009C216.754 132.052 216.208 132.253 215.68 132.447C215.327 132.578 214.994 132.7 214.686 132.763C212.689 133.171 210.671 133.383 208.959 133.537C207.112 133.704 205.25 133.929 203.449 134.148C200.989 134.446 198.445 134.755 195.931 134.911C193.422 135.066 190.834 135.027 188.33 134.988C187.623 134.977 186.9 134.966 186.178 134.96C185.989 135.107 185.799 135.22 185.608 135.29C185.496 135.329 185.357 135.416 185.21 135.507C184.882 135.71 184.474 135.963 183.952 135.963C183.098 135.963 182.405 135.62 182.001 134.998C181.991 134.983 181.982 134.969 181.973 134.954C177.426 134.954 172.761 134.934 168.189 134.714C163.255 134.474 157.596 134.082 152.895 132.439C151.39 131.913 149.876 131.303 148.412 130.713C147.06 130.168 145.661 129.604 144.26 129.103C143.925 128.983 143.591 128.865 143.257 128.747C141.459 128.112 139.759 127.513 138.126 126.674C137.992 126.605 137.76 126.449 137.515 126.283C136.972 125.917 136.296 125.461 135.623 125.204C134.27 124.687 133.592 125.271 133.309 125.666C133.191 125.828 133.087 125.981 132.986 126.128C132.483 126.86 132.18 127.301 131.35 127.568C129.785 128.071 128.346 127.764 126.485 127.274C125.222 126.941 124.306 126.422 123.322 125.482C123.219 125.382 123.114 125.283 123.011 125.184C120.917 123.189 119.263 121.612 119.263 118.81C119.263 117.372 119.962 115.051 121.003 113.89C121.291 113.568 121.534 113.257 121.77 112.956C122.146 112.474 122.502 112.019 122.991 111.595C123.438 111.208 124.158 110.842 124.793 110.518C124.964 110.432 125.126 110.349 125.281 110.267C126.726 109.504 128.625 109.305 130.627 109.705C132.082 109.996 133.46 110.584 134.563 111.37C134.555 111.413 134.551 111.457 134.551 111.501C134.551 111.888 134.865 112.203 135.252 112.203C135.349 112.203 135.444 112.198 135.536 112.188C135.538 112.19 135.54 112.192 135.542 112.193C135.816 112.468 136.26 112.468 136.534 112.193C136.639 112.089 136.703 111.959 136.728 111.824C137.037 111.67 137.323 111.488 137.593 111.317C137.785 111.195 137.966 111.079 138.146 110.979C138.591 110.732 139.065 110.527 139.566 110.309C140.209 110.029 140.874 109.741 141.504 109.347C142.493 108.728 143.526 108.149 144.525 107.588C145.535 107.021 146.58 106.434 147.592 105.801C148.14 105.459 148.641 105.009 149.125 104.575C149.938 103.845 150.706 103.156 151.631 102.971C152.259 102.937 152.692 102.516 153.01 102.204C153.116 102.101 153.216 102.003 153.3 101.941C153.817 101.558 154.297 101.111 154.761 100.679C155.439 100.048 156.08 99.4525 156.806 99.0595C159.724 97.4784 162.722 96.4582 165.897 95.3775C166.647 95.1222 167.423 94.8582 168.192 94.5878C177.891 91.18 188.72 90.9463 198.109 90.9948C202.118 91.0159 206.043 91.2566 209.923 91.7241C209.987 91.8008 210.068 91.865 210.165 91.9103C210.404 92.0221 210.673 91.9875 210.873 91.8434C213.705 92.2116 216.514 92.7012 219.315 93.3144C219.422 93.3376 219.528 93.3608 219.635 93.3845C219.843 93.431 220.052 93.4779 220.26 93.5254C220.309 93.5368 220.358 93.5481 220.408 93.56C222.41 94.0204 224.41 94.5451 226.41 95.1335C226.782 95.2425 227.159 95.3516 227.54 95.4617C229.979 96.1651 232.502 96.8922 234.673 98.0646C236.103 98.8371 237.238 99.737 238.095 100.784H238.544C238.931 100.784 239.246 101.098 239.246 101.486C239.246 101.719 239.133 101.924 238.958 102.052C239.149 102.393 239.316 102.748 239.46 103.117C239.81 104.01 240.181 105.021 240.502 106.116C240.667 106.066 240.85 106.077 241.017 106.16C241.405 106.354 241.51 106.73 241.443 107.016Z" fill="#3DADFF"/>
<path d="M220.985 88.5466C220.979 88.4851 220.973 88.4252 220.967 88.3643C220.981 88.4236 220.987 88.4845 220.985 88.5466Z" fill="#3DADFF"/>
<path d="M211.543 87.3977C211.596 87.2922 211.648 87.1867 211.702 87.0801C211.62 87.1727 211.567 87.2825 211.543 87.3977Z" fill="#3DADFF"/>
<path d="M191.526 128.386C191.526 129.423 190.853 129.979 190.312 130.426C190.208 130.512 190.109 130.593 190.014 130.678C189.317 131.297 188.579 132.202 187.928 133.001L187.735 133.238C187.678 133.307 187.612 133.39 187.54 133.481C187.083 134.059 186.631 134.604 186.177 134.957C185.987 135.104 185.798 135.218 185.607 135.287C185.495 135.327 185.356 135.413 185.209 135.505C184.881 135.708 184.473 135.961 183.951 135.961C183.097 135.961 182.404 135.618 182 134.996C181.99 134.981 181.981 134.966 181.972 134.951C181.533 134.239 181.519 133.261 181.936 132.323C182.483 131.091 183.206 129.879 183.905 128.708C184.451 127.794 185.016 126.849 185.484 125.912C185.657 125.566 186.079 125.425 186.425 125.599C186.772 125.772 186.912 126.194 186.739 126.54C186.248 127.523 185.669 128.491 185.111 129.427C184.401 130.616 183.732 131.737 183.218 132.893C182.993 133.399 182.977 133.924 183.177 134.231C183.317 134.448 183.578 134.557 183.951 134.557C184.073 134.557 184.275 134.433 184.469 134.312C184.662 134.192 184.88 134.057 185.131 133.966C185.459 133.848 186.171 132.949 186.44 132.61C186.517 132.512 186.588 132.423 186.649 132.349L186.84 132.114C187.491 131.316 188.301 130.322 189.082 129.629C189.196 129.527 189.308 129.435 189.417 129.344C189.929 128.922 190.122 128.73 190.122 128.386C190.122 127.999 190.436 127.684 190.824 127.684C191.212 127.684 191.526 127.999 191.526 128.386Z" fill="#3DADFF"/>
</g>
<g filter="url(#filter0_d_127_173)">
<rect width="71" height="34.5655" transform="translate(196 165.299) rotate(-1.85558)" fill="#CA1A2F"/>
<path d="M227.888 183.536L227.352 166.974L228.96 166.922L229.198 174.276L232.224 166.816L234.397 166.745L231.595 173.294L235.093 183.302L233.006 183.37L230.554 175.669L229.335 178.479L229.497 183.484L227.888 183.536Z" fill="white"/>
<path d="M220.513 183.775L219.977 167.213L221.545 167.162L225.174 178.116L224.816 167.056L226.318 167.007L226.854 183.57L225.232 183.622L221.665 172.926L222.015 183.727L220.513 183.775Z" fill="white"/>
<path d="M220.322 183.781L218.568 183.838L217.748 180.098L214.557 180.202L214.021 183.985L212.306 184.041L214.88 167.378L216.589 167.322L220.322 183.781ZM217.139 177.325L215.843 171.214L214.959 177.395L217.139 177.325Z" fill="white"/>
<path d="M205.748 184.253L205.211 167.69L206.82 167.638L207.031 174.157L210.195 174.055L209.983 167.536L211.599 167.483L212.135 184.046L210.52 184.098L210.285 176.856L207.121 176.959L207.356 184.201L205.748 184.253Z" fill="white"/>
<path d="M201.404 184.394L200.958 170.633L198.585 170.71L198.494 167.908L204.842 167.703L204.933 170.504L202.566 170.581L203.012 184.342L201.404 184.394Z" fill="white"/>
<path d="M239.254 168.22L237.397 168.388L236.619 168.413L236.605 167.975L237.383 167.95L239.246 167.99L239.254 168.22ZM240.128 168.283L239.637 168.299L239.624 167.894L240.115 167.878L240.128 168.283Z" fill="white"/>
<path d="M240.238 171.669L236.729 171.782L236.716 171.402L238.457 171.345L236.67 169.972L236.653 169.455L238.114 170.618L240.161 169.289L240.177 169.792L238.434 170.874L239.009 171.327L240.226 171.288L240.238 171.669Z" fill="white"/>
<path d="M240.324 174.322L236.814 174.436L236.802 174.045L239.508 172.443L236.753 172.532L236.741 172.169L240.25 172.055L240.263 172.445L237.554 174.045L240.312 173.956L240.324 174.322Z" fill="white"/>
<path d="M240.412 177.062L236.867 176.07L236.853 175.66L240.324 174.369L240.339 174.805L239.287 175.174L239.326 176.376L240.399 176.658L240.412 177.062ZM238.944 176.278L238.912 175.304L237.95 175.635C237.655 175.737 237.414 175.812 237.229 175.862C237.455 175.891 237.68 175.936 237.904 175.995L238.944 176.278Z" fill="white"/>
<path d="M240.488 179.405L236.979 179.519L236.966 179.138L238.407 179.091L238.359 177.595L236.918 177.642L236.905 177.261L240.415 177.147L240.427 177.528L238.773 177.582L238.821 179.078L240.476 179.024L240.488 179.405Z" fill="white"/>
<path d="M240.535 180.876L237.44 180.976L237.471 181.924L237.057 181.938L236.983 179.656L237.397 179.643L237.428 180.595L240.523 180.495L240.535 180.876Z" fill="white"/>
<path d="M257.664 165.991L259.273 165.939L259.563 174.909C259.608 176.303 259.658 177.21 259.711 177.63C259.806 178.358 259.993 178.918 260.271 179.308C260.555 179.699 260.916 179.887 261.354 179.873C261.726 179.861 262.026 179.712 262.251 179.425C262.477 179.131 262.624 178.735 262.692 178.235C262.764 177.727 262.774 176.649 262.72 174.999L262.423 165.837L264.038 165.785L264.32 174.484C264.392 176.706 264.374 178.316 264.264 179.315C264.159 180.306 263.87 181.118 263.398 181.752C262.93 182.378 262.295 182.704 261.493 182.73C260.66 182.757 260.001 182.525 259.515 182.036C259.033 181.539 258.671 180.834 258.428 179.922C258.19 179.003 258.031 177.304 257.95 174.826L257.664 165.991Z" fill="white"/>
<path d="M249.617 174.644C249.553 172.67 249.671 171.042 249.971 169.758C250.275 168.466 250.694 167.499 251.227 166.856C251.761 166.213 252.422 165.879 253.211 165.853C254.354 165.816 255.309 166.528 256.075 167.988C256.845 169.449 257.275 171.549 257.364 174.291C257.454 177.063 257.143 179.24 256.431 180.824C255.806 182.224 254.92 182.943 253.773 182.98C252.616 183.017 251.681 182.365 250.968 181.024C250.155 179.489 249.705 177.363 249.617 174.644ZM251.275 174.477C251.336 176.383 251.596 177.807 252.052 178.749C252.508 179.685 253.051 180.142 253.68 180.122C254.314 180.101 254.824 179.613 255.21 178.658C255.595 177.696 255.757 176.236 255.693 174.277C255.631 172.357 255.381 170.944 254.944 170.038C254.511 169.132 253.966 168.69 253.31 168.711C252.655 168.732 252.136 169.213 251.753 170.153C251.371 171.092 251.212 172.534 251.275 174.477Z" fill="white"/>
<path d="M245.537 182.964L245.312 175.993L242.076 166.496L243.964 166.435L246.057 172.927L247.693 166.314L249.547 166.254L246.921 175.963L247.146 182.912L245.537 182.964Z" fill="white"/>
<path d="M232.185 195.148L232.033 190.458L232.857 190.431L233.009 195.121L232.185 195.148ZM233.833 195.094L233.681 190.405L234.505 190.378L234.657 195.068L233.833 195.094ZM235.069 195.054L234.917 190.365L235.741 190.338L235.893 195.028L235.069 195.054Z" fill="white"/>
<path d="M228.337 195.273L228.186 190.583L229.01 190.556L229.161 195.246L228.337 195.273ZM229.573 195.233L229.422 190.543L230.658 190.503L230.809 195.193L229.573 195.233ZM231.221 195.179L231.07 190.49L232.306 190.45L232.457 195.139L231.221 195.179Z" fill="white"/>
<path d="M224.492 195.398L224.34 190.708L224.752 190.695L224.904 195.384L224.492 195.398ZM226.14 195.344L225.988 190.655L227.224 190.615L227.376 195.304L226.14 195.344ZM227.788 195.291L227.636 190.601L228.46 190.575L228.612 195.264L227.788 195.291Z" fill="white"/>
<path d="M220.646 195.522L220.494 190.832L221.73 190.792L221.882 195.482L220.646 195.522ZM222.294 195.468L222.142 190.779L222.966 190.752L223.118 195.442L222.294 195.468ZM223.53 195.428L223.378 190.739L223.79 190.725L223.942 195.415L223.53 195.428Z" fill="white"/>
<path d="M216.798 195.647L216.646 190.957L217.058 190.944L217.21 195.633L216.798 195.647ZM217.622 195.62L217.47 190.93L218.294 190.904L218.446 195.593L217.622 195.62ZM219.682 195.553L219.53 190.864L220.766 190.824L220.918 195.513L219.682 195.553Z" fill="white"/>
<path d="M212.953 195.771L212.801 191.081L213.213 191.068L213.365 195.757L212.953 195.771ZM213.777 195.744L213.625 191.054L214.861 191.014L215.013 195.704L213.777 195.744ZM216.249 195.664L216.097 190.974L216.921 190.948L217.073 195.637L216.249 195.664Z" fill="white"/>
<path d="M209.107 195.896L208.955 191.206L209.367 191.193L209.519 195.882L209.107 195.896ZM209.931 195.869L209.779 191.179L210.191 191.166L210.343 195.856L209.931 195.869ZM211.579 195.816L211.427 191.126L212.251 191.099L212.403 195.789L211.579 195.816Z" fill="white"/>
<path d="M205.259 196.021L205.107 191.331L205.931 191.304L206.083 195.994L205.259 196.021ZM207.319 195.954L207.167 191.264L207.579 191.251L207.731 195.941L207.319 195.954ZM208.143 195.927L207.991 191.238L208.403 191.224L208.555 195.914L208.143 195.927Z" fill="white"/>
<path d="M201.414 196.145L201.262 191.455L202.086 191.428L202.238 196.118L201.414 196.145ZM202.65 196.105L202.498 191.415L203.734 191.375L203.886 196.065L202.65 196.105ZM205.122 196.025L204.97 191.335L205.382 191.322L205.534 196.011L205.122 196.025Z" fill="white"/>
<path d="M239.938 195.05L239.822 191.474L238.726 191.51L238.711 191.031L241.347 190.946L241.362 191.424L240.261 191.46L240.377 195.036L239.938 195.05ZM241.637 194.995L241.506 190.941L241.946 190.926L242 192.591L243.728 192.535L243.674 190.87L244.114 190.856L244.246 194.911L243.806 194.925L243.744 193.014L242.015 193.07L242.077 194.981L241.637 194.995ZM244.344 194.908L245.491 190.811L245.963 190.796L247.456 194.807L246.952 194.823L246.525 193.608L245.137 193.653L244.812 194.892L244.344 194.908ZM245.25 193.211L246.376 193.175L245.993 192.063C245.875 191.722 245.788 191.444 245.731 191.23C245.697 191.491 245.646 191.751 245.576 192.01L245.25 193.211ZM247.51 194.805L247.379 190.75L247.829 190.736L249.68 193.863L249.577 190.679L249.998 190.665L250.129 194.72L249.678 194.735L247.83 191.605L247.933 194.791L247.51 194.805ZM250.576 194.706L250.445 190.651L250.884 190.637L250.95 192.647L252.536 190.583L253.133 190.564L251.79 192.252L253.325 194.617L252.745 194.635L251.494 192.621L250.97 193.286L251.016 194.691L250.576 194.706ZM254.342 194.584L254.286 192.866L252.93 190.57L253.467 190.553L254.159 191.754C254.296 191.992 254.417 192.217 254.521 192.429C254.612 192.214 254.725 191.971 254.861 191.701L255.466 190.488L255.978 190.472L254.726 192.852L254.782 194.569L254.342 194.584ZM256.033 192.552C256.011 191.86 256.146 191.325 256.438 190.944C256.73 190.562 257.103 190.363 257.557 190.349C257.85 190.339 258.12 190.413 258.367 190.571C258.614 190.73 258.812 190.965 258.963 191.278C259.115 191.588 259.198 191.962 259.212 192.399C259.232 193 259.111 193.494 258.851 193.881C258.564 194.308 258.177 194.529 257.69 194.544C257.199 194.56 256.798 194.359 256.485 193.941C256.202 193.563 256.051 193.1 256.033 192.552ZM256.487 192.546C256.503 193.045 256.626 193.43 256.854 193.699C257.084 193.967 257.357 194.096 257.672 194.085C257.995 194.075 258.261 193.927 258.469 193.641C258.679 193.356 258.776 192.943 258.758 192.403C258.747 192.054 258.681 191.744 258.559 191.473C258.466 191.266 258.33 191.102 258.15 190.983C257.973 190.861 257.781 190.804 257.574 190.81C257.243 190.821 256.973 190.968 256.766 191.252C256.561 191.535 256.468 191.967 256.487 192.546ZM261.596 190.29L262.039 190.275L262.114 192.618C262.127 193.011 262.099 193.335 262.03 193.59C261.962 193.843 261.829 194.046 261.631 194.198C261.435 194.35 261.181 194.431 260.869 194.441C260.431 194.456 260.097 194.335 259.869 194.081C259.643 193.826 259.52 193.367 259.498 192.703L259.422 190.36L259.862 190.346L259.938 192.686C259.95 193.053 259.987 193.317 260.049 193.48C260.112 193.642 260.209 193.764 260.341 193.847C260.474 193.927 260.634 193.964 260.821 193.958C261.134 193.948 261.358 193.852 261.492 193.671C261.629 193.489 261.688 193.142 261.672 192.63L261.596 190.29ZM262.767 193.303L262.573 191.158L262.544 190.259L263.05 190.243L263.079 191.141L263.032 193.294L262.767 193.303ZM262.694 194.313L262.676 193.746L263.143 193.731L263.162 194.298L262.694 194.313Z" fill="white"/>
</g>
<g filter="url(#filter1_d_127_173)">
<rect width="42.531" height="17.1482" transform="translate(114.82 179) rotate(2.74177)" fill="white"/>
<path d="M121.311 183.954C122.124 183.993 122.745 184.313 123.176 184.915C123.689 185.628 123.907 186.781 123.831 188.372C123.755 189.96 123.425 191.088 122.842 191.756C122.361 192.307 121.714 192.563 120.901 192.524C120.084 192.485 119.441 192.14 118.971 191.49C118.501 190.837 118.304 189.705 118.382 188.094C118.457 186.514 118.786 185.39 119.369 184.722C119.851 184.171 120.498 183.915 121.311 183.954ZM121.247 185.288C121.053 185.278 120.876 185.333 120.717 185.452C120.559 185.567 120.43 185.782 120.33 186.099C120.2 186.51 120.111 187.207 120.064 188.192C120.017 189.176 120.034 189.856 120.115 190.231C120.197 190.602 120.309 190.853 120.452 190.982C120.599 191.111 120.77 191.181 120.965 191.19C121.159 191.199 121.336 191.146 121.494 191.032C121.653 190.913 121.782 190.695 121.881 190.379C122.012 189.972 122.1 189.276 122.148 188.292C122.195 187.307 122.177 186.629 122.096 186.258C122.014 185.883 121.9 185.631 121.753 185.501C121.611 185.368 121.442 185.297 121.247 185.288ZM124.453 185.751L124.525 184.257L130.026 184.52L129.97 185.688C129.495 186.113 129.002 186.732 128.493 187.545C127.983 188.359 127.582 189.231 127.289 190.162C126.999 191.089 126.839 191.923 126.807 192.663L125.256 192.589C125.338 191.43 125.633 190.258 126.141 189.074C126.653 187.89 127.31 186.84 128.111 185.926L124.453 185.751ZM135.572 191.585L135.501 193.08L129.862 192.809C129.95 192.248 130.159 191.722 130.488 191.233C130.818 190.74 131.453 190.097 132.394 189.304C133.151 188.664 133.618 188.227 133.793 187.994C134.031 187.673 134.157 187.35 134.173 187.026C134.19 186.667 134.106 186.387 133.92 186.187C133.739 185.984 133.478 185.874 133.138 185.857C132.803 185.841 132.531 185.93 132.322 186.122C132.114 186.315 131.984 186.645 131.931 187.113L130.335 186.876C130.473 185.995 130.803 185.374 131.326 185.013C131.848 184.652 132.487 184.489 133.242 184.525C134.071 184.565 134.711 184.819 135.162 185.289C135.614 185.758 135.824 186.324 135.792 186.988C135.774 187.366 135.688 187.724 135.535 188.061C135.385 188.394 135.154 188.74 134.842 189.1C134.636 189.339 134.267 189.679 133.738 190.12C133.208 190.562 132.87 190.855 132.726 191.001C132.585 191.148 132.469 191.291 132.378 191.432L135.572 191.585ZM141.512 191.87L141.441 193.364L135.802 193.094C135.89 192.532 136.099 192.006 136.428 191.517C136.758 191.024 137.393 190.382 138.334 189.589C139.091 188.948 139.558 188.511 139.733 188.279C139.971 187.957 140.097 187.635 140.113 187.31C140.13 186.951 140.046 186.672 139.86 186.472C139.679 186.268 139.418 186.158 139.078 186.142C138.742 186.126 138.47 186.214 138.262 186.407C138.054 186.6 137.924 186.93 137.871 187.398L136.275 187.161C136.413 186.28 136.743 185.659 137.265 185.298C137.788 184.936 138.427 184.774 139.182 184.81C140.01 184.849 140.65 185.104 141.102 185.573C141.554 186.042 141.764 186.609 141.732 187.273C141.714 187.651 141.628 188.008 141.474 188.345C141.325 188.678 141.094 189.025 140.782 189.385C140.576 189.624 140.207 189.964 139.677 190.405C139.148 190.846 138.81 191.14 138.666 191.286C138.525 191.432 138.409 191.576 138.318 191.717L141.512 191.87ZM147.452 192.154L147.381 193.648L141.742 193.378C141.83 192.816 142.039 192.291 142.368 191.802C142.698 191.309 143.333 190.666 144.274 189.873C145.031 189.233 145.498 188.796 145.673 188.563C145.911 188.242 146.037 187.919 146.052 187.595C146.07 187.236 145.985 186.956 145.8 186.756C145.618 186.552 145.358 186.442 145.018 186.426C144.682 186.41 144.41 186.498 144.202 186.691C143.994 186.884 143.864 187.214 143.81 187.682L142.215 187.445C142.353 186.564 142.683 185.943 143.205 185.582C143.728 185.221 144.367 185.058 145.122 185.094C145.95 185.134 146.59 185.388 147.042 185.858C147.494 186.327 147.704 186.893 147.672 187.557C147.654 187.935 147.568 188.293 147.414 188.629C147.265 188.963 147.034 189.309 146.722 189.669C146.515 189.908 146.147 190.248 145.617 190.689C145.087 191.131 144.75 191.424 144.605 191.57C144.465 191.717 144.349 191.86 144.258 192.001L147.452 192.154ZM148.014 191.516L149.625 191.426C149.653 191.791 149.775 192.086 149.99 192.31C150.205 192.531 150.46 192.648 150.753 192.662C151.089 192.678 151.38 192.557 151.626 192.297C151.872 192.033 152.008 191.627 152.034 191.077C152.059 190.562 151.961 190.171 151.74 189.904C151.524 189.633 151.231 189.489 150.86 189.472C150.399 189.449 149.975 189.634 149.589 190.025L148.293 189.773L149.326 185.445L153.58 185.648L153.507 187.154L150.473 187.009L150.153 188.422C150.521 188.26 150.891 188.188 151.265 188.206C151.979 188.24 152.571 188.528 153.043 189.071C153.514 189.614 153.73 190.299 153.69 191.128C153.657 191.818 153.427 192.425 153 192.948C152.419 193.662 151.644 193.996 150.675 193.95C149.9 193.913 149.278 193.674 148.81 193.235C148.341 192.795 148.076 192.222 148.014 191.516Z" fill="black"/>
</g>
<defs>
<filter id="filter0_d_127_173" x="196" y="163" width="73.082" height="38.8467" filterUnits="userSpaceOnUse" color-interpolation-filters="sRGB">
<feFlood flood-opacity="0" result="BackgroundImageFix"/>
<feColorMatrix in="SourceAlpha" type="matrix" values="0 0 0 0 0 0 0 0 0 0 0 0 0 0 0 0 0 0 127 0" result="hardAlpha"/>
<feOffset dx="1" dy="2"/>
<feComposite in2="hardAlpha" operator="out"/>
<feColorMatrix type="matrix" values="0 0 0 0 0 0 0 0 0 0 0 0 0 0 0 0 0 0 0.05 0"/>
<feBlend mode="normal" in2="BackgroundImageFix" result="effect1_dropShadow_127_173"/>
<feBlend mode="normal" in="SourceGraphic" in2="effect1_dropShadow_127_173" result="shape"/>
</filter>
<filter id="filter1_d_127_173" x="114" y="179" width="44.0041" height="19.8644" filterUnits="userSpaceOnUse" color-interpolation-filters="sRGB">
<feFlood flood-opacity="0" result="BackgroundImageFix"/>
<feColorMatrix in="SourceAlpha" type="matrix" values="0 0 0 0 0 0 0 0 0 0 0 0 0 0 0 0 0 0 127 0" result="hardAlpha"/>
<feOffset dx="0.701328" dy="0.701328"/>
<feComposite in2="hardAlpha" operator="out"/>
<feColorMatrix type="matrix" values="0 0 0 0 0 0 0 0 0 0 0 0 0 0 0 0 0 0 0.25 0"/>
<feBlend mode="normal" in2="BackgroundImageFix" result="effect1_dropShadow_127_173"/>
<feBlend mode="normal" in="SourceGraphic" in2="effect1_dropShadow_127_173" result="shape"/>
</filter>
<clipPath id="clip0_127_173">
<rect width="127.627" height="60.8888" fill="white" transform="translate(116.512 76.8848)"/>
</clipPath>
</defs>
</svg>
