<svg width="358" height="238" viewBox="0 0 358 238" fill="none" xmlns="http://www.w3.org/2000/svg">
<path d="M341.17 148.474C344.167 170.145 358 162.537 358 171.759C358 174.756 355.233 176.14 351.775 176.14C345.55 176.14 340.939 175.448 331.717 175.448C322.034 175.448 318.115 176.14 311.89 176.14C307.74 176.14 305.204 174.065 305.204 171.298C305.204 162.998 320.651 168.532 320.651 154.468C320.651 152.624 320.42 150.318 320.19 148.474L314.657 108.358C312.812 96.6 308.432 77.2338 290.449 77.2338C276.616 77.2338 261.63 88.3002 261.63 111.816V150.779C261.63 169.454 276.385 162.768 276.385 171.529C276.385 173.604 275.002 176.14 271.544 176.14C266.472 176.14 259.555 175.448 251.255 175.448C243.186 175.448 236.731 176.14 231.659 176.14C227.97 176.14 226.356 173.604 226.356 171.529C226.356 162.768 240.881 169.454 240.881 150.779V35.0432C240.881 20.7491 224.512 28.5878 224.512 19.5963C224.512 15.9075 228.431 13.1409 240.65 7.37719C252.408 1.844 254.714 1.15234 257.25 1.15234C260.477 1.15234 261.63 3.91895 261.63 7.14664V82.0753C269.008 70.0868 280.996 59.712 298.518 59.712C326.415 59.712 332.87 86.4558 335.406 105.361L341.17 148.474Z" fill="#3DADFF"/>
<path d="M146.224 178.677C142.535 178.677 140.691 174.757 139.077 171.299L132.16 156.544C128.011 148.014 125.936 144.786 125.936 141.789C125.936 138.561 127.78 136.947 130.547 136.947C132.852 136.947 135.388 139.022 137.694 141.328C152.449 156.083 168.587 166.227 185.648 166.227C200.864 166.227 210.317 157.697 210.317 147.091C210.317 134.181 197.637 131.414 176.657 126.572C154.293 121.039 129.163 113.892 129.163 91.0678C129.163 73.546 144.61 59.713 167.896 59.713C180.806 59.713 190.72 63.8629 194.409 63.8629C198.328 63.8629 198.328 59.252 202.709 59.252C206.628 59.252 208.703 62.7102 211.239 67.0906L218.847 79.5403C221.383 83.6902 223.919 88.5318 223.919 91.0678C223.919 93.8344 221.844 95.6788 219.539 95.6788C217.233 95.6788 214.697 93.3733 212.392 91.2984C200.634 80.4625 184.956 71.4711 169.971 71.4711C157.751 71.4711 150.143 77.6959 150.143 86.2263C150.143 97.9843 160.979 100.52 183.804 106.054C207.781 112.048 231.297 118.964 231.297 143.633C231.297 164.613 212.622 177.985 186.109 177.985C170.432 177.985 159.826 172.913 156.138 172.913C151.757 172.913 151.296 178.677 146.224 178.677Z" fill="#3DADFF"/>
<path d="M46.3405 0C61.0957 0 77.4647 7.14705 77.4647 17.0607C77.4647 22.5939 74.9287 27.666 71.2399 34.813C69.8566 37.5796 67.7817 39.8851 65.2456 39.8851C62.2485 39.8851 60.4041 37.8102 59.943 34.3519C57.6375 19.1356 53.257 11.9886 44.7267 11.9886C37.3491 11.9886 31.1242 17.7523 31.1242 27.666C31.1242 39.1935 37.5796 48.8766 39.8851 62.2485H67.09C69.8566 62.2485 71.2399 63.4012 71.2399 65.4762C71.2399 67.09 70.7788 69.3955 70.5482 70.7788C69.8566 73.3148 68.7038 74.4676 66.1678 74.4676H40.8073V150.78C40.8073 169.454 59.7124 162.077 59.7124 171.529C59.7124 173.604 58.0986 176.14 54.6403 176.14C48.646 176.14 40.5768 175.448 31.1242 175.448C22.5939 175.448 15.9079 176.14 10.8358 176.14C7.14704 176.14 5.5332 173.604 5.5332 171.529C5.5332 162.768 20.0578 169.454 20.0578 150.78V74.4676H4.84155C2.53605 74.4676 1.15275 73.3148 0.69165 70.7788C0.4611 69.3955 0 67.09 0 65.4762C0 63.4012 1.3833 62.2485 3.91935 62.2485H19.3662C17.5218 51.4126 12.6802 43.3434 12.6802 31.3548C12.6802 11.2969 27.666 0 46.3405 0ZM99.5975 35.7352C93.3727 35.7352 87.3784 31.5853 87.3784 23.9772C87.3784 15.2163 96.1393 5.53319 107.667 5.53319C114.583 5.53319 120.578 9.91364 120.578 17.2912C120.578 26.0521 111.125 35.7352 99.5975 35.7352ZM116.428 150.78C116.428 169.454 131.413 162.768 131.413 171.529C131.413 173.604 129.8 176.14 126.341 176.14C121.269 176.14 114.353 175.448 106.053 175.448C97.9837 175.448 91.5283 176.14 86.6867 176.14C82.7674 176.14 81.1535 173.604 81.1535 171.529C81.1535 162.768 95.6782 169.454 95.6782 150.78V94.2949C95.6782 80.0008 79.3091 87.8395 79.3091 78.848C79.3091 75.1592 83.459 72.6232 95.4476 66.8595C107.206 61.0957 109.742 60.4041 111.586 60.4041C115.275 60.4041 116.428 63.4012 116.428 68.4733V150.78Z" fill="#3DADFF"/>
<g clip-path="url(#clip0_116_9)">
<path d="M239.612 145.696C238.983 145.906 238.247 146.167 237.463 146.479C237.53 146.476 237.598 146.472 237.666 146.468C238.331 146.431 239.458 146.062 240.397 145.453C240.136 145.528 239.875 145.608 239.612 145.696ZM185.347 153.77H183.206C182.513 153.771 181.818 153.771 181.121 153.771C181.134 153.792 181.147 153.813 181.161 153.834C181.742 154.729 182.739 155.222 183.966 155.222C184.716 155.222 185.304 154.858 185.775 154.566C185.986 154.435 186.185 154.311 186.347 154.253C186.621 154.154 186.894 153.99 187.166 153.779C186.559 153.773 185.95 153.77 185.347 153.77Z" fill="#3DADFF"/>
<path d="M270.491 126.614V126.771C270.488 127.877 270.486 128.983 270.486 130.088C270.486 132.014 270.486 134.411 270.006 136.762C269.394 139.762 268.099 141.994 266.158 143.396C264.4 144.665 262.444 145.374 260.718 145.999L260.667 146.017C260.088 146.228 259.54 146.426 259.016 146.639C256.562 147.636 253.54 148.281 250.839 148.391C249.955 148.762 249.032 148.811 248.375 148.811C247.817 148.811 247.261 148.769 246.77 148.733L246.742 148.731C246.492 148.712 246.207 148.691 246.08 148.691C244.018 148.691 242.459 148.918 240.864 149.45C239.37 149.947 237.219 150.765 235.416 151.846C235.37 151.885 235.286 151.962 235.228 152.014C234.71 152.489 233.747 153.371 232.245 153.483C231.972 153.503 231.431 153.703 230.952 153.879C230.356 154.099 229.683 154.347 228.945 154.498C225.877 155.124 222.84 155.444 220.275 155.674C217.685 155.908 215.044 156.228 212.49 156.538L212.475 156.54C208.88 156.975 205.165 157.426 201.434 157.657C199.575 157.773 197.582 157.827 195.162 157.827C193.515 157.827 191.867 157.802 190.274 157.777H190.2C188.7 157.753 187.002 157.727 185.347 157.727H183.206C182.471 157.727 181.732 157.727 180.992 157.727C174.597 157.727 167.794 157.7 161.111 157.377C153.738 157.019 145.263 156.426 138.007 153.89C135.763 153.106 133.55 152.215 131.41 151.352L131.388 151.343C129.474 150.572 127.503 149.778 125.564 149.084C125.129 148.928 124.696 148.775 124.262 148.622L124.139 148.579C121.54 147.661 118.855 146.714 116.269 145.384C115.863 145.176 115.437 144.887 114.985 144.582C114.593 144.318 114.104 143.989 113.661 143.739C112.844 144.899 111.756 146.208 109.548 146.918C108.372 147.296 107.194 147.48 105.944 147.48C104.012 147.48 102.188 147.043 100.335 146.555C97.8834 145.91 95.9477 144.817 94.0587 143.011C93.9555 142.911 93.853 142.814 93.7514 142.717L93.6171 142.589C90.3637 139.489 87 136.283 87 130.559C87 127.707 88.3147 123.294 90.5142 120.841C90.8417 120.476 91.1475 120.084 91.4424 119.706L91.4525 119.693C92.0548 118.923 92.7378 118.05 93.7273 117.193C94.7324 116.322 95.9943 115.679 97.1073 115.113C97.3463 114.991 97.5652 114.879 97.7693 114.773C99.6894 113.758 102.006 113.221 104.462 113.221C105.644 113.221 106.859 113.344 108.073 113.586C110.62 114.095 113.06 115.121 115.076 116.518C115.114 116.493 115.151 116.469 115.188 116.445C115.466 116.268 115.815 116.046 116.188 115.839C117.002 115.387 117.837 115.024 118.574 114.705L118.58 114.702C119.441 114.327 120.185 114.004 120.839 113.595C122.327 112.666 123.84 111.815 125.304 110.993L125.368 110.957C126.772 110.168 128.223 109.353 129.59 108.498C130.09 108.186 130.653 107.681 131.25 107.145C132.609 105.926 134.292 104.416 136.642 103.92C136.669 103.893 136.733 103.831 136.733 103.831C136.946 103.624 137.211 103.366 137.542 103.123C138.104 102.705 138.685 102.165 139.3 101.593C140.36 100.607 141.562 99.4866 143.051 98.681C147.536 96.2518 151.997 94.7329 156.719 93.1248L156.731 93.1202C157.898 92.7236 158.948 92.3658 159.993 91.9987C166.218 89.8116 173.112 88.3394 181.067 87.4988C188.59 86.7033 196.033 86.6016 201.676 86.6016C202.508 86.6016 203.38 86.604 204.341 86.6086C209.774 86.6366 215.184 86.9462 220.442 87.5299C220.881 86.6094 221.291 85.7635 221.694 84.9454V84.94L221.943 84.4425L222.044 84.2392L222.045 84.2376L222.127 84.0731C223.507 81.3101 224.812 78.8708 226.116 76.6155C226.169 76.5223 226.221 76.4331 226.273 76.3423L226.309 76.2786C227.013 75.0508 227.977 73.3713 229.386 72.2374C229.413 72.2142 229.448 72.1823 229.485 72.149L229.524 72.1133C230.28 71.4303 231.549 70.2832 233.197 70.2832C233.504 70.2832 233.809 70.3236 234.103 70.4051C235.247 70.7233 236.111 71.5855 236.475 72.7706C237.706 76.7722 238.568 81.2923 239.11 86.5885L239.12 86.6862V86.6909C239.125 86.7413 239.147 86.9447 239.147 86.9447V86.954C239.237 87.8807 239.319 88.8299 239.39 89.7783C239.396 89.8543 239.41 89.9901 239.424 90.1213L239.426 90.1407C239.45 90.3634 239.48 90.6328 239.502 90.9292C241.705 91.4725 243.927 92.0732 246.126 92.7205C246.653 92.8749 247.189 93.0294 247.73 93.1846C251.439 94.2548 255.274 95.36 258.771 97.2483C263.077 99.5735 265.919 102.617 267.459 106.552C270.1 113.299 270.463 117.331 270.485 120.09C270.503 122.267 270.497 124.476 270.491 126.614Z" fill="white"/>
<path d="M263.466 105.653C263.466 105.988 263.304 106.284 263.053 106.467C262.697 105.827 262.284 105.22 261.812 104.645H262.457C263.015 104.645 263.466 105.096 263.466 105.653Z" fill="#3DADFF"/>
<path d="M266.622 113.601C266.519 114.038 266.212 114.283 265.826 114.435C265.661 113.705 265.472 112.995 265.27 112.307C265.507 112.235 265.771 112.25 266.011 112.37C266.568 112.649 266.719 113.189 266.622 113.601Z" fill="#3DADFF"/>
<path d="M231.078 106.233C230.296 105.755 229.257 105.492 228.151 105.492C227.961 105.492 227.775 105.492 227.594 105.493C226.304 105.498 225.258 105.501 224.249 105.268C224.064 105.059 223.793 104.927 223.493 104.927H223.196C223.07 104.874 222.942 104.816 222.814 104.751C222.417 104.552 221.951 104.641 221.653 104.937C213.127 105.03 205.681 105.776 198.939 107.208C195.111 108.022 191.509 109.357 188.025 110.65C186.379 111.261 184.676 111.893 182.971 112.461C181.636 112.906 180.763 113.817 180.513 115.027C180.333 115.888 180.476 116.867 180.926 117.856C181.315 118.715 181.922 119.539 182.634 120.176C184.588 121.93 188.818 122.191 191.166 122.191H191.532C195.228 122.191 198.728 122.179 202.374 121.45C204.102 121.105 205.901 120.798 207.641 120.502C212.9 119.607 218.339 118.681 223.306 116.474C223.547 116.366 223.851 116.239 224.201 116.092C225.553 115.525 227.595 114.668 229.298 113.586C231.579 112.136 232.689 110.65 232.689 109.041C232.689 107.865 232.117 106.867 231.078 106.233ZM228.215 111.884C226.657 112.873 224.71 113.69 223.421 114.231C223.059 114.383 222.747 114.513 222.487 114.629C217.75 116.734 212.439 117.638 207.302 118.512C205.548 118.811 203.735 119.12 201.978 119.472C198.466 120.173 195.012 120.174 191.346 120.173H191.166C188.5 120.173 185.214 119.78 183.98 118.674C182.94 117.742 182.299 116.35 182.489 115.437C182.526 115.254 182.642 114.698 183.61 114.375C185.346 113.797 187.065 113.159 188.727 112.542C192.3 111.216 195.675 109.964 199.359 109.182C206.266 107.714 213.947 106.982 222.818 106.947C224.404 107.522 225.905 107.516 227.601 107.511C227.78 107.51 227.963 107.509 228.151 107.509C228.409 107.509 230.671 107.553 230.671 109.041C230.671 109.88 229.822 110.862 228.215 111.884Z" fill="#3DADFF"/>
<path d="M263.464 105.654C263.464 105.988 263.301 106.284 263.051 106.467C262.884 106.59 262.677 106.663 262.455 106.663H258.219C257.781 106.663 257.304 106.632 256.801 106.6C255.674 106.527 254.396 106.446 253.64 106.736C252.333 107.239 250.954 107.273 249.619 107.306C248.781 107.326 247.991 107.345 247.263 107.477C244.551 107.971 241.591 108.074 239.585 108.074C239.445 108.074 239.311 108.046 239.19 107.994C238.829 107.841 238.576 107.482 238.576 107.065C238.576 106.508 239.028 106.056 239.585 106.056C240.046 106.056 240.56 106.051 241.109 106.035C242.85 105.988 244.953 105.847 246.902 105.492C247.785 105.331 248.692 105.31 249.569 105.288C250.786 105.259 251.935 105.231 252.916 104.853C254.084 104.404 255.595 104.5 256.93 104.586C257.401 104.616 257.845 104.645 258.219 104.645H262.455C263.012 104.645 263.464 105.096 263.464 105.654Z" fill="#3DADFF"/>
<path d="M266.013 112.372C265.773 112.252 265.509 112.236 265.271 112.309C265.084 112.365 264.912 112.476 264.782 112.632C264.291 112.731 263.462 112.83 263.177 112.83C262.507 112.83 261.867 112.904 261.25 112.975C260.643 113.046 260.07 113.112 259.475 113.112H252.511C251.251 113.112 250.008 112.978 248.691 112.836C247.383 112.694 246.031 112.548 244.669 112.548C244.429 112.548 244.184 112.559 243.946 112.569C243.259 112.6 242.548 112.631 242.113 112.391C241.405 112 240.597 111.571 239.947 111.426C239.211 111.263 238.174 110.584 238.057 110.269C238.056 110.267 238.056 110.264 238.055 110.262C237.934 109.524 238.049 108.94 238.401 108.524C238.594 108.295 238.863 108.116 239.192 107.992C239.543 107.859 239.963 107.789 240.434 107.789C240.991 107.789 241.442 107.338 241.442 106.78C241.442 106.484 241.314 106.218 241.111 106.033C240.932 105.87 240.694 105.771 240.434 105.771C238.921 105.771 237.653 106.286 236.861 107.22C236.528 107.615 236.177 108.205 236.045 109.025C235.972 109.478 235.966 110.001 236.066 110.601C236.184 111.308 236.704 111.899 237.321 112.354C238.106 112.933 239.047 113.294 239.509 113.397C239.929 113.49 240.807 113.975 241.138 114.157C242.07 114.672 243.16 114.624 244.035 114.585C244.261 114.575 244.474 114.566 244.669 114.566C245.921 114.566 247.162 114.7 248.474 114.842C249.786 114.983 251.142 115.13 252.511 115.13H259.475C260.186 115.13 260.845 115.054 261.482 114.98C262.069 114.912 262.623 114.848 263.177 114.848C263.481 114.848 264.153 114.78 264.708 114.694C265.086 114.635 265.488 114.572 265.828 114.438C266.214 114.285 266.521 114.039 266.624 113.602C266.721 113.19 266.57 112.651 266.013 112.372Z" fill="#3DADFF"/>
<path d="M253.984 111.177C253.718 111.177 253.458 111.069 253.27 110.881C253.247 110.858 253.225 110.833 253.204 110.807C253.183 110.782 253.163 110.755 253.145 110.727C253.109 110.673 253.078 110.614 253.052 110.553C253.027 110.492 253.008 110.429 252.995 110.365C252.989 110.332 252.983 110.3 252.98 110.266C252.977 110.234 252.975 110.2 252.975 110.168C252.975 110.135 252.977 110.101 252.98 110.068C252.983 110.036 252.989 110.002 252.995 109.971C253.008 109.906 253.027 109.843 253.052 109.781C253.078 109.721 253.109 109.662 253.145 109.607C253.163 109.58 253.183 109.553 253.204 109.527C253.225 109.502 253.247 109.477 253.27 109.454C253.294 109.43 253.318 109.408 253.344 109.387C253.37 109.367 253.397 109.347 253.424 109.329C253.478 109.292 253.537 109.261 253.599 109.236C253.659 109.211 253.723 109.191 253.787 109.178C253.819 109.172 253.852 109.167 253.885 109.163C253.951 109.156 254.018 109.156 254.084 109.163C254.116 109.167 254.149 109.172 254.181 109.178C254.246 109.191 254.31 109.211 254.37 109.236C254.431 109.261 254.49 109.292 254.544 109.329C254.572 109.347 254.598 109.367 254.624 109.387C254.649 109.408 254.674 109.43 254.698 109.454C254.721 109.477 254.743 109.502 254.764 109.527C254.785 109.553 254.805 109.58 254.823 109.607C254.859 109.662 254.891 109.721 254.916 109.781C254.941 109.843 254.961 109.906 254.973 109.971C254.98 110.002 254.985 110.036 254.988 110.068C254.992 110.101 254.993 110.134 254.993 110.168C254.993 110.201 254.992 110.234 254.988 110.266C254.985 110.3 254.98 110.332 254.973 110.365C254.961 110.429 254.941 110.492 254.916 110.553C254.891 110.614 254.859 110.673 254.823 110.727C254.805 110.755 254.785 110.782 254.764 110.807C254.743 110.833 254.721 110.858 254.698 110.881C254.674 110.904 254.649 110.927 254.624 110.948C254.598 110.968 254.572 110.988 254.544 111.006C254.49 111.042 254.431 111.073 254.37 111.099C254.309 111.124 254.246 111.143 254.181 111.156C254.149 111.163 254.116 111.168 254.084 111.171C254.05 111.174 254.017 111.177 253.984 111.177Z" fill="#3DADFF"/>
<path d="M207.681 114.283C207.647 114.283 207.614 114.282 207.581 114.279C207.549 114.276 207.516 114.27 207.484 114.264C207.419 114.251 207.356 114.231 207.294 114.206C207.234 114.181 207.175 114.15 207.12 114.113C207.093 114.095 207.066 114.075 207.041 114.054C207.015 114.033 206.99 114.012 206.967 113.988C206.944 113.965 206.922 113.94 206.901 113.915C206.88 113.889 206.86 113.862 206.842 113.835C206.805 113.78 206.774 113.721 206.749 113.661C206.724 113.6 206.704 113.536 206.691 113.472C206.685 113.44 206.68 113.406 206.677 113.374C206.673 113.341 206.672 113.308 206.672 113.274C206.672 113.241 206.673 113.208 206.677 113.175C206.68 113.142 206.685 113.11 206.691 113.077C206.704 113.013 206.724 112.95 206.749 112.889C206.774 112.828 206.805 112.769 206.842 112.715C206.86 112.687 206.88 112.66 206.901 112.635C206.922 112.609 206.944 112.584 206.967 112.561C206.99 112.538 207.015 112.515 207.041 112.494C207.066 112.473 207.093 112.454 207.12 112.435C207.175 112.4 207.234 112.368 207.294 112.343C207.356 112.317 207.419 112.298 207.484 112.286C207.516 112.279 207.549 112.274 207.581 112.271C207.647 112.264 207.714 112.264 207.779 112.271C207.813 112.274 207.845 112.279 207.878 112.286C207.942 112.298 208.005 112.317 208.067 112.343C208.127 112.368 208.186 112.4 208.24 112.435C208.268 112.454 208.295 112.473 208.32 112.494C208.346 112.515 208.371 112.538 208.394 112.561C208.417 112.584 208.44 112.609 208.461 112.635C208.482 112.66 208.501 112.687 208.519 112.715C208.555 112.769 208.587 112.828 208.612 112.889C208.638 112.95 208.656 113.013 208.67 113.077C208.677 113.11 208.681 113.142 208.684 113.175C208.687 113.208 208.69 113.242 208.69 113.274C208.69 113.307 208.687 113.341 208.684 113.374C208.681 113.406 208.677 113.44 208.67 113.472C208.656 113.536 208.638 113.6 208.612 113.661C208.587 113.721 208.555 113.78 208.519 113.835C208.501 113.862 208.482 113.889 208.461 113.915C208.44 113.94 208.417 113.965 208.394 113.988C208.371 114.012 208.346 114.033 208.32 114.054C208.295 114.075 208.268 114.095 208.24 114.113C208.186 114.15 208.127 114.181 208.067 114.206C208.005 114.231 207.942 114.251 207.878 114.264C207.845 114.27 207.813 114.276 207.779 114.279C207.747 114.282 207.713 114.283 207.681 114.283Z" fill="#3DADFF"/>
<path d="M241.168 136.149C241.188 137.485 241.208 138.867 240.823 140.216C240.43 141.59 239.564 143.251 237.669 143.363C237.423 143.376 237.18 143.407 236.921 143.439C236.584 143.48 236.212 143.525 235.824 143.525C234.856 143.525 233.79 143.241 232.931 141.893C232.198 140.739 231.52 139.532 231.52 138.512C231.52 138.354 231.532 138.175 231.547 137.968C231.565 137.712 231.606 137.151 231.563 136.887C231.239 136.59 231.137 136.104 231.343 135.692C231.592 135.194 232.199 134.992 232.697 135.241C233.729 135.757 233.631 137.119 233.56 138.112C233.548 138.274 233.537 138.427 233.537 138.512C233.537 138.773 233.728 139.384 234.634 140.81C235.128 141.586 235.517 141.578 236.674 141.435C236.953 141.401 237.241 141.366 237.551 141.348C238.124 141.314 238.573 140.747 238.883 139.662C239.187 138.599 239.169 137.423 239.151 136.178C239.146 135.89 239.142 135.591 239.142 135.296C239.142 134.634 239.148 133.962 239.153 133.313C239.165 132.024 239.177 130.692 239.142 129.394C239.109 128.143 238.746 126.743 238.394 125.388C238.222 124.723 238.043 124.035 237.908 123.375C237.482 121.305 237.02 119.382 236.497 117.497C236.289 116.753 236.108 115.954 235.932 115.181C235.546 113.486 235.146 111.734 234.449 110.338C234.337 110.114 234.214 109.877 234.084 109.624C233.403 108.306 232.556 106.663 232.374 105.212C232.304 104.66 232.697 104.155 233.249 104.086C233.803 104.017 234.307 104.409 234.376 104.961C234.513 106.057 235.27 107.522 235.877 108.699C235.934 108.81 235.99 108.919 236.045 109.025C236.117 109.166 236.187 109.302 236.254 109.436C236.709 110.345 237.042 111.337 237.32 112.355C237.537 113.142 237.719 113.943 237.899 114.733C238.078 115.517 238.247 116.258 238.441 116.957C238.976 118.886 239.449 120.853 239.884 122.969C240.01 123.578 240.174 124.211 240.348 124.881C240.727 126.346 241.12 127.86 241.16 129.341C241.194 130.675 241.183 132.024 241.171 133.33C241.166 133.975 241.16 134.643 241.16 135.296C241.16 135.577 241.164 135.868 241.168 136.149Z" fill="#3DADFF"/>
<path d="M243.256 139.088C242.745 139.088 242.323 139.467 242.256 139.959C242.172 140.047 241.989 140.188 241.861 140.285C241.596 140.488 241.296 140.718 241.055 141.02C241.002 141.086 240.947 141.15 240.891 141.216C240.536 141.629 240.051 142.193 239.99 143.124C239.949 143.238 239.672 143.565 239.04 143.918C238.454 144.244 237.837 144.438 237.553 144.453C236.011 144.539 235.29 144.538 234.37 143.618C234.103 143.351 233.759 143.163 233.395 142.965C233.182 142.848 232.797 142.638 232.673 142.507C232.668 142.455 232.668 142.387 232.668 142.313C232.669 141.954 232.67 141.354 232.111 140.795C232.008 140.692 231.914 140.613 231.836 140.552C231.782 140.046 231.353 139.652 230.833 139.652C230.276 139.652 229.824 140.104 229.824 140.661C229.824 141.415 230.103 141.776 230.523 142.088C230.571 142.124 230.609 142.153 230.649 142.189C230.65 142.225 230.65 142.271 230.65 142.308C230.649 142.483 230.649 142.722 230.711 142.998C230.913 143.909 231.789 144.387 232.428 144.736C232.605 144.833 232.872 144.978 232.943 145.045C234.178 146.28 235.408 146.507 236.613 146.507C236.898 146.507 237.18 146.494 237.462 146.479C237.529 146.476 237.598 146.472 237.665 146.468C238.33 146.431 239.457 146.062 240.396 145.453H240.397C241.252 144.897 241.952 144.143 242.004 143.261C242.018 143.021 242.129 142.87 242.421 142.53C242.49 142.451 242.56 142.368 242.631 142.28C242.718 142.171 242.907 142.026 243.089 141.887C243.585 141.506 244.264 140.985 244.264 140.097C244.264 139.54 243.813 139.088 243.256 139.088Z" fill="#3DADFF"/>
<path d="M236.758 96.0536L236.692 96.0745L236.624 96.0916C236.441 96.1366 236.254 96.1645 236.068 96.1731C236.017 96.1762 235.967 96.1777 235.916 96.1777C235.427 96.1777 234.946 96.0551 234.519 95.8246C234.346 95.7315 234.18 95.6205 234.027 95.4924L234.81 93.9022L235.693 92.1094C235.996 92.1769 236.299 92.2452 236.601 92.3143L236.382 94.2553L236.33 94.7124L236.758 96.0536Z" fill="#3DADFF"/>
<path d="M236.166 94.2045C236.166 94.2045 236.161 94.2053 236.159 94.2061C236.076 94.2262 235.994 94.2363 235.913 94.2363C235.674 94.2363 235.446 94.151 235.268 94.002C235.567 94.0687 235.867 94.1362 236.166 94.2045Z" fill="#3DADFF"/>
<path d="M270.485 120.09C270.463 117.331 270.1 113.299 267.459 106.552C265.919 102.617 263.077 99.5735 258.771 97.2483C255.274 95.36 251.439 94.2548 247.73 93.1846C247.189 93.0294 246.653 92.8749 246.126 92.7205C243.927 92.0732 241.705 91.4725 239.502 90.9292C239.48 90.6328 239.45 90.3634 239.426 90.1407L239.424 90.1213C239.41 89.9901 239.396 89.8543 239.39 89.7783C239.319 88.8299 239.237 87.8807 239.147 86.954V86.9447C239.147 86.9447 239.125 86.7413 239.12 86.6909V86.6862L239.11 86.5885C238.568 81.2923 237.706 76.7722 236.475 72.7706C236.111 71.5855 235.247 70.7233 234.103 70.4051C233.809 70.3236 233.504 70.2832 233.197 70.2832C231.549 70.2832 230.28 71.4303 229.524 72.1133L229.485 72.149C229.448 72.1823 229.413 72.2142 229.386 72.2374C227.977 73.3713 227.013 75.0508 226.309 76.2786L226.273 76.3423C226.221 76.4331 226.169 76.5223 226.116 76.6155C224.812 78.8708 223.507 81.3101 222.127 84.0731L222.045 84.2376L222.044 84.2392L221.943 84.4425L221.694 84.94V84.9454C221.291 85.7635 220.881 86.6094 220.442 87.5299C215.184 86.9462 209.774 86.6366 204.341 86.6086C203.38 86.604 202.508 86.6016 201.676 86.6016C196.033 86.6016 188.59 86.7033 181.067 87.4988C173.112 88.3394 166.218 89.8116 159.993 91.9987C158.948 92.3658 157.898 92.7236 156.731 93.1202L156.719 93.1248C151.997 94.7329 147.536 96.2518 143.051 98.681C141.562 99.4866 140.36 100.607 139.3 101.593C138.685 102.165 138.104 102.705 137.542 103.123C137.211 103.366 136.946 103.624 136.733 103.831C136.733 103.831 136.669 103.893 136.642 103.92C134.292 104.416 132.609 105.926 131.25 107.145C130.653 107.681 130.09 108.186 129.59 108.498C128.223 109.353 126.772 110.168 125.368 110.957L125.304 110.993C123.84 111.815 122.327 112.666 120.839 113.595C120.185 114.004 119.441 114.327 118.58 114.702L118.574 114.705C117.837 115.024 117.002 115.387 116.188 115.839C115.815 116.046 115.466 116.268 115.188 116.445C115.151 116.469 115.114 116.493 115.076 116.518C113.06 115.121 110.62 114.095 108.073 113.586C106.859 113.344 105.644 113.221 104.462 113.221C102.006 113.221 99.6894 113.758 97.7693 114.773C97.5652 114.879 97.3463 114.991 97.1073 115.113C95.9943 115.679 94.7324 116.322 93.7273 117.193C92.7378 118.05 92.0548 118.923 91.4525 119.693L91.4424 119.706C91.1475 120.084 90.8417 120.476 90.5142 120.841C88.3147 123.294 87 127.707 87 130.559C87 136.283 90.3637 139.489 93.6171 142.589L93.7514 142.717C93.853 142.814 93.9555 142.911 94.0587 143.011C95.9477 144.817 97.8834 145.91 100.335 146.555C102.188 147.043 104.012 147.48 105.944 147.48C107.194 147.48 108.372 147.296 109.548 146.918C111.756 146.208 112.844 144.899 113.661 143.739C114.104 143.989 114.593 144.318 114.985 144.582C115.437 144.887 115.863 145.176 116.269 145.384C118.855 146.714 121.54 147.661 124.139 148.579L124.262 148.622C124.696 148.775 125.129 148.928 125.564 149.084C127.503 149.778 129.474 150.572 131.388 151.343L131.41 151.352C133.55 152.215 135.763 153.106 138.007 153.89C145.263 156.426 153.738 157.019 161.111 157.377C167.794 157.7 174.597 157.727 180.992 157.727C181.732 157.727 182.471 157.727 183.206 157.727H185.347C187.002 157.727 188.7 157.753 190.2 157.776H190.274C191.867 157.802 193.515 157.827 195.162 157.827C197.582 157.827 199.575 157.773 201.434 157.657C205.165 157.426 208.88 156.975 212.475 156.54L212.49 156.538C215.044 156.228 217.685 155.908 220.275 155.674C222.84 155.444 225.877 155.124 228.945 154.498C229.683 154.347 230.356 154.099 230.952 153.879C231.431 153.703 231.972 153.503 232.245 153.483C233.747 153.371 234.71 152.489 235.228 152.014C235.286 151.962 235.37 151.885 235.416 151.846C237.219 150.765 239.37 149.947 240.864 149.45C242.459 148.918 244.018 148.691 246.08 148.691C246.207 148.691 246.492 148.712 246.742 148.731L246.77 148.733C247.261 148.769 247.817 148.811 248.375 148.811C249.032 148.811 249.955 148.762 250.839 148.391C253.54 148.281 256.562 147.636 259.016 146.639C259.54 146.426 260.088 146.228 260.667 146.017L260.718 145.999C262.444 145.374 264.4 144.665 266.158 143.396C268.099 141.994 269.394 139.762 270.006 136.762C270.486 134.411 270.486 132.014 270.486 130.088C270.486 128.983 270.488 127.877 270.491 126.771V126.614C270.497 124.476 270.503 122.267 270.485 120.09ZM263.84 140.187C262.532 141.132 260.996 141.688 259.37 142.277C258.764 142.497 258.137 142.724 257.526 142.972C255.315 143.871 252.373 144.45 250.032 144.45C250.015 144.45 249.997 144.451 249.98 144.452C249.95 144.454 249.92 144.456 249.89 144.46C249.875 144.463 249.86 144.465 249.845 144.468C249.833 144.471 249.821 144.473 249.809 144.475C249.808 144.475 249.807 144.475 249.806 144.476C249.788 144.48 249.77 144.485 249.752 144.49C249.738 144.494 249.725 144.499 249.711 144.502C249.695 144.508 249.678 144.514 249.662 144.521C249.65 144.525 249.639 144.53 249.627 144.535C249.564 144.563 249.505 144.596 249.449 144.636C249.439 144.644 249.428 144.651 249.416 144.661C249.415 144.662 249.413 144.663 249.411 144.665C249.402 144.671 249.394 144.678 249.385 144.686C249.375 144.694 249.366 144.703 249.356 144.711C249.349 144.717 249.342 144.724 249.335 144.731C248.997 144.931 247.646 144.829 247.067 144.786C246.704 144.759 246.361 144.733 246.08 144.733C243.893 144.733 242.146 144.951 240.398 145.452H240.397C239.458 146.061 238.331 146.429 237.666 146.467C237.598 146.471 237.53 146.474 237.462 146.478C236.131 147.007 234.658 147.68 233.323 148.486C233.023 148.667 232.774 148.895 232.554 149.096C232.346 149.287 232.085 149.525 231.951 149.535C231.126 149.597 230.342 149.885 229.583 150.166C229.076 150.353 228.597 150.529 228.154 150.62C225.282 151.206 222.38 151.511 219.92 151.733C217.264 151.972 214.587 152.296 211.998 152.61C208.461 153.039 204.803 153.483 201.189 153.707C197.581 153.931 193.86 153.874 190.26 153.818C189.244 153.802 188.204 153.787 187.166 153.778C186.894 153.989 186.621 154.153 186.346 154.252C186.185 154.309 185.986 154.433 185.774 154.565C185.303 154.856 184.716 155.22 183.966 155.22C182.738 155.22 181.742 154.728 181.161 153.833C181.147 153.812 181.133 153.791 181.121 153.769C174.583 153.77 167.876 153.741 161.302 153.424C154.208 153.08 146.072 152.516 139.314 150.153C137.149 149.397 134.972 148.52 132.867 147.672C130.923 146.888 128.912 146.078 126.898 145.357C126.417 145.185 125.937 145.015 125.456 144.845C122.87 143.933 120.427 143.071 118.078 141.864C117.886 141.765 117.552 141.541 117.2 141.303C116.419 140.776 115.448 140.121 114.48 139.751C112.536 139.008 111.561 139.848 111.152 140.415C110.984 140.649 110.833 140.868 110.688 141.08C109.966 142.132 109.53 142.767 108.337 143.15C106.086 143.874 104.018 143.431 101.342 142.727C99.5264 142.249 98.2085 141.503 96.7945 140.151C96.6455 140.007 96.4957 139.865 96.3474 139.723C93.3361 136.854 90.9582 134.587 90.9582 130.559C90.9582 128.491 91.9632 125.153 93.4603 123.484C93.8748 123.022 94.224 122.575 94.5624 122.142C95.1041 121.449 95.6156 120.795 96.3187 120.185C96.9613 119.628 97.9959 119.102 98.9086 118.637C99.1546 118.512 99.3882 118.393 99.611 118.275C101.689 117.179 104.418 116.892 107.297 117.467C109.389 117.886 111.37 118.732 112.955 119.862C112.945 119.923 112.938 119.986 112.938 120.05C112.938 120.607 113.39 121.059 113.947 121.059C114.086 121.059 114.223 121.052 114.355 121.038C114.358 121.04 114.361 121.043 114.363 121.045C114.757 121.44 115.396 121.44 115.79 121.045C115.94 120.895 116.033 120.708 116.068 120.514C116.513 120.293 116.924 120.032 117.312 119.785C117.589 119.61 117.849 119.443 118.107 119.3C118.747 118.944 119.429 118.649 120.149 118.336C121.074 117.934 122.03 117.519 122.936 116.952C124.358 116.063 125.843 115.23 127.278 114.424C128.731 113.608 130.234 112.764 131.688 111.855C132.476 111.363 133.196 110.716 133.893 110.091C135.061 109.043 136.166 108.052 137.496 107.786C138.399 107.737 139.021 107.131 139.479 106.683C139.631 106.534 139.775 106.394 139.895 106.305C140.638 105.754 141.328 105.112 141.996 104.491C142.971 103.584 143.892 102.727 144.936 102.162C149.131 99.8886 153.443 98.4218 158.007 96.868C159.085 96.5009 160.2 96.1214 161.306 95.7326C175.251 90.833 190.822 90.4969 204.32 90.5668C210.084 90.5971 215.728 90.9432 221.305 91.6153C221.398 91.7255 221.514 91.8179 221.653 91.8831C221.997 92.0437 222.384 91.994 222.671 91.7868C226.743 92.3161 230.783 93.0201 234.809 93.9017L234.026 95.492C234.179 95.62 234.344 95.731 234.518 95.8241C234.628 95.8474 234.738 95.8723 234.847 95.8963C235.143 95.9623 235.439 96.029 235.735 96.0966C235.845 96.1222 235.956 96.147 236.066 96.1726C236.253 96.1641 236.44 96.1361 236.623 96.0911L236.69 96.074L236.756 96.0531L236.329 94.712L236.381 94.2548C239.259 94.9169 242.134 95.6712 245.01 96.5172C245.544 96.674 246.087 96.8307 246.635 96.9891C250.142 98.0003 253.769 99.0458 256.89 100.731C258.947 101.842 260.578 103.136 261.811 104.641H262.455C263.013 104.641 263.464 105.093 263.464 105.65C263.464 105.985 263.302 106.281 263.052 106.464C263.326 106.955 263.566 107.465 263.773 107.995C264.276 109.28 264.809 110.733 265.27 112.308C265.508 112.236 265.772 112.251 266.012 112.371C266.569 112.65 266.72 113.19 266.623 113.602C266.52 114.039 266.213 114.284 265.827 114.436C266.237 116.235 266.511 118.149 266.528 120.12C266.545 122.331 266.539 124.583 266.533 126.761C266.53 127.87 266.528 128.979 266.528 130.088C266.528 133.337 266.528 138.247 263.84 140.187ZM229.738 78.2562C230.348 77.1913 231.039 75.9853 231.871 75.3194C231.958 75.2495 232.055 75.1626 232.176 75.0524C232.304 74.9367 232.593 74.6752 232.855 74.4773C233.791 77.6485 234.494 81.2147 234.982 85.2799C234.38 84.9726 233.785 84.6528 233.171 84.285C232.85 84.0917 232.481 83.8503 232.09 83.5942C230.86 82.7886 229.403 81.834 227.965 81.4188C228.474 80.4789 229.001 79.5344 229.542 78.5969C229.607 78.4859 229.672 78.3718 229.738 78.2562ZM230.984 85.2823C231.393 85.5492 231.777 85.8015 232.134 86.0149C233.187 86.6474 234.162 87.1317 235.194 87.644C235.209 87.6517 235.224 87.6587 235.239 87.6665C235.314 88.4503 235.382 89.2521 235.442 90.0716C235.453 90.2183 235.472 90.3859 235.49 90.5637C235.525 90.8702 235.598 91.5517 235.57 92.0026C235.05 91.8869 234.531 91.7752 234.011 91.6665C234.233 91.176 234.03 90.5924 233.543 90.3495C233.29 90.223 233.014 90.0437 232.72 89.8543C232.113 89.4616 231.424 89.0161 230.629 88.8392C230.2 88.7437 229.644 88.4379 229.517 88.2664C229.443 88.0444 229.181 87.5012 228.38 87.4065C228.136 87.377 227.887 87.3941 227.686 87.408C227.516 87.2373 227.29 86.9889 227.216 86.8919C226.863 86.3517 226.408 85.9288 226.006 85.5547C225.961 85.5135 225.918 85.4732 225.874 85.4328C226.232 84.7196 226.603 83.9931 226.987 83.2597C228.201 83.4592 229.791 84.5007 230.984 85.2823ZM225.531 88.001C225.538 88.0126 226.418 89.2039 227.042 89.3824C227.304 89.4569 227.568 89.4391 227.823 89.4212C227.834 89.4205 227.846 89.4197 227.858 89.4189C228.571 90.4379 230.173 90.805 230.191 90.8089C230.367 90.8477 230.552 90.923 230.742 91.0193C228.404 90.5839 226.058 90.2067 223.704 89.8877C224.091 89.0704 224.503 88.2105 224.938 87.3211C225.17 87.5446 225.378 87.7666 225.531 88.001Z" fill="white"/>
<path d="M268.546 120.106C268.526 117.514 268.179 113.712 265.653 107.261C264.288 103.771 261.736 101.055 257.85 98.9572C254.537 97.1683 250.804 96.0918 247.194 95.0511C246.65 94.8943 246.111 94.7391 245.58 94.5831C242.901 93.7953 240.224 93.086 237.544 92.4542C237.556 92.3758 237.565 92.3021 237.571 92.2338C237.633 91.5912 237.555 90.8725 237.498 90.3479C237.481 90.188 237.464 90.0366 237.456 89.9233C237.383 88.9408 237.3 87.9838 237.208 87.051V87.0486C237.198 86.9609 237.19 86.8756 237.181 86.7886V86.7871C236.653 81.6275 235.811 77.206 234.622 73.3426C234.393 72.6006 233.876 72.3569 233.589 72.277C232.555 71.9921 231.513 72.9335 230.824 73.5568C230.739 73.6336 230.651 73.7135 230.611 73.7446C229.48 74.6511 228.653 76.0946 227.988 77.2541C227.923 77.3682 227.859 77.48 227.796 77.5879C226.365 80.0637 225.044 82.5806 223.865 84.9415C223.788 85.0952 223.712 85.2473 223.636 85.3994C223.636 85.4002 223.636 85.4009 223.635 85.4017C222.895 86.8934 222.215 88.3168 221.601 89.6191C215.929 88.9338 210.19 88.5807 204.332 88.5504C190.663 88.4798 174.888 88.8236 160.638 93.8303C159.542 94.216 158.431 94.5939 157.358 94.9587C152.71 96.5412 148.321 98.0352 143.975 100.389C142.706 101.076 141.647 102.062 140.622 103.015C139.967 103.626 139.347 104.201 138.695 104.685C138.464 104.856 138.264 105.052 138.07 105.241C137.853 105.452 137.527 105.771 137.383 105.772H137.381C137.364 105.772 137.347 105.773 137.33 105.774C137.314 105.775 137.298 105.775 137.281 105.778C137.269 105.778 137.257 105.78 137.246 105.782C137.231 105.784 137.217 105.786 137.202 105.789H137.201C137.188 105.791 137.175 105.793 137.163 105.796C135.262 106.156 133.82 107.449 132.547 108.59C131.885 109.185 131.259 109.746 130.62 110.145C129.205 111.03 127.724 111.861 126.292 112.666C124.836 113.484 123.33 114.329 121.868 115.243C121.089 115.729 120.243 116.097 119.347 116.486C118.614 116.805 117.855 117.134 117.129 117.538C116.818 117.71 116.519 117.9 116.231 118.084C115.768 118.379 115.342 118.649 114.916 118.827C112.982 117.228 110.412 116.034 107.694 115.491C104.361 114.825 101.157 115.18 98.6707 116.493C98.4604 116.603 98.2337 116.718 97.9939 116.84C96.9788 117.357 95.827 117.943 94.9989 118.661C94.1468 119.399 93.5507 120.163 92.9733 120.901C92.6559 121.308 92.3276 121.727 91.9597 122.138C90.0947 124.217 88.9414 128.129 88.9414 130.56C88.9414 135.453 91.8627 138.238 94.9562 141.186C95.1037 141.326 95.2527 141.468 95.401 141.61C97.061 143.198 98.6839 144.116 100.83 144.68C103.742 145.446 106.189 145.962 108.956 145.073C110.804 144.478 111.556 143.383 112.353 142.224C112.492 142.021 112.636 141.811 112.79 141.596C112.837 141.532 112.977 141.337 113.76 141.637C114.513 141.925 115.378 142.509 116.073 142.977C116.494 143.261 116.858 143.507 117.158 143.66C119.627 144.93 122.25 145.855 124.786 146.75C125.263 146.918 125.741 147.087 126.219 147.258C128.196 147.966 130.188 148.769 132.114 149.545C134.24 150.402 136.439 151.288 138.649 152.06C145.662 154.511 153.97 155.09 161.206 155.441C168.53 155.795 175.991 155.792 183.207 155.788H185.348C186.967 155.788 188.626 155.813 190.23 155.837C191.856 155.862 193.506 155.888 195.163 155.888C197.214 155.888 199.276 155.849 201.315 155.723C204.989 155.494 208.676 155.047 212.242 154.615C214.815 154.303 217.477 153.98 220.102 153.743C222.617 153.518 225.59 153.204 228.559 152.598C229.152 152.477 229.727 152.265 230.282 152.06C230.939 151.818 231.559 151.59 232.101 151.549C232.933 151.487 233.502 150.967 233.918 150.586C234.083 150.435 234.239 150.292 234.368 150.214C236.329 149.029 238.65 148.144 240.251 147.611C242.055 147.009 243.798 146.752 246.081 146.752C246.286 146.752 246.593 146.776 246.917 146.8C248.127 146.89 249.475 146.991 250.366 146.467C252.918 146.417 255.92 145.805 258.287 144.843C258.862 144.609 259.443 144.399 260.058 144.176C261.743 143.566 263.486 142.935 265.023 141.825C268.547 139.28 268.547 133.749 268.547 130.089C268.547 128.983 268.549 127.875 268.552 126.767C268.558 124.584 268.564 122.327 268.546 120.106ZM229.543 78.5984C229.608 78.4874 229.673 78.3733 229.739 78.2576C230.349 77.1928 231.04 75.9868 231.872 75.3209C231.959 75.251 232.056 75.1641 232.178 75.0539C232.305 74.9382 232.594 74.6767 232.857 74.4788C233.792 77.65 234.495 81.2162 234.983 85.2814C234.381 84.9741 233.786 84.6543 233.173 84.2865C232.851 84.0932 232.482 83.8518 232.091 83.5957C230.861 82.7901 229.404 81.8355 227.966 81.4203C228.475 80.4804 229.002 79.5359 229.543 78.5984ZM226.988 83.2612C228.202 83.4607 229.793 84.5022 230.985 85.2838C231.394 85.5507 231.779 85.803 232.135 86.0164C233.188 86.6489 234.163 87.1332 235.195 87.6454C235.21 87.6532 235.225 87.6602 235.24 87.668C235.315 88.4518 235.383 89.2535 235.443 90.0731C235.454 90.2198 235.473 90.3874 235.492 90.5652C235.526 90.8717 235.599 91.5532 235.571 92.0041C235.051 91.8884 234.532 91.7767 234.012 91.668C234.234 91.1775 234.031 90.5939 233.544 90.351C233.291 90.2245 233.015 90.0452 232.722 89.8558C232.114 89.4631 231.425 89.0176 230.63 88.8407C230.202 88.7452 229.645 88.4394 229.518 88.2679C229.444 88.0459 229.182 87.5026 228.381 87.408C228.137 87.3785 227.888 87.3955 227.687 87.4095C227.517 87.2388 227.291 86.9904 227.217 86.8934C226.864 86.3532 226.409 85.9303 226.007 85.5562C225.962 85.515 225.919 85.4747 225.876 85.4343C226.233 84.7211 226.604 83.9946 226.988 83.2612ZM224.939 87.3226C225.171 87.5461 225.38 87.7681 225.532 88.0025C225.539 88.0141 226.42 89.2054 227.044 89.3839C227.305 89.4584 227.569 89.4406 227.824 89.4227C227.835 89.422 227.847 89.4212 227.859 89.4204C228.573 90.4394 230.174 90.8065 230.192 90.8104C230.368 90.8492 230.553 90.9245 230.743 91.0207C228.405 90.5853 226.059 90.2082 223.705 89.8892C224.092 89.0719 224.504 88.212 224.939 87.3226ZM266.624 113.603C266.521 114.04 266.215 114.285 265.828 114.437C266.238 116.236 266.513 118.15 266.529 120.122C266.546 122.333 266.54 124.584 266.534 126.762C266.531 127.871 266.529 128.98 266.529 130.089C266.529 133.339 266.529 138.248 263.841 140.189C262.533 141.133 260.998 141.69 259.372 142.279C258.765 142.498 258.138 142.725 257.527 142.973C255.316 143.872 252.374 144.452 250.033 144.452C250.016 144.452 249.999 144.453 249.981 144.453C249.951 144.455 249.921 144.457 249.891 144.462C249.876 144.464 249.861 144.467 249.846 144.47C249.834 144.472 249.822 144.474 249.81 144.477C249.809 144.477 249.808 144.477 249.808 144.478C249.789 144.481 249.771 144.486 249.753 144.491C249.739 144.495 249.726 144.5 249.712 144.504C249.696 144.509 249.68 144.516 249.663 144.523C249.652 144.526 249.64 144.532 249.628 144.536C249.565 144.564 249.506 144.598 249.451 144.637C249.44 144.645 249.429 144.653 249.417 144.662C249.416 144.664 249.414 144.665 249.413 144.666C249.403 144.672 249.395 144.679 249.386 144.687C249.376 144.696 249.367 144.704 249.357 144.713C249.35 144.719 249.343 144.726 249.336 144.732C248.998 144.932 247.647 144.831 247.068 144.787C246.705 144.76 246.362 144.734 246.081 144.734C243.894 144.734 242.147 144.952 240.399 145.453H240.398C239.459 146.062 238.332 146.431 237.667 146.468C237.599 146.472 237.531 146.476 237.464 146.479C236.132 147.008 234.659 147.681 233.324 148.488C233.024 148.668 232.775 148.897 232.556 149.098C232.347 149.289 232.086 149.527 231.952 149.537C231.127 149.598 230.343 149.887 229.585 150.167C229.077 150.354 228.598 150.53 228.155 150.621C225.283 151.207 222.382 151.512 219.921 151.734C217.265 151.973 214.588 152.298 211.999 152.612C208.462 153.04 204.804 153.484 201.19 153.709C197.583 153.932 193.861 153.875 190.262 153.82C189.245 153.804 188.206 153.788 187.167 153.779C186.895 153.99 186.622 154.154 186.348 154.253C186.186 154.311 185.987 154.435 185.776 154.566C185.305 154.858 184.717 155.222 183.967 155.222C182.739 155.222 181.743 154.729 181.162 153.834C181.148 153.813 181.134 153.792 181.122 153.771C174.584 153.771 167.877 153.743 161.303 153.425C154.209 153.081 146.073 152.517 139.315 150.155C137.15 149.399 134.973 148.521 132.868 147.674C130.924 146.89 128.913 146.079 126.899 145.358C126.418 145.186 125.938 145.016 125.457 144.847C122.871 143.934 120.428 143.073 118.08 141.866C117.887 141.767 117.553 141.542 117.201 141.304C116.42 140.778 115.449 140.123 114.481 139.753C112.537 139.009 111.562 139.85 111.154 140.417C110.985 140.651 110.835 140.869 110.69 141.081C109.967 142.134 109.531 142.769 108.338 143.152C106.087 143.875 104.019 143.433 101.343 142.729C99.5275 142.251 98.2097 141.504 96.7956 140.152C96.6466 140.009 96.4968 139.867 96.3486 139.725C93.3373 136.855 90.9593 134.588 90.9593 130.56C90.9593 128.492 91.9643 125.155 93.4615 123.485C93.8759 123.024 94.2251 122.577 94.5635 122.143C95.1053 121.45 95.6167 120.796 96.3199 120.186C96.9625 119.63 97.997 119.103 98.9097 118.639C99.1558 118.514 99.3894 118.395 99.6121 118.277C101.69 117.18 104.419 116.894 107.298 117.469C109.39 117.887 111.371 118.733 112.957 119.863C112.946 119.925 112.939 119.987 112.939 120.051C112.939 120.608 113.391 121.06 113.948 121.06C114.087 121.06 114.224 121.053 114.357 121.039C114.359 121.041 114.362 121.044 114.364 121.047C114.759 121.441 115.397 121.441 115.791 121.047C115.941 120.896 116.035 120.71 116.069 120.516C116.514 120.295 116.925 120.033 117.314 119.786C117.59 119.611 117.85 119.445 118.108 119.301C118.749 118.946 119.43 118.65 120.15 118.337C121.075 117.935 122.032 117.52 122.937 116.954C124.359 116.065 125.844 115.231 127.28 114.425C128.732 113.609 130.235 112.766 131.689 111.856C132.477 111.364 133.197 110.718 133.894 110.093C135.062 109.044 136.167 108.053 137.497 107.787C138.4 107.739 139.022 107.133 139.48 106.684C139.632 106.536 139.776 106.395 139.896 106.306C140.64 105.756 141.329 105.113 141.997 104.492C142.972 103.585 143.893 102.728 144.937 102.163C149.132 99.8901 153.444 98.4233 158.008 96.8695C159.086 96.5024 160.201 96.1229 161.307 95.734C175.252 90.8345 190.823 90.4984 204.321 90.5683C210.085 90.5985 215.729 90.9447 221.307 91.6168C221.399 91.727 221.515 91.8194 221.654 91.8846C221.998 92.0452 222.385 91.9955 222.673 91.7883C226.744 92.3176 230.784 93.0215 234.81 93.9032C234.964 93.9366 235.117 93.97 235.27 94.0041C235.57 94.0708 235.869 94.1384 236.168 94.2067C236.24 94.223 236.31 94.2393 236.382 94.2563C239.26 94.9184 242.135 95.6727 245.011 96.5187C245.545 96.6755 246.088 96.8322 246.636 96.9906C250.143 98.0018 253.77 99.0473 256.891 100.733C258.948 101.844 260.579 103.137 261.812 104.643H262.457C263.014 104.643 263.466 105.095 263.466 105.652C263.466 105.986 263.303 106.282 263.053 106.465C263.327 106.957 263.567 107.466 263.774 107.997C264.277 109.281 264.811 110.735 265.272 112.309C265.509 112.237 265.773 112.253 266.013 112.372C266.57 112.652 266.721 113.191 266.624 113.603Z" fill="#3DADFF"/>
<path d="M237.208 87.0471C237.199 86.9594 237.19 86.874 237.182 86.7871C237.202 86.8717 237.21 86.9586 237.208 87.0471Z" fill="#3DADFF"/>
<path d="M223.635 85.3993C223.711 85.2472 223.787 85.0951 223.864 84.9414C223.747 85.0749 223.67 85.2332 223.635 85.3993Z" fill="#3DADFF"/>
<path d="M194.856 144.329C194.856 145.82 193.889 146.619 193.111 147.262C192.961 147.386 192.82 147.502 192.683 147.625C191.681 148.514 190.62 149.816 189.684 150.964L189.406 151.305C189.324 151.404 189.23 151.523 189.126 151.654C188.468 152.486 187.819 153.269 187.166 153.777C186.894 153.988 186.621 154.152 186.346 154.251C186.185 154.309 185.986 154.433 185.774 154.564C185.303 154.856 184.716 155.22 183.966 155.22C182.738 155.22 181.742 154.727 181.16 153.832C181.147 153.811 181.133 153.79 181.121 153.768C180.49 152.744 180.469 151.338 181.068 149.99C181.855 148.218 182.895 146.476 183.9 144.792C184.685 143.478 185.497 142.119 186.169 140.773C186.419 140.274 187.025 140.072 187.523 140.322C188.021 140.571 188.223 141.177 187.974 141.675C187.268 143.088 186.436 144.481 185.633 145.827C184.613 147.535 183.65 149.147 182.912 150.809C182.589 151.536 182.565 152.291 182.852 152.732C183.055 153.044 183.43 153.202 183.966 153.202C184.142 153.202 184.431 153.023 184.711 152.849C184.988 152.677 185.302 152.482 185.663 152.352C186.134 152.183 187.158 150.889 187.544 150.402C187.656 150.261 187.757 150.133 187.844 150.027L188.12 149.689C189.056 148.541 190.22 147.113 191.342 146.116C191.507 145.97 191.668 145.837 191.825 145.707C192.561 145.099 192.839 144.823 192.839 144.329C192.839 143.772 193.29 143.32 193.848 143.32C194.405 143.32 194.856 143.772 194.856 144.329Z" fill="#3DADFF"/>
</g>
<path d="M207.967 203.309C208.796 203.309 209.371 203.755 209.371 204.543C209.371 205.287 208.69 205.862 207.775 205.862C206.946 205.862 206.371 205.436 206.371 204.628C206.371 203.883 207.052 203.309 207.967 203.309Z" fill="#3DADFF"/>
<path d="M203.789 203.309C204.619 203.309 205.193 203.755 205.193 204.543C205.193 205.287 204.512 205.862 203.597 205.862C202.768 205.862 202.193 205.436 202.193 204.628C202.193 203.883 202.874 203.309 203.789 203.309Z" fill="#3DADFF"/>
<path d="M199.613 203.309C200.443 203.309 201.017 203.755 201.017 204.543C201.017 205.287 200.336 205.862 199.422 205.862C198.592 205.862 198.018 205.436 198.018 204.628C198.018 203.883 198.698 203.309 199.613 203.309Z" fill="#3DADFF"/>
<path d="M196.323 203.204C196.6 205.204 197.877 204.502 197.877 205.352C197.877 205.629 197.621 205.757 197.302 205.757C196.728 205.757 196.302 205.693 195.451 205.693C194.558 205.693 194.196 205.757 193.622 205.757C193.239 205.757 193.005 205.565 193.005 205.31C193.005 204.544 194.43 205.055 194.43 203.757C194.43 203.587 194.409 203.374 194.387 203.204L193.877 199.502C193.707 198.417 193.302 196.63 191.643 196.63C190.367 196.63 188.984 197.651 188.984 199.821V203.417C188.984 205.14 190.345 204.523 190.345 205.331C190.345 205.523 190.218 205.757 189.899 205.757C189.431 205.757 188.792 205.693 188.026 205.693C187.282 205.693 186.686 205.757 186.218 205.757C185.878 205.757 185.729 205.523 185.729 205.331C185.729 204.523 187.069 205.14 187.069 203.417V192.737C187.069 191.418 185.559 192.141 185.559 191.311C185.559 190.971 185.92 190.716 187.048 190.184C188.133 189.673 188.346 189.609 188.58 189.609C188.877 189.609 188.984 189.865 188.984 190.163V197.077C189.665 195.97 190.771 195.013 192.388 195.013C194.962 195.013 195.558 197.481 195.792 199.225L196.323 203.204Z" fill="#3DADFF"/>
<path d="M177.483 205.989C177.143 205.989 176.973 205.627 176.824 205.308L176.186 203.947C175.803 203.159 175.611 202.862 175.611 202.585C175.611 202.287 175.782 202.138 176.037 202.138C176.25 202.138 176.484 202.33 176.696 202.542C178.058 203.904 179.547 204.84 181.121 204.84C182.526 204.84 183.398 204.053 183.398 203.074C183.398 201.883 182.228 201.628 180.292 201.181C178.228 200.67 175.909 200.011 175.909 197.905C175.909 196.288 177.335 195.011 179.483 195.011C180.675 195.011 181.589 195.394 181.93 195.394C182.292 195.394 182.292 194.969 182.696 194.969C183.057 194.969 183.249 195.288 183.483 195.692L184.185 196.841C184.419 197.224 184.653 197.671 184.653 197.905C184.653 198.16 184.462 198.33 184.249 198.33C184.036 198.33 183.802 198.117 183.589 197.926C182.504 196.926 181.058 196.096 179.675 196.096C178.547 196.096 177.845 196.671 177.845 197.458C177.845 198.543 178.845 198.777 180.951 199.287C183.164 199.841 185.334 200.479 185.334 202.755C185.334 204.691 183.611 205.925 181.164 205.925C179.717 205.925 178.739 205.457 178.398 205.457C177.994 205.457 177.952 205.989 177.483 205.989Z" fill="#3DADFF"/>
<path d="M167.413 189.502C168.774 189.502 170.285 190.161 170.285 191.076C170.285 191.587 170.051 192.055 169.711 192.714C169.583 192.97 169.391 193.182 169.157 193.182C168.881 193.182 168.711 192.991 168.668 192.672C168.455 191.268 168.051 190.608 167.264 190.608C166.583 190.608 166.009 191.14 166.009 192.055C166.009 193.119 166.604 194.012 166.817 195.246H169.328C169.583 195.246 169.711 195.352 169.711 195.544C169.711 195.693 169.668 195.906 169.647 196.033C169.583 196.267 169.477 196.374 169.242 196.374H166.902V203.415C166.902 205.139 168.647 204.458 168.647 205.33C168.647 205.522 168.498 205.756 168.179 205.756C167.626 205.756 166.881 205.692 166.009 205.692C165.222 205.692 164.605 205.756 164.137 205.756C163.796 205.756 163.647 205.522 163.647 205.33C163.647 204.522 164.988 205.139 164.988 203.415V196.374H163.583C163.371 196.374 163.243 196.267 163.201 196.033C163.179 195.906 163.137 195.693 163.137 195.544C163.137 195.352 163.264 195.246 163.498 195.246H164.924C164.754 194.246 164.307 193.502 164.307 192.395C164.307 190.544 165.69 189.502 167.413 189.502ZM172.327 192.799C171.753 192.799 171.2 192.417 171.2 191.714C171.2 190.906 172.008 190.013 173.072 190.013C173.71 190.013 174.263 190.417 174.263 191.098C174.263 191.906 173.391 192.799 172.327 192.799ZM173.88 203.415C173.88 205.139 175.263 204.522 175.263 205.33C175.263 205.522 175.114 205.756 174.795 205.756C174.327 205.756 173.689 205.692 172.923 205.692C172.178 205.692 171.583 205.756 171.136 205.756C170.774 205.756 170.625 205.522 170.625 205.33C170.625 204.522 171.966 205.139 171.966 203.415V198.203C171.966 196.884 170.455 197.608 170.455 196.778C170.455 196.437 170.838 196.203 171.944 195.672C173.029 195.14 173.263 195.076 173.434 195.076C173.774 195.076 173.88 195.352 173.88 195.82V203.415Z" fill="#3DADFF"/>
<path d="M152.656 206.075C149.401 206.075 147.125 203.777 147.125 200.543C147.125 197.267 149.572 194.842 152.912 194.842C156.167 194.842 158.443 197.139 158.443 200.416C158.443 203.671 155.975 206.075 152.656 206.075ZM153.103 204.926C155.124 204.926 156.379 203.288 156.379 201.16C156.379 198.48 154.784 196.012 152.465 196.012C150.444 196.012 149.189 197.629 149.189 199.777C149.189 202.437 150.784 204.926 153.103 204.926Z" fill="#3DADFF"/>
<path d="M145.735 203.202C145.991 205.202 147.288 204.5 147.288 205.33C147.288 205.628 147.033 205.755 146.693 205.755C146.14 205.755 145.693 205.692 144.842 205.692C143.97 205.692 143.587 205.755 143.012 205.755C142.629 205.755 142.417 205.564 142.417 205.309C142.417 204.543 143.842 205.053 143.842 203.734C143.842 203.564 143.799 203.309 143.778 203.096L143.268 199.501C143.097 198.416 142.714 196.629 141.034 196.629C139.757 196.629 138.374 197.65 138.374 199.82V203.415C138.374 205.138 139.757 204.521 139.757 205.33C139.757 205.521 139.608 205.755 139.289 205.755C138.821 205.755 138.183 205.692 137.417 205.692C136.672 205.692 136.077 205.755 135.63 205.755C135.268 205.755 135.119 205.521 135.119 205.33C135.119 204.521 136.46 205.138 136.46 203.415V198.203C136.46 196.884 134.949 197.607 134.949 196.777C134.949 196.437 135.332 196.203 136.438 195.671C137.523 195.139 137.757 195.076 137.928 195.076C138.268 195.076 138.374 195.352 138.374 195.82V197.075C139.055 195.969 140.161 195.012 141.8 195.012C144.331 195.012 144.948 197.48 145.182 199.224L145.735 203.202Z" fill="#3DADFF"/>
<path d="M122.235 205.989C121.895 205.989 121.725 205.627 121.576 205.308L120.938 203.947C120.555 203.159 120.363 202.862 120.363 202.585C120.363 202.287 120.533 202.138 120.789 202.138C121.002 202.138 121.236 202.33 121.448 202.542C122.81 203.904 124.299 204.84 125.873 204.84C127.277 204.84 128.15 204.053 128.15 203.074C128.15 201.883 126.98 201.628 125.044 201.181C122.98 200.67 120.661 200.011 120.661 197.905C120.661 196.288 122.087 195.011 124.235 195.011C125.427 195.011 126.341 195.394 126.682 195.394C127.043 195.394 127.043 194.969 127.448 194.969C127.809 194.969 128.001 195.288 128.235 195.692L128.937 196.841C129.171 197.224 129.405 197.671 129.405 197.905C129.405 198.16 129.213 198.33 129.001 198.33C128.788 198.33 128.554 198.117 128.341 197.926C127.256 196.926 125.81 196.096 124.427 196.096C123.299 196.096 122.597 196.671 122.597 197.458C122.597 198.543 123.597 198.777 125.703 199.287C127.916 199.841 130.086 200.479 130.086 202.755C130.086 204.691 128.362 205.925 125.916 205.925C124.469 205.925 123.491 205.457 123.15 205.457C122.746 205.457 122.703 205.989 122.235 205.989Z" fill="#3DADFF"/>
<path d="M119.61 202.99C119.844 202.99 120.036 203.203 120.036 203.479C120.036 203.607 119.972 203.777 119.844 203.99C119.057 205.117 117.206 206.075 115.356 206.075C112.462 206.075 110.016 204.054 110.016 200.501C110.016 197.161 112.462 194.842 115.249 194.842C117.866 194.842 119.61 196.842 119.61 198.926C119.61 199.373 119.483 199.501 119.164 199.607L112.335 201.65C112.909 203.394 114.292 204.628 116.058 204.628C117.313 204.628 118.376 204.075 119.057 203.309C119.27 203.096 119.44 202.99 119.61 202.99ZM114.973 196.076C113.292 196.076 112.015 197.522 112.015 199.714C112.015 200.011 112.037 200.288 112.079 200.565L116.994 199.033C117.377 198.926 117.483 198.82 117.483 198.458C117.483 197.395 116.483 196.076 114.973 196.076Z" fill="#3DADFF"/>
<path d="M108.646 194.99C109.539 194.99 110.156 195.437 110.156 195.969C110.156 196.288 110.029 196.82 109.773 197.756C109.667 198.118 109.497 198.33 109.199 198.33C108.922 198.33 108.795 198.096 108.667 197.756C108.391 197.096 108.114 196.777 107.667 196.777C106.646 196.777 104.88 198.415 104.88 201.394V203.415C104.88 205.138 106.54 204.457 106.54 205.33C106.54 205.521 106.391 205.755 106.072 205.755C105.54 205.755 104.795 205.691 103.923 205.691C103.178 205.691 102.583 205.755 102.136 205.755C101.774 205.755 101.625 205.521 101.625 205.33C101.625 204.521 102.966 205.138 102.966 203.415V198.203C102.966 196.884 101.455 197.607 101.455 196.777C101.455 196.437 101.838 196.203 102.944 195.671C104.029 195.139 104.263 195.075 104.434 195.075C104.774 195.075 104.88 195.352 104.88 195.82V198.011C105.582 196.203 107.135 194.99 108.646 194.99Z" fill="#3DADFF"/>
<path d="M100.704 202.99C100.938 202.99 101.13 203.203 101.13 203.479C101.13 203.607 101.066 203.777 100.938 203.99C100.151 205.117 98.3001 206.075 96.4493 206.075C93.5559 206.075 91.1094 204.054 91.1094 200.501C91.1094 197.161 93.5559 194.842 96.3429 194.842C98.9597 194.842 100.704 196.842 100.704 198.926C100.704 199.373 100.577 199.501 100.257 199.607L93.4283 201.65C94.0027 203.394 95.3855 204.628 97.1513 204.628C98.4065 204.628 99.4702 204.075 100.151 203.309C100.364 203.096 100.534 202.99 100.704 202.99ZM96.0663 196.076C94.3856 196.076 93.1092 197.522 93.1092 199.714C93.1092 200.011 93.1305 200.288 93.173 200.565L98.0874 199.033C98.4703 198.926 98.5767 198.82 98.5767 198.458C98.5767 197.395 97.5768 196.076 96.0663 196.076Z" fill="#3DADFF"/>
<path d="M89.7121 203.204C89.9887 205.204 91.2652 204.502 91.2652 205.352C91.2652 205.629 91.0099 205.757 90.6908 205.757C90.1164 205.757 89.6909 205.693 88.8399 205.693C87.9464 205.693 87.5847 205.757 87.0103 205.757C86.6274 205.757 86.3933 205.565 86.3933 205.31C86.3933 204.544 87.8187 205.055 87.8187 203.757C87.8187 203.587 87.7974 203.374 87.7762 203.204L87.2656 199.502C87.0954 198.417 86.6912 196.63 85.0318 196.63C83.7553 196.63 82.3725 197.651 82.3725 199.821V203.417C82.3725 205.14 83.734 204.523 83.734 205.331C83.734 205.523 83.6064 205.757 83.2873 205.757C82.8192 205.757 82.181 205.693 81.4151 205.693C80.6705 205.693 80.0748 205.757 79.6068 205.757C79.2664 205.757 79.1175 205.523 79.1175 205.331C79.1175 204.523 80.4578 205.14 80.4578 203.417V192.737C80.4578 191.418 78.9473 192.141 78.9473 191.311C78.9473 190.971 79.3089 190.716 80.4365 190.184C81.5215 189.673 81.7342 189.609 81.9682 189.609C82.2661 189.609 82.3725 189.865 82.3725 190.163V197.077C83.0532 195.97 84.1595 195.013 85.7764 195.013C88.3506 195.013 88.9463 197.481 89.1803 199.225L89.7121 203.204Z" fill="#3DADFF"/>
<path d="M78.8068 203.436C79.0621 203.436 79.2323 203.649 79.2323 203.904C79.2323 204.16 79.0834 204.436 78.8068 204.734C78.0409 205.543 76.9985 205.925 75.8497 205.925C74.2115 205.925 73.0627 205.011 73.0627 203.926C73.0627 203.479 73.1053 201.841 73.1053 200.373V196.373H71.7224C71.3395 196.373 71.1055 196.203 71.1055 195.884C71.1055 195.607 71.3182 195.437 71.6586 195.288C72.9351 194.756 73.5095 193.991 73.9988 192.055C74.1903 191.501 74.3179 191.246 74.637 191.246C74.871 191.246 75.02 191.416 75.02 191.799V195.246H78.6579C78.8919 195.246 79.0196 195.352 79.0196 195.544C79.0196 195.692 78.977 195.905 78.9557 196.033C78.9132 196.267 78.7856 196.373 78.5728 196.373H75.02V202.543C75.02 204.117 75.6369 204.585 76.5092 204.585C77.3814 204.585 77.8707 204.075 78.2962 203.713C78.4239 203.585 78.6154 203.436 78.8068 203.436Z" fill="#3DADFF"/>
<path d="M66.8596 203.436C67.1149 203.436 67.285 203.649 67.285 203.904C67.285 204.16 67.1361 204.436 66.8596 204.734C66.0937 205.543 65.0512 205.925 63.9024 205.925C62.2643 205.925 61.1155 205.011 61.1155 203.926C61.1155 203.479 61.158 201.841 61.158 200.373V196.373H59.7752C59.3922 196.373 59.1582 196.203 59.1582 195.884C59.1582 195.607 59.3709 195.437 59.7113 195.288C60.9878 194.756 61.5622 193.991 62.0515 192.055C62.243 191.501 62.3706 191.246 62.6898 191.246C62.9238 191.246 63.0727 191.416 63.0727 191.799V195.246H66.7106C66.9447 195.246 67.0723 195.352 67.0723 195.544C67.0723 195.692 67.0298 195.905 67.0085 196.033C66.9659 196.267 66.8383 196.373 66.6255 196.373H63.0727V202.543C63.0727 204.117 63.6897 204.585 64.5619 204.585C65.4342 204.585 65.9235 204.075 66.349 203.713C66.4766 203.585 66.6681 203.436 66.8596 203.436Z" fill="#3DADFF"/>
<path d="M54.413 194.947C57.1574 194.947 59.1572 197.16 59.1572 200.351C59.1572 203.819 56.7957 205.967 53.9662 205.967C52.3281 205.967 51.2857 205.414 50.5836 204.819V207.223C50.5836 208.925 52.1579 208.265 52.1579 209.116C52.1579 209.308 52.009 209.542 51.6899 209.542C51.1793 209.542 50.456 209.478 49.6263 209.478C48.8816 209.478 48.286 209.542 47.8392 209.542C47.4988 209.542 47.3499 209.308 47.3499 209.116C47.3499 208.329 48.6689 208.946 48.6689 207.223V198.202C48.6689 196.883 47.1797 197.607 47.1797 196.777C47.1797 196.436 47.5414 196.202 48.6476 195.671C49.7326 195.139 49.9028 195.075 50.1368 195.075C50.5198 195.075 50.5836 195.479 50.5836 195.82V196.99C51.3495 195.798 52.6472 194.947 54.413 194.947ZM53.8599 204.84C55.6895 204.84 57.1361 203.521 57.1361 200.925C57.1361 198.351 55.732 196.415 53.6897 196.415C52.1154 196.415 50.5836 197.628 50.5836 199.84V201.393C50.5836 203.542 51.9877 204.84 53.8599 204.84Z" fill="#3DADFF"/>
<path d="M46.5557 202.99C46.7897 202.99 46.9812 203.203 46.9812 203.479C46.9812 203.607 46.9174 203.777 46.7897 203.99C46.0026 205.117 44.1517 206.075 42.3008 206.075C39.4075 206.075 36.9609 204.054 36.9609 200.501C36.9609 197.161 39.4075 194.842 42.1945 194.842C44.8112 194.842 46.5557 196.842 46.5557 198.926C46.5557 199.373 46.4281 199.501 46.109 199.607L39.2799 201.65C39.8543 203.394 41.2371 204.628 43.0029 204.628C44.2581 204.628 45.3218 204.075 46.0026 203.309C46.2153 203.096 46.3855 202.99 46.5557 202.99ZM41.9179 196.076C40.2372 196.076 38.9607 197.522 38.9607 199.714C38.9607 200.011 38.982 200.288 39.0246 200.565L43.939 199.033C44.3219 198.926 44.4283 198.82 44.4283 198.458C44.4283 197.395 43.4284 196.076 41.9179 196.076Z" fill="#3DADFF"/>
<path d="M32.2226 206.075C29.457 206.075 27.0742 204.139 27.0742 200.607C27.0742 197.182 29.4782 194.863 32.4141 194.863C34.5628 194.863 36.3286 196.14 36.3286 197.012C36.3286 197.416 36.1159 198.076 35.4564 198.884C35.2436 199.118 35.0947 199.267 34.8819 199.267C34.6054 199.267 34.4565 199.033 34.3926 198.629C34.1161 197.097 33.5842 195.927 32.0312 195.927C30.3505 195.927 29.1166 197.523 29.1166 199.948C29.1166 202.65 30.8398 204.607 32.9885 204.607C34.0948 204.607 35.0521 204.139 35.7542 203.245C35.9457 203.011 36.0946 202.926 36.2648 202.926C36.4988 202.926 36.669 203.097 36.669 203.394C36.669 203.565 36.5839 203.756 36.4775 203.947C35.8393 205.075 34.1586 206.075 32.2226 206.075Z" fill="#3DADFF"/>
<path d="M25.6402 203.757C26.4486 204.757 27.5336 204.736 27.5336 205.331C27.5336 205.608 27.3209 205.757 27.0443 205.757C26.4912 205.757 26.0231 205.693 25.1722 205.693C24.3424 205.693 23.7255 205.757 23.2787 205.757C22.9383 205.757 22.7256 205.629 22.7256 205.331C22.7256 204.714 23.6617 204.97 23.6617 204.246C23.6617 203.948 23.4064 203.629 23.1724 203.332L21.4704 201.204L19.6408 203.438C19.3642 203.757 19.2153 204.012 19.2153 204.268C19.2153 204.948 20.2152 204.693 20.2152 205.331C20.2152 205.629 20.0025 205.757 19.6621 205.757C19.2366 205.757 18.6409 205.693 18.0452 205.693C17.4708 205.693 16.9177 205.757 16.4071 205.757C16.1092 205.757 15.8965 205.629 15.8965 205.353C15.8965 204.693 17.0028 204.778 17.7686 203.885L20.7471 200.311L18.2367 197.162C17.4282 196.162 16.3432 196.183 16.3432 195.588C16.3432 195.311 16.556 195.162 16.8538 195.162C17.407 195.162 17.8963 195.226 18.726 195.226C19.577 195.226 20.1301 195.162 20.5981 195.162C20.9385 195.162 21.1513 195.29 21.1513 195.588C21.1513 196.205 20.2152 195.949 20.2152 196.673C20.2152 196.97 20.4705 197.29 20.7045 197.587L22.0874 199.332L23.6191 197.481C23.8957 197.162 24.0659 196.907 24.0659 196.651C24.0659 195.971 23.066 196.226 23.066 195.609C23.066 195.311 23.2575 195.162 23.5978 195.162C24.0446 195.162 24.5765 195.226 25.1509 195.226C25.7253 195.226 26.321 195.162 26.8528 195.162C27.1294 195.162 27.3421 195.311 27.3421 195.566C27.3421 196.226 26.2572 196.141 25.5338 196.97L22.8107 200.225L25.6402 203.757Z" fill="#3DADFF"/>
<path d="M16.0772 202.99C16.3112 202.99 16.5027 203.203 16.5027 203.479C16.5027 203.607 16.4389 203.777 16.3112 203.99C15.5241 205.117 13.6732 206.075 11.8223 206.075C8.92899 206.075 6.48242 204.054 6.48242 200.501C6.48242 197.161 8.92899 194.842 11.7159 194.842C14.3327 194.842 16.0772 196.842 16.0772 198.926C16.0772 199.373 15.9496 199.501 15.6304 199.607L8.80134 201.65C9.37575 203.394 10.7586 204.628 12.5244 204.628C13.7796 204.628 14.8433 204.075 15.5241 203.309C15.7368 203.096 15.907 202.99 16.0772 202.99ZM11.4394 196.076C9.75869 196.076 8.48222 197.522 8.48222 199.714C8.48222 200.011 8.5035 200.288 8.54605 200.565L13.4604 199.033C13.8434 198.926 13.9498 198.82 13.9498 198.458C13.9498 197.395 12.9499 196.076 11.4394 196.076Z" fill="#3DADFF"/>
<path d="M352.456 222.397C355.285 222.397 357.264 224.524 357.264 227.736C357.264 231.204 354.817 233.417 351.902 233.417C350.179 233.417 349.307 232.736 348.669 232.736C348.052 232.736 347.499 233.353 347.094 233.353C346.797 233.353 346.626 233.119 346.626 232.8V220.184C346.626 218.865 344.988 219.588 344.988 218.759C344.988 218.418 345.35 218.163 346.52 217.631C347.584 217.12 347.86 217.057 348.116 217.057C348.413 217.057 348.541 217.333 348.541 217.61V224.439C349.35 223.269 350.669 222.397 352.456 222.397ZM351.902 232.289C353.753 232.289 355.243 231.034 355.243 228.417C355.243 225.843 353.817 223.864 351.732 223.864C350.094 223.864 348.541 225.077 348.541 227.29V228.843C348.541 230.97 349.967 232.289 351.902 232.289Z" fill="#3DADFF"/>
<path d="M344.919 230.437C345.153 230.437 345.344 230.65 345.344 230.926C345.344 231.054 345.281 231.224 345.153 231.437C344.366 232.565 342.515 233.522 340.664 233.522C337.771 233.522 335.324 231.501 335.324 227.948C335.324 224.608 337.771 222.289 340.558 222.289C343.174 222.289 344.919 224.289 344.919 226.374C344.919 226.821 344.791 226.948 344.472 227.055L337.643 229.097C338.218 230.841 339.6 232.075 341.366 232.075C342.621 232.075 343.685 231.522 344.366 230.756C344.579 230.544 344.749 230.437 344.919 230.437ZM340.281 223.523C338.6 223.523 337.324 224.97 337.324 227.161C337.324 227.459 337.345 227.735 337.388 228.012L342.302 226.48C342.685 226.374 342.792 226.267 342.792 225.906C342.792 224.842 341.792 223.523 340.281 223.523Z" fill="#3DADFF"/>
<path d="M326.95 233.436C326.61 233.436 326.44 233.075 326.291 232.755L325.653 231.394C325.27 230.607 325.078 230.309 325.078 230.032C325.078 229.734 325.248 229.586 325.504 229.586C325.716 229.586 325.95 229.777 326.163 229.99C327.525 231.351 329.014 232.287 330.588 232.287C331.992 232.287 332.865 231.5 332.865 230.522C332.865 229.33 331.694 229.075 329.759 228.628C327.695 228.118 325.376 227.458 325.376 225.352C325.376 223.735 326.801 222.459 328.95 222.459C330.141 222.459 331.056 222.842 331.397 222.842C331.758 222.842 331.758 222.416 332.163 222.416C332.524 222.416 332.716 222.735 332.95 223.139L333.652 224.288C333.886 224.671 334.12 225.118 334.12 225.352C334.12 225.607 333.928 225.777 333.716 225.777C333.503 225.777 333.269 225.565 333.056 225.373C331.971 224.373 330.524 223.544 329.142 223.544C328.014 223.544 327.312 224.118 327.312 224.905C327.312 225.99 328.312 226.224 330.418 226.735C332.631 227.288 334.801 227.926 334.801 230.202C334.801 232.138 333.077 233.372 330.631 233.372C329.184 233.372 328.205 232.904 327.865 232.904C327.461 232.904 327.418 233.436 326.95 233.436Z" fill="#3DADFF"/>
<path d="M318.907 230.289C318.907 231.587 320.482 231.119 320.482 231.927C320.482 232.289 320.077 232.502 318.886 232.927C317.865 233.31 317.588 233.374 317.439 233.374C316.993 233.374 316.993 232.885 316.993 232.608V231.438C316.206 232.587 314.887 233.417 313.163 233.417C310.589 233.417 308.334 231.417 308.334 228.056C308.334 224.737 310.632 222.397 313.653 222.397C315.099 222.397 316.227 222.907 316.993 223.652V220.163C316.993 218.844 315.269 219.588 315.269 218.716C315.269 218.376 315.652 218.163 316.844 217.631C317.886 217.163 318.29 217.057 318.439 217.057C318.801 217.057 318.907 217.397 318.907 217.801V230.289ZM313.908 231.949C315.376 231.949 316.993 230.906 316.993 228.715V227.375C316.993 224.949 315.142 223.503 313.567 223.503C311.525 223.503 310.355 225.226 310.355 227.439C310.355 230.289 312.163 231.949 313.908 231.949Z" fill="#3DADFF"/>
<path d="M306.921 230.65C307.176 232.649 308.474 231.947 308.474 232.777C308.474 233.075 308.219 233.203 307.878 233.203C307.325 233.203 306.878 233.139 306.027 233.139C305.155 233.139 304.772 233.203 304.198 233.203C303.815 233.203 303.602 233.011 303.602 232.756C303.602 231.99 305.027 232.501 305.027 231.182C305.027 231.011 304.985 230.756 304.964 230.543L304.453 226.948C304.283 225.863 303.9 224.076 302.219 224.076C300.943 224.076 299.56 225.097 299.56 227.267V230.862C299.56 232.586 300.943 231.969 300.943 232.777C300.943 232.969 300.794 233.203 300.475 233.203C300.007 233.203 299.368 233.139 298.603 233.139C297.858 233.139 297.262 233.203 296.816 233.203C296.454 233.203 296.305 232.969 296.305 232.777C296.305 231.969 297.645 232.586 297.645 230.862V225.65C297.645 224.331 296.135 225.054 296.135 224.225C296.135 223.884 296.518 223.65 297.624 223.118C298.709 222.587 298.943 222.523 299.113 222.523C299.454 222.523 299.56 222.799 299.56 223.267V224.523C300.241 223.416 301.347 222.459 302.985 222.459C305.517 222.459 306.134 224.927 306.368 226.671L306.921 230.65Z" fill="#3DADFF"/>
<path d="M296.244 231.947C296.478 231.99 296.584 232.096 296.584 232.266C296.584 232.671 295.776 233.309 294.776 233.309C293.903 233.309 293.138 232.798 292.818 231.692C291.989 232.671 290.606 233.373 288.925 233.373C286.734 233.373 285.309 232.075 285.309 230.203C285.309 228.352 286.925 226.863 289.627 226.863C290.563 226.863 291.372 227.033 292.159 227.267L292.116 226.99C291.797 224.629 290.968 223.905 289.563 223.905C288.606 223.905 287.734 224.416 286.968 225.118C286.755 225.288 286.585 225.373 286.436 225.373C286.223 225.373 286.011 225.203 286.011 224.948C286.011 224.735 286.138 224.544 286.351 224.267C287.053 223.288 288.606 222.438 290.202 222.438C292.946 222.438 293.627 224.331 293.925 226.395L294.457 229.969C294.669 231.564 295.137 231.734 296.244 231.947ZM289.563 232.096C290.819 232.096 291.989 231.33 292.606 230.479L292.308 228.373C291.585 228.097 290.797 227.948 290.053 227.948C288.266 227.948 287.33 228.756 287.33 230.032C287.33 231.245 288.244 232.096 289.563 232.096Z" fill="#3DADFF"/>
<path d="M281.492 231.947C281.726 231.99 281.832 232.096 281.832 232.266C281.832 232.671 281.024 233.309 280.024 233.309C279.152 233.309 278.386 232.798 278.067 231.692C277.237 232.671 275.854 233.373 274.173 233.373C271.982 233.373 270.557 232.075 270.557 230.203C270.557 228.352 272.173 226.863 274.875 226.863C275.811 226.863 276.62 227.033 277.407 227.267L277.364 226.99C277.045 224.629 276.216 223.905 274.812 223.905C273.854 223.905 272.982 224.416 272.216 225.118C272.003 225.288 271.833 225.373 271.684 225.373C271.471 225.373 271.259 225.203 271.259 224.948C271.259 224.735 271.386 224.544 271.599 224.267C272.301 223.288 273.854 222.438 275.45 222.438C278.194 222.438 278.875 224.331 279.173 226.395L279.705 229.969C279.917 231.564 280.385 231.734 281.492 231.947ZM274.812 232.096C276.067 232.096 277.237 231.33 277.854 230.479L277.556 228.373C276.833 228.097 276.045 227.948 275.301 227.948C273.514 227.948 272.578 228.756 272.578 230.032C272.578 231.245 273.493 232.096 274.812 232.096Z" fill="#3DADFF"/>
<path d="M269.251 230.65C269.506 232.649 270.804 231.947 270.804 232.777C270.804 233.075 270.549 233.203 270.208 233.203C269.655 233.203 269.208 233.139 268.357 233.139C267.485 233.139 267.102 233.203 266.528 233.203C266.145 233.203 265.932 233.011 265.932 232.756C265.932 231.99 267.358 232.501 267.358 231.182C267.358 231.011 267.315 230.756 267.294 230.543L266.783 226.948C266.613 225.863 266.23 224.076 264.549 224.076C263.273 224.076 261.89 225.097 261.89 227.267V230.862C261.89 232.586 263.273 231.969 263.273 232.777C263.273 232.969 263.124 233.203 262.805 233.203C262.337 233.203 261.699 233.139 260.933 233.139C260.188 233.139 259.592 233.203 259.146 233.203C258.784 233.203 258.635 232.969 258.635 232.777C258.635 231.969 259.975 232.586 259.975 230.862V225.65C259.975 224.331 258.465 225.054 258.465 224.225C258.465 223.884 258.848 223.65 259.954 223.118C261.039 222.587 261.273 222.523 261.443 222.523C261.784 222.523 261.89 222.799 261.89 223.267V224.523C262.571 223.416 263.677 222.459 265.315 222.459C267.847 222.459 268.464 224.927 268.698 226.671L269.251 230.65Z" fill="#3DADFF"/>
<path d="M255.183 220.246C254.608 220.246 254.055 219.863 254.055 219.161C254.055 218.353 254.864 217.459 255.927 217.459C256.566 217.459 257.119 217.863 257.119 218.544C257.119 219.352 256.246 220.246 255.183 220.246ZM253.991 233.202C253.63 233.202 253.481 232.968 253.481 232.777C253.481 231.968 254.821 232.585 254.821 230.862V225.65C254.821 224.331 253.311 225.054 253.311 224.224C253.311 223.884 253.693 223.65 254.8 223.118C255.885 222.586 256.119 222.522 256.289 222.522C256.629 222.522 256.736 222.799 256.736 223.267V230.862C256.736 232.585 258.119 231.968 258.119 232.777C258.119 232.968 257.97 233.202 257.651 233.202C257.182 233.202 256.544 233.138 255.778 233.138C255.034 233.138 254.438 233.202 253.991 233.202Z" fill="#3DADFF"/>
<path d="M252.959 230.884C253.214 230.884 253.385 231.096 253.385 231.352C253.385 231.607 253.236 231.884 252.959 232.181C252.193 232.99 251.151 233.373 250.002 233.373C248.364 233.373 247.215 232.458 247.215 231.373C247.215 230.926 247.258 229.288 247.258 227.82V223.821H245.875C245.492 223.821 245.258 223.65 245.258 223.331C245.258 223.055 245.471 222.884 245.811 222.736C247.087 222.204 247.662 221.438 248.151 219.502C248.343 218.949 248.47 218.693 248.789 218.693C249.023 218.693 249.172 218.864 249.172 219.246V222.693H252.81C253.044 222.693 253.172 222.799 253.172 222.991C253.172 223.14 253.129 223.352 253.108 223.48C253.066 223.714 252.938 223.821 252.725 223.821H249.172V229.99C249.172 231.564 249.789 232.032 250.662 232.032C251.534 232.032 252.023 231.522 252.449 231.16C252.576 231.033 252.768 230.884 252.959 230.884Z" fill="#3DADFF"/>
<path d="M241.616 222.607C241.914 222.607 242.127 222.756 242.127 223.012C242.127 223.671 241.021 223.48 240.51 224.692L236.532 234.074C235.702 236.053 234.532 237.202 232.979 237.202C232.319 237.202 231.724 237.01 231.511 236.734C231.213 236.329 230.851 234.989 230.851 234.436C230.851 234.117 231.022 233.862 231.298 233.862C231.532 233.862 231.638 233.989 231.83 234.266C232.447 235.223 232.936 235.691 233.489 235.691C234.213 235.691 234.893 234.862 235.468 233.457L235.596 233.138L231.851 224.735C231.298 223.48 230.234 223.671 230.234 223.012C230.234 222.735 230.447 222.607 230.724 222.607C231.277 222.607 231.851 222.671 232.766 222.671C233.574 222.671 234.17 222.607 234.638 222.607C234.979 222.607 235.191 222.756 235.191 223.054C235.191 223.756 233.957 223.48 233.957 224.458C233.957 224.628 234.043 225.075 234.277 225.628L236.595 231.053L238.808 225.628C239.021 225.054 239.17 224.692 239.17 224.373C239.17 223.501 237.872 223.756 237.872 223.054C237.872 222.756 238.085 222.607 238.425 222.607C238.851 222.607 239.425 222.671 239.978 222.671C240.574 222.671 241.084 222.607 241.616 222.607Z" fill="#3DADFF"/>
<path d="M225.815 222.397C228.644 222.397 230.623 224.524 230.623 227.736C230.623 231.204 228.176 233.417 225.262 233.417C223.539 233.417 222.666 232.736 222.028 232.736C221.411 232.736 220.858 233.353 220.454 233.353C220.156 233.353 219.986 233.119 219.986 232.8V220.184C219.986 218.865 218.348 219.588 218.348 218.759C218.348 218.418 218.709 218.163 219.879 217.631C220.943 217.12 221.22 217.057 221.475 217.057C221.773 217.057 221.9 217.333 221.9 217.61V224.439C222.709 223.269 224.028 222.397 225.815 222.397ZM225.262 232.289C227.113 232.289 228.602 231.034 228.602 228.417C228.602 225.843 227.177 223.864 225.092 223.864C223.454 223.864 221.9 225.077 221.9 227.29V228.843C221.9 230.97 223.326 232.289 225.262 232.289Z" fill="#3DADFF"/>
<path d="M211.569 231.159C213.632 231.351 214.866 232.266 214.866 233.776C214.866 235.755 212.569 237.159 209.143 237.159C205.782 237.159 203.484 236.074 203.484 234.457C203.484 233.563 204.123 232.755 205.229 232.244C204.399 231.968 203.974 231.393 203.974 230.713C203.974 229.926 204.74 229.223 205.505 228.734C204.506 228.138 203.91 227.224 203.91 226.054C203.91 224.033 205.697 222.331 208.909 222.331C209.25 222.331 209.59 222.352 209.909 222.394C210.186 220.522 211.377 219.607 212.037 219.607C212.611 219.607 213.1 219.799 213.696 220.161C213.951 220.331 214.164 220.522 214.164 220.778C214.164 221.033 213.994 221.246 213.568 221.246C212.356 221.246 211.186 221.373 210.888 222.586C212.59 223.075 213.632 224.203 213.632 225.756C213.632 227.734 211.888 229.458 208.654 229.458C207.846 229.458 207.122 229.351 206.484 229.16C206.08 229.415 205.697 229.67 205.697 230.053C205.697 230.415 206.037 230.564 206.846 230.649C208.76 230.883 210.845 231.074 211.569 231.159ZM208.675 223.394C207.08 223.394 205.931 224.33 205.931 225.798C205.931 227.394 207.186 228.394 208.867 228.394C210.462 228.394 211.611 227.479 211.611 225.99C211.611 224.415 210.335 223.394 208.675 223.394ZM209.228 236.116C211.547 236.116 212.973 235.223 212.973 234.351C212.973 233.585 212.271 233.138 210.824 232.968C209.356 232.819 207.973 232.67 206.569 232.5C205.91 232.84 205.357 233.457 205.357 234.244C205.357 235.499 206.761 236.116 209.228 236.116Z" fill="#3DADFF"/>
<path d="M202.243 230.65C202.498 232.649 203.796 231.947 203.796 232.777C203.796 233.075 203.541 233.203 203.201 233.203C202.647 233.203 202.201 233.139 201.35 233.139C200.477 233.139 200.094 233.203 199.52 233.203C199.137 233.203 198.924 233.011 198.924 232.756C198.924 231.99 200.35 232.501 200.35 231.182C200.35 231.011 200.307 230.756 200.286 230.543L199.775 226.948C199.605 225.863 199.222 224.076 197.542 224.076C196.265 224.076 194.882 225.097 194.882 227.267V230.862C194.882 232.586 196.265 231.969 196.265 232.777C196.265 232.969 196.116 233.203 195.797 233.203C195.329 233.203 194.691 233.139 193.925 233.139C193.18 233.139 192.585 233.203 192.138 233.203C191.776 233.203 191.627 232.969 191.627 232.777C191.627 231.969 192.968 232.586 192.968 230.862V225.65C192.968 224.331 191.457 225.054 191.457 224.225C191.457 223.884 191.84 223.65 192.946 223.118C194.031 222.587 194.265 222.523 194.435 222.523C194.776 222.523 194.882 222.799 194.882 223.267V224.523C195.563 223.416 196.669 222.459 198.307 222.459C200.839 222.459 201.456 224.927 201.69 226.671L202.243 230.65Z" fill="#3DADFF"/>
<path d="M188.175 220.246C187.6 220.246 187.047 219.863 187.047 219.161C187.047 218.353 187.856 217.459 188.919 217.459C189.558 217.459 190.111 217.863 190.111 218.544C190.111 219.352 189.239 220.246 188.175 220.246ZM186.984 233.202C186.622 233.202 186.473 232.968 186.473 232.777C186.473 231.968 187.813 232.585 187.813 230.862V225.65C187.813 224.331 186.303 225.054 186.303 224.224C186.303 223.884 186.686 223.65 187.792 223.118C188.877 222.586 189.111 222.522 189.281 222.522C189.622 222.522 189.728 222.799 189.728 223.267V230.862C189.728 232.585 191.111 231.968 191.111 232.777C191.111 232.968 190.962 233.202 190.643 233.202C190.175 233.202 189.536 233.138 188.771 233.138C188.026 233.138 187.43 233.202 186.984 233.202Z" fill="#3DADFF"/>
<path d="M185.261 231.63C185.772 232.396 186.708 232.204 186.708 232.8C186.708 233.076 186.495 233.204 186.197 233.204C185.644 233.204 185.07 233.14 184.176 233.14C183.368 233.14 182.836 233.204 182.368 233.204C182.027 233.204 181.815 233.076 181.815 232.778C181.815 232.098 182.878 232.396 182.878 231.63C182.878 231.417 182.772 231.225 182.602 230.949L180.283 227.332L177.921 229.311V230.864C177.921 232.587 179.283 231.97 179.283 232.778C179.283 232.97 179.155 233.204 178.836 233.204C178.368 233.204 177.73 233.14 176.964 233.14C176.219 233.14 175.624 233.204 175.156 233.204C174.815 233.204 174.666 232.97 174.666 232.778C174.666 231.97 176.007 232.587 176.007 230.864V220.184C176.007 218.865 174.496 219.588 174.496 218.759C174.496 218.418 174.858 218.163 175.985 217.631C177.07 217.12 177.283 217.057 177.517 217.057C177.815 217.057 177.921 217.312 177.921 217.61V227.97L181.602 224.779C181.921 224.481 182.197 224.269 182.197 223.971C182.197 223.418 181.24 223.673 181.24 223.056C181.24 222.737 181.453 222.609 181.793 222.609C182.24 222.609 182.921 222.673 183.495 222.673C184.07 222.673 184.942 222.609 185.474 222.609C185.772 222.609 185.984 222.758 185.984 223.035C185.984 223.694 184.814 223.524 183.921 224.29L181.666 226.183L185.261 231.63Z" fill="#3DADFF"/>
<path d="M168.42 233.522C165.165 233.522 162.889 231.224 162.889 227.991C162.889 224.714 165.335 222.289 168.675 222.289C171.93 222.289 174.207 224.587 174.207 227.863C174.207 231.118 171.739 233.522 168.42 233.522ZM168.867 232.373C170.888 232.373 172.143 230.735 172.143 228.608C172.143 225.927 170.547 223.459 168.229 223.459C166.207 223.459 164.952 225.076 164.952 227.225C164.952 229.884 166.548 232.373 168.867 232.373Z" fill="#3DADFF"/>
<path d="M156.516 233.522C153.261 233.522 150.984 231.224 150.984 227.991C150.984 224.714 153.431 222.289 156.771 222.289C160.026 222.289 162.302 224.587 162.302 227.863C162.302 231.118 159.835 233.522 156.516 233.522ZM156.963 232.373C158.984 232.373 160.239 230.735 160.239 228.608C160.239 225.927 158.643 223.459 156.324 223.459C154.303 223.459 153.048 225.076 153.048 227.225C153.048 229.884 154.644 232.373 156.963 232.373Z" fill="#3DADFF"/>
<path d="M146.242 233.522C143.476 233.522 141.094 231.586 141.094 228.055C141.094 224.629 143.498 222.311 146.434 222.311C148.582 222.311 150.348 223.587 150.348 224.459C150.348 224.863 150.135 225.523 149.476 226.331C149.263 226.565 149.114 226.714 148.901 226.714C148.625 226.714 148.476 226.48 148.412 226.076C148.136 224.544 147.604 223.374 146.051 223.374C144.37 223.374 143.136 224.97 143.136 227.395C143.136 230.097 144.859 232.054 147.008 232.054C148.114 232.054 149.072 231.586 149.774 230.693C149.965 230.459 150.114 230.374 150.284 230.374C150.518 230.374 150.689 230.544 150.689 230.842C150.689 231.012 150.603 231.203 150.497 231.395C149.859 232.522 148.178 233.522 146.242 233.522Z" fill="#3DADFF"/>
<defs>
<clipPath id="clip0_116_9">
<rect width="183.497" height="87.5434" fill="white" transform="translate(87 70.2832)"/>
</clipPath>
</defs>
</svg>
