<svg width="358" height="358" viewBox="0 0 358 358" fill="none" xmlns="http://www.w3.org/2000/svg">
<path d="M179 0L196.125 137.656L305.572 52.4279L220.344 161.875L358 179L220.344 196.125L305.572 305.572L196.125 220.344L179 358L161.875 220.344L52.4279 305.572L137.656 196.125L0 179L137.656 161.875L52.4279 52.4279L161.875 137.656L179 0Z" fill="#D9D9D9"/>
<path d="M127.922 187.108C127.094 187.108 126.77 186.82 126.842 186.1L127.67 180.196C127.706 179.944 127.598 179.836 127.382 179.836H124.358C123.458 179.836 123.314 179.44 123.422 178.612C123.53 177.748 123.89 177.46 124.682 177.46H127.67C127.922 177.46 128.03 177.352 128.066 177.1L128.858 171.448C128.894 171.16 128.822 171.088 128.57 171.088H125.546C124.646 171.088 124.502 170.692 124.61 169.864C124.718 168.964 125.078 168.676 125.87 168.676H128.858C129.11 168.676 129.218 168.604 129.254 168.316L130.082 162.412C130.19 161.692 130.514 161.404 131.306 161.404C132.134 161.404 132.458 161.692 132.386 162.412L131.558 168.316C131.522 168.604 131.594 168.676 131.846 168.676H137.03C137.246 168.676 137.39 168.604 137.426 168.316L138.254 162.412C138.326 161.692 138.686 161.404 139.478 161.404C140.306 161.404 140.63 161.692 140.522 162.412L139.73 168.316C139.694 168.604 139.766 168.676 140.018 168.676H143.006C143.906 168.676 144.086 169.072 143.978 169.9C143.834 170.764 143.474 171.088 142.682 171.088H139.73C139.478 171.088 139.334 171.16 139.298 171.448L138.542 177.1C138.506 177.352 138.578 177.46 138.83 177.46H141.818C142.718 177.46 142.898 177.856 142.754 178.684C142.646 179.548 142.286 179.836 141.494 179.836H138.506C138.29 179.836 138.146 179.944 138.11 180.196L137.282 186.1C137.174 186.856 136.886 187.108 136.094 187.108C135.266 187.108 134.906 186.82 135.014 186.1L135.806 180.196C135.842 179.944 135.77 179.836 135.518 179.836H130.37C130.118 179.836 130.01 179.944 129.938 180.196L129.146 186.1C129.038 186.856 128.714 187.108 127.922 187.108ZM130.658 177.46H135.842C136.058 177.46 136.202 177.352 136.238 177.1L137.03 171.448C137.066 171.16 136.958 171.088 136.742 171.088H131.558C131.306 171.088 131.198 171.16 131.162 171.448L130.37 177.1C130.334 177.352 130.406 177.46 130.658 177.46ZM173.551 182.788C174.055 186.172 176.215 184.984 176.215 186.424C176.215 186.892 175.747 187.108 175.207 187.108C174.199 187.108 173.515 187 172.075 187C170.527 187 169.987 187.108 168.979 187.108C168.367 187.108 167.935 186.784 167.935 186.352C167.935 185.056 170.383 185.92 170.383 183.688C170.383 183.4 170.347 182.968 170.275 182.608L169.375 176.524C169.123 174.688 168.691 171.664 165.883 171.664C163.759 171.664 161.815 173.212 161.815 176.74V183.148C161.815 186.064 164.191 185.02 164.191 186.388C164.191 186.712 163.903 187.108 163.363 187.108C162.571 187.108 161.527 187 160.195 187C158.935 187 157.963 187.108 157.171 187.108C156.595 187.108 156.307 186.712 156.307 186.388C156.307 185.02 158.575 186.064 158.575 183.148V176.524C158.575 174.436 158.107 171.664 155.263 171.664C153.103 171.664 150.763 173.32 150.763 177.028V183.148C150.763 186.064 153.103 185.02 153.103 186.388C153.103 186.712 152.851 187.108 152.311 187.108C151.519 187.108 150.475 187 149.143 187C147.883 187 146.911 187.108 146.119 187.108C145.543 187.108 145.255 186.712 145.255 186.388C145.255 185.02 147.523 186.064 147.523 183.148V174.328C147.523 172.096 144.967 173.32 144.967 171.916C144.967 171.34 145.615 170.944 147.451 170.044C149.323 169.108 149.683 169.036 150.007 169.036C150.619 169.036 150.763 169.576 150.763 170.296V172.42C151.915 170.548 153.787 168.928 156.487 168.928C159.151 168.928 160.555 170.548 161.239 172.492C162.247 170.548 164.011 168.928 166.819 168.928C170.959 168.928 172.111 172.636 172.579 176.056L173.551 182.788ZM192.146 182.428C192.542 182.428 192.866 182.788 192.866 183.256C192.866 183.472 192.758 183.76 192.542 184.12C191.21 186.028 188.078 187.648 184.946 187.648C180.05 187.648 175.91 184.228 175.91 178.216C175.91 172.564 180.05 168.64 184.766 168.64C189.194 168.64 192.146 172.024 192.146 175.552C192.146 176.308 191.93 176.524 191.39 176.704L179.834 180.16C180.806 183.112 183.146 185.2 186.134 185.2C188.258 185.2 190.058 184.264 191.21 182.968C191.57 182.608 191.858 182.428 192.146 182.428ZM184.298 170.728C181.454 170.728 179.294 173.176 179.294 176.884C179.294 177.388 179.33 177.856 179.402 178.324L187.718 175.732C188.366 175.552 188.546 175.372 188.546 174.76C188.546 172.96 186.854 170.728 184.298 170.728ZM211.667 182.788C212.099 186.172 214.295 184.984 214.295 186.388C214.295 186.892 213.863 187.108 213.287 187.108C212.351 187.108 211.595 187 210.155 187C208.679 187 208.031 187.108 207.059 187.108C206.411 187.108 206.051 186.784 206.051 186.352C206.051 185.056 208.463 185.92 208.463 183.688C208.463 183.4 208.391 182.968 208.355 182.608L207.491 176.524C207.203 174.688 206.555 171.664 203.711 171.664C201.551 171.664 199.211 173.392 199.211 177.064V183.148C199.211 186.064 201.551 185.02 201.551 186.388C201.551 186.712 201.299 187.108 200.759 187.108C199.967 187.108 198.887 187 197.591 187C196.331 187 195.323 187.108 194.567 187.108C193.955 187.108 193.703 186.712 193.703 186.388C193.703 185.02 195.971 186.064 195.971 183.148V174.328C195.971 172.096 193.415 173.32 193.415 171.916C193.415 171.34 194.063 170.944 195.935 170.044C197.771 169.144 198.167 169.036 198.455 169.036C199.031 169.036 199.211 169.504 199.211 170.296V172.42C200.363 170.548 202.235 168.928 205.007 168.928C209.291 168.928 210.335 173.104 210.731 176.056L211.667 182.788ZM231.341 182.356C231.341 184.552 234.293 184.012 234.293 185.2C234.293 185.884 233.645 186.244 231.377 186.784C229.793 187.18 229.217 187.288 228.857 187.288C228.209 187.288 228.101 186.64 228.101 186.064V183.976C226.949 185.848 225.113 187.432 222.017 187.432C217.949 187.432 216.005 184.696 216.005 180.448V174.22C216.005 172.06 213.125 172.888 213.125 171.592C213.125 170.944 213.737 170.584 215.861 169.792C217.697 169.108 218.165 169.036 218.417 169.036C219.173 169.036 219.245 169.756 219.245 170.332V179.944C219.245 182.824 220.037 184.804 223.097 184.804C225.581 184.804 228.101 182.968 228.101 179.332V174.22C228.101 172.06 224.933 172.96 224.933 171.592C224.933 170.98 225.581 170.62 227.957 169.756C229.685 169.144 230.297 169.036 230.585 169.036C231.233 169.036 231.341 169.684 231.341 170.332V182.356Z" fill="#1F4F71"/>
</svg>
