<svg width="352" height="639" viewBox="0 0 352 639" fill="none" xmlns="http://www.w3.org/2000/svg">
<g clip-path="url(#clip0_127_243)">
<path d="M76.3823 110.968L265.192 216.084L262.678 0L339.747 201.889L476.717 34.743L405.984 238.938L618.349 198.939L432.91 309.895L621.302 415.76L407.926 381.559L484.194 583.752L342.723 420.398L271.18 624.31L267.809 408.238L81.9313 518.457L218.238 350.769L5 315.722L217.204 274.882L76.3823 110.968Z" fill="#D9D9D9"/>
<path d="M296.383 186.422C296.383 185.782 297.063 185.462 297.663 185.182L300.223 183.982C301.703 183.262 302.263 182.902 302.783 182.902C303.343 182.902 303.623 183.222 303.623 183.702C303.623 184.102 303.263 184.542 302.863 184.942C300.303 187.502 298.543 190.302 298.543 193.262C298.543 195.902 300.023 197.542 301.863 197.542C304.103 197.542 304.583 195.342 305.423 191.702C306.383 187.822 307.623 183.462 311.583 183.462C314.623 183.462 317.023 186.142 317.023 190.182C317.023 192.422 316.303 194.142 316.303 194.782C316.303 195.462 317.103 195.462 317.103 196.222C317.103 196.902 316.503 197.262 315.743 197.702L313.583 199.022C312.863 199.462 312.023 199.902 311.583 199.902C311.103 199.902 310.783 199.542 310.783 199.142C310.783 198.742 311.183 198.302 311.543 197.902C313.423 195.862 314.983 193.142 314.983 190.542C314.983 188.422 313.903 187.102 312.423 187.102C310.383 187.102 309.943 188.982 308.983 192.942C307.943 197.102 306.743 201.182 302.463 201.182C298.823 201.182 296.503 197.942 296.503 193.342C296.503 190.622 297.383 188.782 297.383 188.142C297.383 187.382 296.383 187.302 296.383 186.422ZM321.183 205.525C321.183 204.445 321.903 203.405 323.223 203.405C324.743 203.405 326.423 204.925 326.423 206.925C326.423 208.125 325.663 209.165 324.383 209.165C322.863 209.165 321.183 207.525 321.183 205.525ZM296.823 203.285C296.823 202.605 297.263 202.325 297.623 202.325C299.143 202.325 297.983 204.845 301.223 204.845H311.023C313.503 204.845 312.143 202.005 313.703 202.005C314.343 202.005 314.783 202.725 315.783 204.805C316.783 206.845 316.903 207.285 316.903 207.605C316.903 208.245 316.383 208.445 315.503 208.445H301.223C297.983 208.445 299.143 211.045 297.623 211.045C297.263 211.045 296.823 210.765 296.823 210.165C296.823 209.285 296.943 208.085 296.943 206.645C296.943 205.245 296.823 204.125 296.823 203.285ZM301.183 225.174C301.183 225.654 300.783 225.974 300.303 225.974C299.823 225.974 299.303 225.694 298.743 225.174C297.223 223.734 296.503 221.774 296.503 219.614C296.503 216.534 298.223 214.374 300.263 214.374C301.103 214.374 304.183 214.454 306.943 214.454H314.463V211.854C314.463 211.134 314.783 210.694 315.383 210.694C315.903 210.694 316.223 211.094 316.503 211.734C317.503 214.134 318.943 215.214 322.583 216.134C323.623 216.494 324.103 216.734 324.103 217.334C324.103 217.774 323.783 218.054 323.063 218.054H316.583V224.894C316.583 225.334 316.383 225.574 316.023 225.574C315.743 225.574 315.343 225.494 315.103 225.454C314.663 225.374 314.463 225.134 314.463 224.734V218.054H302.863C299.903 218.054 299.023 219.214 299.023 220.854C299.023 222.494 299.983 223.414 300.663 224.214C300.903 224.454 301.183 224.814 301.183 225.174ZM302.023 243.802C302.023 244.242 301.623 244.602 301.103 244.602C300.863 244.602 300.543 244.482 300.143 244.242C298.023 242.762 296.223 239.282 296.223 235.802C296.223 230.362 300.023 225.762 306.703 225.762C312.983 225.762 317.343 230.362 317.343 235.602C317.343 240.522 313.583 243.802 309.663 243.802C308.823 243.802 308.583 243.562 308.383 242.962L304.543 230.122C301.263 231.202 298.943 233.802 298.943 237.122C298.943 239.482 299.983 241.482 301.423 242.762C301.823 243.162 302.023 243.482 302.023 243.802ZM315.023 235.082C315.023 231.922 312.303 229.522 308.183 229.522C307.623 229.522 307.103 229.562 306.583 229.642L309.463 238.882C309.663 239.602 309.863 239.802 310.543 239.802C312.543 239.802 315.023 237.922 315.023 235.082ZM301.623 273.815C297.863 274.295 299.183 276.735 297.623 276.735C297.063 276.735 296.823 276.255 296.823 275.615C296.823 274.575 296.943 273.735 296.943 272.135C296.943 270.495 296.823 269.775 296.823 268.695C296.823 267.975 297.183 267.575 297.663 267.575C299.103 267.575 298.143 270.255 300.623 270.255C300.943 270.255 301.423 270.175 301.823 270.135L308.583 269.175C310.623 268.855 313.983 268.135 313.983 264.975C313.983 262.575 312.063 259.975 307.983 259.975H301.223C297.983 259.975 299.143 262.575 297.623 262.575C297.263 262.575 296.823 262.295 296.823 261.695C296.823 260.815 296.943 259.615 296.943 258.175C296.943 256.775 296.823 255.655 296.823 254.815C296.823 254.135 297.263 253.855 297.623 253.855C299.143 253.855 297.983 256.375 301.223 256.375H311.023C313.503 256.375 312.143 253.535 313.703 253.535C314.343 253.535 314.783 254.255 315.783 256.335C316.783 258.375 316.903 258.815 316.903 259.135C316.903 259.775 316.383 259.975 315.503 259.975H313.143C315.223 261.255 317.023 263.335 317.023 266.415C317.023 271.175 312.383 272.335 309.103 272.775L301.623 273.815ZM299.183 296.83C299.103 297.27 298.903 297.47 298.583 297.47C297.823 297.47 296.623 295.95 296.623 294.07C296.623 292.43 297.583 290.99 299.663 290.39C297.823 288.83 296.503 286.23 296.503 283.07C296.503 278.95 298.943 276.27 302.463 276.27C305.943 276.27 308.743 279.31 308.743 284.39C308.743 286.15 308.423 287.67 307.983 289.15L308.503 289.07C312.943 288.47 314.303 286.91 314.303 284.27C314.303 282.47 313.343 280.83 312.023 279.39C311.703 278.99 311.543 278.67 311.543 278.39C311.543 277.99 311.863 277.59 312.343 277.59C312.743 277.59 313.103 277.83 313.623 278.23C315.463 279.55 317.063 282.47 317.063 285.47C317.063 290.63 313.503 291.91 309.623 292.47L302.903 293.47C299.903 293.87 299.583 294.75 299.183 296.83ZM298.903 284.27C298.903 286.63 300.343 288.83 301.943 289.99L305.903 289.43C306.423 288.07 306.703 286.59 306.703 285.19C306.703 281.83 305.183 280.07 302.783 280.07C300.503 280.07 298.903 281.79 298.903 284.27ZM316.743 315.497C316.743 316.057 316.463 316.457 315.983 316.457C314.703 316.457 315.103 314.377 312.983 313.497L297.983 307.217C297.023 306.817 296.743 306.457 296.743 305.297C296.743 304.097 297.063 303.737 298.023 303.337L312.903 297.057C315.143 296.137 314.703 294.097 315.983 294.097C316.503 294.097 316.743 294.497 316.743 295.057C316.743 296.097 316.623 297.137 316.623 298.857C316.623 300.377 316.743 301.497 316.743 302.377C316.743 303.017 316.463 303.417 315.903 303.417C314.583 303.417 315.103 301.097 313.263 301.097C312.943 301.097 312.103 301.257 311.063 301.697L300.383 306.017L311.063 310.217C312.143 310.617 312.823 310.897 313.423 310.897C315.063 310.897 314.583 308.457 315.903 308.457C316.463 308.457 316.743 308.857 316.743 309.497C316.743 310.297 316.623 311.337 316.623 312.417C316.623 313.497 316.743 314.497 316.743 315.497ZM321.183 319.599C321.183 318.519 321.903 317.479 323.223 317.479C324.743 317.479 326.423 318.999 326.423 320.999C326.423 322.199 325.663 323.239 324.383 323.239C322.863 323.239 321.183 321.599 321.183 319.599ZM296.823 317.359C296.823 316.679 297.263 316.399 297.623 316.399C299.143 316.399 297.983 318.919 301.223 318.919H311.023C313.503 318.919 312.143 316.079 313.703 316.079C314.343 316.079 314.783 316.799 315.783 318.879C316.783 320.919 316.903 321.359 316.903 321.679C316.903 322.319 316.383 322.519 315.503 322.519H301.223C297.983 322.519 299.143 325.119 297.623 325.119C297.263 325.119 296.823 324.839 296.823 324.239C296.823 323.359 296.943 322.159 296.943 320.719C296.943 319.319 296.823 318.199 296.823 317.359ZM300.663 340.808C300.303 344.688 298.583 347.008 295.743 347.008C292.023 347.008 289.383 342.688 289.383 336.248C289.383 329.928 291.423 325.608 294.463 325.608C296.143 325.608 297.663 326.808 298.623 328.888C299.143 327.328 300.223 326.528 301.503 326.528C302.983 326.528 304.303 327.968 305.223 329.408C306.343 327.528 308.063 326.408 310.263 326.408C314.063 326.408 317.263 329.768 317.263 335.808C317.263 336.448 317.223 337.088 317.143 337.688C320.663 338.208 322.383 340.448 322.383 341.688C322.383 342.768 322.023 343.688 321.343 344.808C321.023 345.288 320.663 345.688 320.183 345.688C319.703 345.688 319.303 345.368 319.303 344.568C319.303 342.288 319.063 340.088 316.783 339.528C315.863 342.728 313.743 344.688 310.823 344.688C307.103 344.688 303.863 341.408 303.863 335.328C303.863 333.808 304.063 332.448 304.423 331.248C303.943 330.488 303.463 329.768 302.743 329.768C302.063 329.768 301.783 330.408 301.623 331.928C301.183 335.528 300.823 339.448 300.663 340.808ZM315.263 335.368C315.263 332.368 313.503 330.208 310.743 330.208C307.743 330.208 305.863 332.568 305.863 335.728C305.863 338.728 307.583 340.888 310.383 340.888C313.343 340.888 315.263 338.488 315.263 335.368ZM291.343 336.408C291.343 340.768 293.023 343.448 294.663 343.448C296.103 343.448 296.943 342.128 297.263 339.408C297.543 336.648 297.823 334.048 298.143 331.408C297.503 330.168 296.343 329.128 294.863 329.128C292.503 329.128 291.343 331.768 291.343 336.408ZM299.183 367.031C299.103 367.471 298.903 367.671 298.583 367.671C297.823 367.671 296.623 366.151 296.623 364.271C296.623 362.631 297.583 361.191 299.663 360.591C297.823 359.031 296.503 356.431 296.503 353.271C296.503 349.151 298.943 346.471 302.463 346.471C305.943 346.471 308.743 349.511 308.743 354.591C308.743 356.351 308.423 357.871 307.983 359.351L308.503 359.271C312.943 358.671 314.303 357.111 314.303 354.471C314.303 352.671 313.343 351.031 312.023 349.591C311.703 349.191 311.543 348.871 311.543 348.591C311.543 348.191 311.863 347.791 312.343 347.791C312.743 347.791 313.103 348.031 313.623 348.431C315.463 349.751 317.063 352.671 317.063 355.671C317.063 360.831 313.503 362.111 309.623 362.671L302.903 363.671C299.903 364.071 299.583 364.951 299.183 367.031ZM298.903 354.471C298.903 356.831 300.343 359.031 301.943 360.191L305.903 359.631C306.423 358.271 306.703 356.791 306.703 355.391C306.703 352.031 305.183 350.271 302.783 350.271C300.503 350.271 298.903 351.991 298.903 354.471ZM301.183 380.149C301.183 380.629 300.783 380.949 300.303 380.949C299.823 380.949 299.303 380.669 298.743 380.149C297.223 378.709 296.503 376.749 296.503 374.589C296.503 371.509 298.223 369.349 300.263 369.349C301.103 369.349 304.183 369.429 306.943 369.429H314.463V366.829C314.463 366.109 314.783 365.669 315.383 365.669C315.903 365.669 316.223 366.069 316.503 366.709C317.503 369.109 318.943 370.189 322.583 371.109C323.623 371.469 324.103 371.709 324.103 372.309C324.103 372.749 323.783 373.029 323.063 373.029H316.583V379.869C316.583 380.309 316.383 380.549 316.023 380.549C315.743 380.549 315.343 380.469 315.103 380.429C314.663 380.349 314.463 380.109 314.463 379.709V373.029H302.863C299.903 373.029 299.023 374.189 299.023 375.829C299.023 377.469 299.983 378.389 300.663 379.189C300.903 379.429 301.183 379.789 301.183 380.149ZM321.183 384.331C321.183 383.251 321.903 382.211 323.223 382.211C324.743 382.211 326.423 383.731 326.423 385.731C326.423 386.931 325.663 387.971 324.383 387.971C322.863 387.971 321.183 386.331 321.183 384.331ZM296.823 382.091C296.823 381.411 297.263 381.131 297.623 381.131C299.143 381.131 297.983 383.651 301.223 383.651H311.023C313.503 383.651 312.143 380.811 313.703 380.811C314.343 380.811 314.783 381.531 315.783 383.611C316.783 385.651 316.903 386.091 316.903 386.411C316.903 387.051 316.383 387.251 315.503 387.251H301.223C297.983 387.251 299.143 389.851 297.623 389.851C297.263 389.851 296.823 389.571 296.823 388.971C296.823 388.091 296.943 386.891 296.943 385.451C296.943 384.051 296.823 382.931 296.823 382.091ZM296.223 401.061C296.223 394.941 300.543 390.661 306.623 390.661C312.783 390.661 317.343 395.261 317.343 401.541C317.343 407.661 313.023 411.941 306.863 411.941C300.743 411.941 296.223 407.301 296.223 401.061ZM298.383 401.901C298.383 405.701 301.463 408.061 305.463 408.061C310.503 408.061 315.143 405.061 315.143 400.701C315.143 396.901 312.103 394.541 308.063 394.541C303.063 394.541 298.383 397.541 298.383 401.901ZM301.623 433.165C297.863 433.645 299.183 436.085 297.623 436.085C297.063 436.085 296.823 435.605 296.823 434.965C296.823 433.925 296.943 433.085 296.943 431.485C296.943 429.845 296.823 429.125 296.823 428.045C296.823 427.325 297.183 426.925 297.663 426.925C299.103 426.925 298.143 429.605 300.623 429.605C300.943 429.605 301.423 429.525 301.823 429.485L308.583 428.525C310.623 428.205 313.983 427.485 313.983 424.325C313.983 421.925 312.063 419.325 307.983 419.325H301.223C297.983 419.325 299.143 421.925 297.623 421.925C297.263 421.925 296.823 421.645 296.823 421.045C296.823 420.165 296.943 418.965 296.943 417.525C296.943 416.125 296.823 415.005 296.823 414.165C296.823 413.485 297.263 413.205 297.623 413.205C299.143 413.205 297.983 415.725 301.223 415.725H311.023C313.503 415.725 312.143 412.885 313.703 412.885C314.343 412.885 314.783 413.605 315.783 415.685C316.783 417.725 316.903 418.165 316.903 418.485C316.903 419.125 316.383 419.325 315.503 419.325H313.143C315.223 420.605 317.023 422.685 317.023 425.765C317.023 430.525 312.383 431.685 309.103 432.125L301.623 433.165Z" fill="#1F4F71"/>
</g>
<defs>
<clipPath id="clip0_127_243">
<rect width="352" height="639" fill="white"/>
</clipPath>
</defs>
</svg>
