<svg width="390" height="893" viewBox="0 0 390 893" fill="none" xmlns="http://www.w3.org/2000/svg">
<path d="M115.438 245.588L304.248 350.704L301.734 134.62L378.803 336.509L515.773 169.363L445.04 373.558L657.405 333.559L471.966 444.515L660.358 550.38L446.982 516.179L523.25 718.372L381.779 555.018L310.236 758.93L306.865 542.858L120.987 653.077L257.294 485.389L44.0557 450.342L256.26 409.502L115.438 245.588Z" fill="#D9D9D9"/>
<path d="M335.44 321.041C335.44 320.401 336.12 320.081 336.72 319.801L339.28 318.601C340.76 317.881 341.32 317.521 341.84 317.521C342.4 317.521 342.68 317.841 342.68 318.321C342.68 318.721 342.32 319.161 341.92 319.561C339.36 322.121 337.6 324.921 337.6 327.881C337.6 330.521 339.08 332.161 340.92 332.161C343.16 332.161 343.64 329.961 344.48 326.321C345.44 322.441 346.68 318.081 350.64 318.081C353.68 318.081 356.08 320.761 356.08 324.801C356.08 327.041 355.36 328.761 355.36 329.401C355.36 330.081 356.16 330.081 356.16 330.841C356.16 331.521 355.56 331.881 354.8 332.321L352.64 333.641C351.92 334.081 351.08 334.521 350.64 334.521C350.16 334.521 349.84 334.161 349.84 333.761C349.84 333.361 350.24 332.921 350.6 332.521C352.48 330.481 354.04 327.761 354.04 325.161C354.04 323.041 352.96 321.721 351.48 321.721C349.44 321.721 349 323.601 348.04 327.561C347 331.721 345.8 335.801 341.52 335.801C337.88 335.801 335.56 332.561 335.56 327.961C335.56 325.241 336.44 323.401 336.44 322.761C336.44 322.001 335.44 321.921 335.44 321.041ZM360.24 340.144C360.24 339.064 360.96 338.024 362.28 338.024C363.8 338.024 365.48 339.544 365.48 341.544C365.48 342.744 364.72 343.784 363.44 343.784C361.92 343.784 360.24 342.144 360.24 340.144ZM335.88 337.904C335.88 337.224 336.32 336.944 336.68 336.944C338.2 336.944 337.04 339.464 340.28 339.464L350.08 339.464C352.56 339.464 351.2 336.624 352.76 336.624C353.4 336.624 353.84 337.344 354.84 339.424C355.84 341.464 355.96 341.904 355.96 342.224C355.96 342.864 355.44 343.064 354.56 343.064L340.28 343.064C337.04 343.064 338.2 345.664 336.68 345.664C336.32 345.664 335.88 345.384 335.88 344.784C335.88 343.904 336 342.704 336 341.264C336 339.864 335.88 338.744 335.88 337.904ZM340.24 359.793C340.24 360.273 339.84 360.593 339.36 360.593C338.88 360.593 338.36 360.313 337.8 359.793C336.28 358.353 335.56 356.393 335.56 354.233C335.56 351.153 337.28 348.993 339.32 348.993C340.16 348.993 343.24 349.073 346 349.073L353.52 349.073L353.52 346.473C353.52 345.753 353.84 345.313 354.44 345.313C354.96 345.313 355.28 345.713 355.56 346.353C356.56 348.753 358 349.833 361.64 350.753C362.68 351.113 363.16 351.353 363.16 351.953C363.16 352.393 362.84 352.673 362.12 352.673L355.64 352.673L355.64 359.513C355.64 359.953 355.44 360.193 355.08 360.193C354.8 360.193 354.4 360.113 354.16 360.073C353.72 359.993 353.52 359.753 353.52 359.353L353.52 352.673L341.92 352.673C338.96 352.673 338.08 353.833 338.08 355.473C338.08 357.113 339.04 358.033 339.72 358.833C339.96 359.073 340.24 359.433 340.24 359.793ZM341.08 378.421C341.08 378.861 340.68 379.221 340.16 379.221C339.92 379.221 339.6 379.101 339.2 378.861C337.08 377.381 335.28 373.901 335.28 370.421C335.28 364.981 339.08 360.381 345.76 360.381C352.04 360.381 356.4 364.981 356.4 370.221C356.4 375.141 352.64 378.421 348.72 378.421C347.88 378.421 347.64 378.181 347.44 377.581L343.6 364.741C340.32 365.821 338 368.421 338 371.741C338 374.101 339.04 376.101 340.48 377.381C340.88 377.781 341.08 378.101 341.08 378.421ZM354.08 369.701C354.08 366.541 351.36 364.141 347.24 364.141C346.68 364.141 346.16 364.181 345.64 364.261L348.52 373.501C348.72 374.221 348.92 374.421 349.6 374.421C351.6 374.421 354.08 372.541 354.08 369.701ZM340.68 408.434C336.92 408.914 338.24 411.354 336.68 411.354C336.12 411.354 335.88 410.874 335.88 410.234C335.88 409.194 336 408.354 336 406.754C336 405.114 335.88 404.394 335.88 403.314C335.88 402.594 336.24 402.194 336.72 402.194C338.16 402.194 337.2 404.874 339.68 404.874C340 404.874 340.48 404.794 340.88 404.754L347.64 403.794C349.68 403.474 353.04 402.754 353.04 399.594C353.04 397.194 351.12 394.594 347.04 394.594L340.28 394.594C337.04 394.594 338.2 397.194 336.68 397.194C336.32 397.194 335.88 396.914 335.88 396.314C335.88 395.434 336 394.234 336 392.794C336 391.394 335.88 390.274 335.88 389.434C335.88 388.754 336.32 388.474 336.68 388.474C338.2 388.474 337.04 390.994 340.28 390.994L350.08 390.994C352.56 390.994 351.2 388.154 352.76 388.154C353.4 388.154 353.84 388.874 354.84 390.954C355.84 392.994 355.96 393.434 355.96 393.754C355.96 394.394 355.44 394.594 354.56 394.594L352.2 394.594C354.28 395.874 356.08 397.954 356.08 401.034C356.08 405.794 351.44 406.954 348.16 407.394L340.68 408.434ZM338.24 431.449C338.16 431.889 337.96 432.089 337.64 432.089C336.88 432.089 335.68 430.569 335.68 428.689C335.68 427.049 336.64 425.609 338.72 425.009C336.88 423.449 335.56 420.849 335.56 417.689C335.56 413.569 338 410.889 341.52 410.889C345 410.889 347.8 413.929 347.8 419.009C347.8 420.769 347.48 422.289 347.04 423.769L347.56 423.689C352 423.089 353.36 421.529 353.36 418.889C353.36 417.089 352.4 415.449 351.08 414.009C350.76 413.609 350.6 413.289 350.6 413.009C350.6 412.609 350.92 412.209 351.4 412.209C351.8 412.209 352.16 412.449 352.68 412.849C354.52 414.169 356.12 417.089 356.12 420.089C356.12 425.249 352.56 426.529 348.68 427.089L341.96 428.089C338.96 428.489 338.64 429.369 338.24 431.449ZM337.96 418.889C337.96 421.249 339.4 423.449 341 424.609L344.96 424.049C345.48 422.689 345.76 421.209 345.76 419.809C345.76 416.449 344.24 414.689 341.84 414.689C339.56 414.689 337.96 416.409 337.96 418.889ZM355.8 450.116C355.8 450.676 355.52 451.076 355.04 451.076C353.76 451.076 354.16 448.996 352.04 448.116L337.04 441.836C336.08 441.436 335.8 441.076 335.8 439.916C335.8 438.716 336.12 438.356 337.08 437.956L351.96 431.676C354.2 430.756 353.76 428.716 355.04 428.716C355.56 428.716 355.8 429.116 355.8 429.676C355.8 430.716 355.68 431.756 355.68 433.476C355.68 434.996 355.8 436.116 355.8 436.996C355.8 437.636 355.52 438.036 354.96 438.036C353.64 438.036 354.16 435.716 352.32 435.716C352 435.716 351.16 435.876 350.12 436.316L339.44 440.636L350.12 444.836C351.2 445.236 351.88 445.516 352.48 445.516C354.12 445.516 353.64 443.076 354.96 443.076C355.52 443.076 355.8 443.476 355.8 444.116C355.8 444.916 355.68 445.956 355.68 447.036C355.68 448.116 355.8 449.116 355.8 450.116ZM360.24 454.218C360.24 453.138 360.96 452.098 362.28 452.098C363.8 452.098 365.48 453.618 365.48 455.618C365.48 456.818 364.72 457.858 363.44 457.858C361.92 457.858 360.24 456.218 360.24 454.218ZM335.88 451.978C335.88 451.298 336.32 451.018 336.68 451.018C338.2 451.018 337.04 453.538 340.28 453.538L350.08 453.538C352.56 453.538 351.2 450.698 352.76 450.698C353.4 450.698 353.84 451.418 354.84 453.498C355.84 455.538 355.96 455.978 355.96 456.298C355.96 456.938 355.44 457.138 354.56 457.138L340.28 457.138C337.04 457.138 338.2 459.738 336.68 459.738C336.32 459.738 335.88 459.458 335.88 458.858C335.88 457.978 336 456.778 336 455.338C336 453.938 335.88 452.818 335.88 451.978ZM339.72 475.427C339.36 479.307 337.64 481.627 334.8 481.627C331.08 481.627 328.44 477.307 328.44 470.867C328.44 464.547 330.48 460.227 333.52 460.227C335.2 460.227 336.72 461.427 337.68 463.507C338.2 461.947 339.28 461.147 340.56 461.147C342.04 461.147 343.36 462.587 344.28 464.027C345.4 462.147 347.12 461.027 349.32 461.027C353.12 461.027 356.32 464.387 356.32 470.427C356.32 471.067 356.28 471.707 356.2 472.307C359.72 472.827 361.44 475.067 361.44 476.307C361.44 477.387 361.08 478.307 360.4 479.427C360.08 479.907 359.72 480.307 359.24 480.307C358.76 480.307 358.36 479.987 358.36 479.187C358.36 476.907 358.12 474.707 355.84 474.147C354.92 477.347 352.8 479.307 349.88 479.307C346.16 479.307 342.92 476.027 342.92 469.947C342.92 468.427 343.12 467.067 343.48 465.867C343 465.107 342.52 464.387 341.8 464.387C341.12 464.387 340.84 465.027 340.68 466.547C340.24 470.147 339.88 474.067 339.72 475.427ZM354.32 469.987C354.32 466.987 352.56 464.827 349.8 464.827C346.8 464.827 344.92 467.187 344.92 470.347C344.92 473.347 346.64 475.507 349.44 475.507C352.4 475.507 354.32 473.107 354.32 469.987ZM330.4 471.027C330.4 475.387 332.08 478.067 333.72 478.067C335.16 478.067 336 476.747 336.32 474.027C336.6 471.267 336.88 468.667 337.2 466.027C336.56 464.787 335.4 463.747 333.92 463.747C331.56 463.747 330.4 466.387 330.4 471.027ZM338.24 501.65C338.16 502.09 337.96 502.29 337.64 502.29C336.88 502.29 335.68 500.77 335.68 498.89C335.68 497.25 336.64 495.81 338.72 495.21C336.88 493.65 335.56 491.05 335.56 487.89C335.56 483.77 338 481.09 341.52 481.09C345 481.09 347.8 484.13 347.8 489.21C347.8 490.97 347.48 492.49 347.04 493.97L347.56 493.89C352 493.29 353.36 491.73 353.36 489.09C353.36 487.29 352.4 485.65 351.08 484.21C350.76 483.81 350.6 483.49 350.6 483.21C350.6 482.81 350.92 482.41 351.4 482.41C351.8 482.41 352.16 482.65 352.68 483.05C354.52 484.37 356.12 487.29 356.12 490.29C356.12 495.45 352.56 496.73 348.68 497.29L341.96 498.29C338.96 498.69 338.64 499.57 338.24 501.65ZM337.96 489.09C337.96 491.45 339.4 493.65 341 494.81L344.96 494.25C345.48 492.89 345.76 491.41 345.76 490.01C345.76 486.65 344.24 484.89 341.84 484.89C339.56 484.89 337.96 486.61 337.96 489.09ZM340.24 514.768C340.24 515.248 339.84 515.568 339.36 515.568C338.88 515.568 338.36 515.288 337.8 514.768C336.28 513.328 335.56 511.368 335.56 509.208C335.56 506.128 337.28 503.968 339.32 503.968C340.16 503.968 343.24 504.048 346 504.048L353.52 504.048L353.52 501.448C353.52 500.728 353.84 500.288 354.44 500.288C354.96 500.288 355.28 500.688 355.56 501.328C356.56 503.728 358 504.808 361.64 505.728C362.68 506.088 363.16 506.328 363.16 506.928C363.16 507.368 362.84 507.648 362.12 507.648L355.64 507.648L355.64 514.488C355.64 514.928 355.44 515.168 355.08 515.168C354.8 515.168 354.4 515.088 354.16 515.048C353.72 514.968 353.52 514.728 353.52 514.328L353.52 507.648L341.92 507.648C338.96 507.648 338.08 508.808 338.08 510.448C338.08 512.088 339.04 513.008 339.72 513.808C339.96 514.048 340.24 514.408 340.24 514.768ZM360.24 518.95C360.24 517.87 360.96 516.83 362.28 516.83C363.8 516.83 365.48 518.35 365.48 520.35C365.48 521.55 364.72 522.59 363.44 522.59C361.92 522.59 360.24 520.95 360.24 518.95ZM335.88 516.71C335.88 516.03 336.32 515.75 336.68 515.75C338.2 515.75 337.04 518.27 340.28 518.27L350.08 518.27C352.56 518.27 351.2 515.43 352.76 515.43C353.4 515.43 353.84 516.15 354.84 518.23C355.84 520.27 355.96 520.71 355.96 521.03C355.96 521.67 355.44 521.87 354.56 521.87L340.28 521.87C337.04 521.87 338.2 524.47 336.68 524.47C336.32 524.47 335.88 524.19 335.88 523.59C335.88 522.71 336 521.51 336 520.07C336 518.67 335.88 517.55 335.88 516.71ZM335.28 535.68C335.28 529.56 339.6 525.28 345.68 525.28C351.84 525.28 356.4 529.88 356.4 536.16C356.4 542.28 352.08 546.56 345.92 546.56C339.8 546.56 335.28 541.92 335.28 535.68ZM337.44 536.52C337.44 540.32 340.52 542.68 344.52 542.68C349.56 542.68 354.2 539.68 354.2 535.32C354.2 531.52 351.16 529.16 347.12 529.16C342.12 529.16 337.44 532.16 337.44 536.52ZM340.68 567.784C336.92 568.264 338.24 570.704 336.68 570.704C336.12 570.704 335.88 570.224 335.88 569.584C335.88 568.544 336 567.704 336 566.104C336 564.464 335.88 563.744 335.88 562.664C335.88 561.944 336.24 561.544 336.72 561.544C338.16 561.544 337.2 564.224 339.68 564.224C340 564.224 340.48 564.144 340.88 564.104L347.64 563.144C349.68 562.824 353.04 562.104 353.04 558.944C353.04 556.544 351.12 553.944 347.04 553.944L340.28 553.944C337.04 553.944 338.2 556.544 336.68 556.544C336.32 556.544 335.88 556.264 335.88 555.664C335.88 554.784 336 553.584 336 552.144C336 550.744 335.88 549.624 335.88 548.784C335.88 548.104 336.32 547.824 336.68 547.824C338.2 547.824 337.04 550.344 340.28 550.344L350.08 550.344C352.56 550.344 351.2 547.504 352.76 547.504C353.4 547.504 353.84 548.224 354.84 550.304C355.84 552.344 355.96 552.784 355.96 553.104C355.96 553.744 355.44 553.944 354.56 553.944L352.2 553.944C354.28 555.224 356.08 557.304 356.08 560.384C356.08 565.144 351.44 566.304 348.16 566.744L340.68 567.784Z" fill="#1F4F71"/>
</svg>
