<svg width="275" height="304" viewBox="0 0 275 304" fill="none" xmlns="http://www.w3.org/2000/svg">
<g filter="url(#filter0_g_109_87)">
<path d="M266.652 122.022C259.39 109.14 248.829 97.5461 236.109 88.4968C223.389 79.4456 208.643 73.0334 193.466 69.9504C193.407 69.9374 193.338 69.9245 193.263 69.9078C193.522 69.6284 193.768 69.3637 193.985 69.1324C194.192 68.9122 194.395 68.6957 194.596 68.4792C201.444 61.1158 205.352 51.4206 205.599 41.1833C205.853 30.6517 202.18 20.8103 195.255 13.471C191.483 9.47561 186.583 6.22786 181.087 4.07935C175.931 2.06593 170.219 1 164.565 1C163.603 1 162.631 1.03146 161.677 1.09253C148.933 1.90123 137.826 8.30605 131.169 18.6748C131.131 18.7303 131.094 18.7877 131.058 18.845C130.185 20.2219 129.394 21.6746 128.706 23.1643C126.582 27.7592 125.466 32.5837 125.04 37.4359C124.34 45.3767 125.49 53.3896 127.105 60.5957C107.893 57.2869 90.8667 42.7248 86.225 24.8834C85.2746 21.223 84.0698 18.2825 82.5476 15.8971C78.2352 9.14251 72.2508 8.13395 69.0682 8.13395C68.4905 8.13395 67.9029 8.16541 67.3212 8.22832C62.4745 8.76129 58.4796 11.3502 56.0128 15.4641C55.6244 15.4437 55.232 15.4344 54.8376 15.4344C48.7013 15.4344 42.7819 17.6995 38.5977 21.6487C34.9873 25.0556 32.5659 29.5358 31.5938 34.6063C30.7558 38.9811 31.02 43.6223 32.3609 48.0285C34.804 56.0637 40.2817 62.5296 44.7814 67.267C54.1475 77.125 65.1463 85.7949 77.4741 93.0325C88.9461 99.7704 101.361 105.148 114.396 109.034L110.327 133.053C104.638 129.881 98.8979 126.781 93.154 123.78C88.3645 121.276 82.7034 118.606 76.1333 118.606C75.1631 118.606 74.193 118.665 73.2446 118.781C66.8362 119.57 61.3111 122.799 56.8193 128.377C53.4061 132.613 51.1602 137.507 49.5847 141.297L34.3485 177.937C32.56 176.663 30.5468 175.266 28.1786 174.071C24.8837 172.409 20.6088 171.415 16.7401 171.415C13.812 171.415 11.15 171.972 8.82919 173.068C5.45147 174.661 2.93148 177.381 1.73064 180.722C0.669806 183.673 0.237977 188.379 4.2033 194.038C5.94836 196.529 8.09567 198.619 9.82102 200.299C10.3928 200.856 10.9844 201.433 11.2644 201.744C19.3626 210.76 27.8671 219.66 36.5392 228.194C38.02 229.653 39.5225 231.116 41.0034 232.545C42.2594 233.754 44.594 236.006 48.2044 237.127C49.6695 237.584 51.1838 237.814 52.7041 237.814C59.503 237.814 65.5387 233.298 69.2654 225.426L90.8292 179.859L125.602 195.441C127.117 196.12 128.684 196.822 129.416 197.447C130.325 198.223 131.344 200.092 132.245 201.742L147.773 230.2C153.358 240.434 161.004 254.45 175.19 261.825C183.735 266.268 193.133 267.508 201.425 268.6C204.652 269.025 207.701 269.429 210.627 269.988C222.19 272.197 227.246 277.323 228.064 281.039C228.23 281.796 228.322 282.814 228.419 283.893C228.61 286.01 228.849 288.645 229.819 291.419C232.199 298.238 238.676 303 245.568 303C246.66 303 247.756 302.883 248.823 302.652C253.579 301.621 257.387 298.529 259.546 293.945C260.662 291.575 261.358 288.808 261.677 285.486L264.7 253.921C264.992 250.86 265.483 245.738 262.431 240.88C259.934 236.909 256.105 234.775 253.047 233.361C242.985 228.707 232.4 226.875 222.164 225.102C217.966 224.375 213.999 223.688 210.107 222.82C207.78 222.3 205.433 221.695 204.035 220.777C201.963 219.421 200.139 216.186 198.53 213.333C193.531 204.472 188.363 195.308 186.046 185.929C182.866 173.049 184.767 158.959 186.606 145.333L190.102 119.448C198.749 122.923 206.794 127.523 214.078 133.162C218.489 136.575 218.581 137.946 218.583 138.003C218.605 138.688 217.655 140.67 217.024 141.982C216.734 142.585 216.434 143.209 216.136 143.868C213.944 148.7 212.181 155.795 216.233 162.161C218.926 166.391 224.016 169.019 229.515 169.019C229.602 169.019 229.689 169.019 229.777 169.017C230.797 169.924 231.919 170.753 233.133 171.487C237.132 173.91 242.009 175.244 246.859 175.244C250.178 175.244 253.352 174.645 256.29 173.464C261.628 171.319 266.128 167.522 269.304 162.483C272.099 158.049 273.708 152.93 273.96 147.676C274.34 139.696 272.02 131.545 266.652 122.022ZM137.751 26.8451C138.267 25.7292 138.857 24.6392 139.529 23.5806C140.03 22.7905 140.566 22.0317 141.134 21.3044L172.806 29.6579L167.15 48.543L134.75 39.9971C134.964 35.4243 135.852 30.9552 137.751 26.8451Z" fill="#3DADFF"/>
<path d="M264.109 147.261C263.758 154.574 259.58 162.076 252.408 164.958C245.237 167.839 235.425 164.49 233.39 157.422C232.347 160.722 226.576 160.368 224.694 157.413C222.815 154.459 223.77 150.658 225.205 147.492C226.641 144.326 228.547 141.161 228.437 137.723C228.283 132.926 224.294 129.077 220.351 126.024C210.842 118.664 199.992 112.836 188.415 108.871C187.06 108.406 185.572 107.966 184.203 108.397C181.863 109.135 181.184 111.88 180.875 114.18C179.524 124.177 178.175 134.174 176.825 144.168C174.857 158.751 172.903 173.7 176.44 188.018C179.031 198.503 184.45 208.15 189.815 217.662C192.063 221.644 194.449 225.78 198.386 228.362C201.173 230.188 204.519 231.084 207.826 231.821C221.549 234.88 236.036 235.809 248.688 241.66C250.723 242.602 252.783 243.744 253.937 245.578C255.325 247.789 255.124 250.537 254.879 253.091C253.872 263.613 252.864 274.134 251.856 284.656C251.507 288.306 250.409 292.812 246.605 293.635C243.322 294.346 240.234 291.54 239.185 288.537C238.136 285.532 238.399 282.265 237.718 279.169C235.449 268.847 223.598 263.023 212.593 260.919C201.587 258.815 189.789 258.839 179.966 253.73C168.795 247.922 162.367 236.649 156.546 225.982C151.37 216.496 146.194 207.01 141.018 197.524C139.66 195.031 138.254 192.481 136.045 190.599C134.253 189.071 132.033 188.07 129.848 187.091C115.209 180.53 100.569 173.972 85.9297 167.412C77.372 185.497 68.8124 203.583 60.2527 221.668C58.5471 225.273 55.2916 229.583 51.3026 228.343C50.015 227.942 49.0134 227.002 48.0669 226.089C46.5939 224.67 45.1289 223.243 43.6717 221.809C35.1022 213.374 26.8067 204.691 18.8011 195.781C16.3245 193.023 9.57501 187.844 11.0716 183.678C12.6708 179.229 20.2721 180.586 23.5079 182.22C27.8183 184.394 31.2394 187.992 35.7588 189.754C36.7605 190.144 37.916 190.436 38.9137 190.029C40.0317 189.572 40.5779 188.403 41.0216 187.335C46.937 173.109 52.8525 158.886 58.7679 144.661C61.7986 137.369 66.2569 128.973 74.5247 127.954C79.3853 127.356 84.0723 129.623 88.357 131.862C98.295 137.057 108.099 142.479 117.755 148.125C119.981 134.98 122.209 121.838 124.435 108.693C124.745 106.876 125.011 104.866 123.94 103.325C122.899 101.829 120.916 101.237 119.096 100.715C93.5429 93.4055 69.9166 79.8223 52.1387 61.1075C47.7593 56.4977 43.6461 51.4272 41.8399 45.4868C40.0317 39.5483 40.9466 32.5513 45.5863 28.171C50.228 23.7926 58.9296 23.3003 63.1079 28.073C62.8733 23.7297 63.8631 17.9244 68.4653 17.4192C73.2569 16.8918 75.5028 22.6767 76.6464 27.0755C82.765 50.6018 106.435 69.0927 132.195 70.4714C134.259 70.5806 136.684 70.4325 137.852 68.8299C138.869 67.4346 138.463 65.5618 138.031 63.9203C136.093 56.5384 134.367 48.0998 134.748 39.9962L167.149 48.5421L172.804 29.6571L141.133 21.3036C146.155 14.8636 153.713 10.8701 162.342 10.3223C171.72 9.72642 181.567 12.9242 187.873 19.6066C198.881 31.2689 198.083 50.6555 187.167 62.3936C184.091 65.7006 180.031 69.6423 181.681 73.7506C183.058 77.1778 187.565 78.2178 191.379 78.9932C219.469 84.6985 244.497 102.505 257.935 126.347C261.583 132.819 264.458 139.947 264.109 147.261Z" fill="#4C1F00"/>
<path d="M172.804 29.6582L167.149 48.5432L134.748 39.9973C134.963 35.4245 135.85 30.9554 137.749 26.8453C138.266 25.7294 138.855 24.6394 139.528 23.5809C140.029 22.7907 140.565 22.032 141.133 21.3047L172.804 29.6582Z" fill="#FFE0CB"/>
</g>
<defs>
<filter id="filter0_g_109_87" x="0.9" y="0.9" width="273.2" height="302.2" filterUnits="userSpaceOnUse" color-interpolation-filters="sRGB">
<feFlood flood-opacity="0" result="BackgroundImageFix"/>
<feBlend mode="normal" in="SourceGraphic" in2="BackgroundImageFix" result="shape"/>
<feTurbulence type="fractalNoise" baseFrequency="2 2" numOctaves="3" seed="7158" />
<feDisplacementMap in="shape" scale="0.20000000298023224" xChannelSelector="R" yChannelSelector="G" result="displacedImage" width="100%" height="100%" />
<feMerge result="effect1_texture_109_87">
<feMergeNode in="displacedImage"/>
</feMerge>
</filter>
</defs>
</svg>
